<mxfile host="app.diagrams.net" modified="2023-07-17T20:23:14.184Z" agent="Mozilla/5.0 (Windows NT 10.0; Win64; x64) AppleWebKit/537.36 (KHTML, like Gecko) Chrome/114.0.0.0 Safari/537.36" etag="yMapsyAzafa2OJ1ajbBs" version="21.6.2" type="github">
  <diagram id="C5RBs43oDa-KdzZeNtuy" name="Page-1">
    <mxGraphModel dx="2670" dy="796" grid="1" gridSize="10" guides="1" tooltips="1" connect="1" arrows="1" fold="1" page="1" pageScale="1" pageWidth="827" pageHeight="1169" math="0" shadow="0">
      <root>
        <mxCell id="WIyWlLk6GJQsqaUBKTNV-0" />
        <mxCell id="WIyWlLk6GJQsqaUBKTNV-1" parent="WIyWlLk6GJQsqaUBKTNV-0" />
        <mxCell id="CPEIrPVz57s7VJ4nKZEA-3" value="" style="edgeStyle=orthogonalEdgeStyle;shape=connector;rounded=0;orthogonalLoop=1;jettySize=auto;html=1;labelBackgroundColor=default;strokeColor=default;fontFamily=Helvetica;fontSize=11;fontColor=default;endArrow=classic;" parent="WIyWlLk6GJQsqaUBKTNV-1" source="WIyWlLk6GJQsqaUBKTNV-3" target="WIyWlLk6GJQsqaUBKTNV-7" edge="1">
          <mxGeometry relative="1" as="geometry" />
        </mxCell>
        <mxCell id="WIyWlLk6GJQsqaUBKTNV-3" value="Массив исходных данных (line, trains, podsos, vsp)" style="rounded=1;whiteSpace=wrap;html=1;fontSize=12;glass=0;strokeWidth=1;shadow=0;" parent="WIyWlLk6GJQsqaUBKTNV-1" vertex="1">
          <mxGeometry x="160" y="80" width="190" height="50" as="geometry" />
        </mxCell>
        <mxCell id="CPEIrPVz57s7VJ4nKZEA-18" value="" style="edgeStyle=orthogonalEdgeStyle;shape=connector;rounded=0;orthogonalLoop=1;jettySize=auto;html=1;labelBackgroundColor=default;strokeColor=default;fontFamily=Helvetica;fontSize=11;fontColor=default;endArrow=classic;" parent="WIyWlLk6GJQsqaUBKTNV-1" source="WIyWlLk6GJQsqaUBKTNV-7" target="CPEIrPVz57s7VJ4nKZEA-0" edge="1">
          <mxGeometry relative="1" as="geometry" />
        </mxCell>
        <mxCell id="WIyWlLk6GJQsqaUBKTNV-7" value="Генерация запросов в ML API&amp;nbsp; и формирование массива полученных ответов для каждого сочетания line, year, podsos" style="rounded=1;whiteSpace=wrap;html=1;fontSize=12;glass=0;strokeWidth=1;shadow=0;" parent="WIyWlLk6GJQsqaUBKTNV-1" vertex="1">
          <mxGeometry x="155" y="170" width="200" height="70" as="geometry" />
        </mxCell>
        <mxCell id="CPEIrPVz57s7VJ4nKZEA-11" style="edgeStyle=orthogonalEdgeStyle;shape=connector;rounded=0;orthogonalLoop=1;jettySize=auto;html=1;exitX=1;exitY=0.5;exitDx=0;exitDy=0;entryX=0;entryY=0.5;entryDx=0;entryDy=0;entryPerimeter=0;labelBackgroundColor=default;strokeColor=default;fontFamily=Helvetica;fontSize=11;fontColor=default;endArrow=classic;" parent="WIyWlLk6GJQsqaUBKTNV-1" source="WIyWlLk6GJQsqaUBKTNV-7" target="CPEIrPVz57s7VJ4nKZEA-6" edge="1">
          <mxGeometry relative="1" as="geometry">
            <mxPoint x="360" y="195" as="sourcePoint" />
          </mxGeometry>
        </mxCell>
        <mxCell id="CPEIrPVz57s7VJ4nKZEA-12" style="edgeStyle=orthogonalEdgeStyle;shape=connector;rounded=0;orthogonalLoop=1;jettySize=auto;html=1;exitX=1;exitY=0.5;exitDx=0;exitDy=0;entryX=0;entryY=0.5;entryDx=0;entryDy=0;entryPerimeter=0;labelBackgroundColor=default;strokeColor=default;fontFamily=Helvetica;fontSize=11;fontColor=default;endArrow=classic;" parent="WIyWlLk6GJQsqaUBKTNV-1" source="CPEIrPVz57s7VJ4nKZEA-0" target="CPEIrPVz57s7VJ4nKZEA-7" edge="1">
          <mxGeometry relative="1" as="geometry" />
        </mxCell>
        <mxCell id="CPEIrPVz57s7VJ4nKZEA-14" value="" style="edgeStyle=orthogonalEdgeStyle;shape=connector;rounded=0;orthogonalLoop=1;jettySize=auto;html=1;labelBackgroundColor=default;strokeColor=default;fontFamily=Helvetica;fontSize=11;fontColor=default;endArrow=classic;" parent="WIyWlLk6GJQsqaUBKTNV-1" source="CPEIrPVz57s7VJ4nKZEA-0" target="CPEIrPVz57s7VJ4nKZEA-9" edge="1">
          <mxGeometry relative="1" as="geometry" />
        </mxCell>
        <mxCell id="CPEIrPVz57s7VJ4nKZEA-0" value="Приведение массива&amp;nbsp;Forces_all от&amp;nbsp;всех колес к одному на каждой стороне пути, с учетом влияния всех коэффициентов от подвижного состава, поездопотока, климатических условий и прочих коэффициентов, для каждого сочетания line, year, podsos, trains, climat etc" style="rounded=1;whiteSpace=wrap;html=1;" parent="WIyWlLk6GJQsqaUBKTNV-1" vertex="1">
          <mxGeometry x="135" y="290" width="240" height="110" as="geometry" />
        </mxCell>
        <mxCell id="CPEIrPVz57s7VJ4nKZEA-17" value="" style="edgeStyle=orthogonalEdgeStyle;shape=connector;rounded=0;orthogonalLoop=1;jettySize=auto;html=1;labelBackgroundColor=default;strokeColor=default;fontFamily=Helvetica;fontSize=11;fontColor=default;endArrow=classic;" parent="WIyWlLk6GJQsqaUBKTNV-1" source="CPEIrPVz57s7VJ4nKZEA-5" target="CPEIrPVz57s7VJ4nKZEA-8" edge="1">
          <mxGeometry relative="1" as="geometry" />
        </mxCell>
        <mxCell id="31FbOrhQEXPfEeR5PZsG-0" value="" style="edgeStyle=orthogonalEdgeStyle;rounded=0;orthogonalLoop=1;jettySize=auto;html=1;" parent="WIyWlLk6GJQsqaUBKTNV-1" source="CPEIrPVz57s7VJ4nKZEA-5" target="CPEIrPVz57s7VJ4nKZEA-19" edge="1">
          <mxGeometry relative="1" as="geometry" />
        </mxCell>
        <mxCell id="CPEIrPVz57s7VJ4nKZEA-5" value="Вычисление di для каждого сочетания line, year на основе массивов tensions_one_side_wheel,&lt;br&gt;Forces_tensions_one_side_wheell" style="rounded=1;whiteSpace=wrap;html=1;" parent="WIyWlLk6GJQsqaUBKTNV-1" vertex="1">
          <mxGeometry x="131.25" y="570" width="247.5" height="70" as="geometry" />
        </mxCell>
        <mxCell id="CPEIrPVz57s7VJ4nKZEA-6" value="Массивы Forces_all" style="strokeWidth=2;html=1;shape=mxgraph.flowchart.document2;whiteSpace=wrap;size=0.25;fontFamily=Helvetica;fontSize=11;fontColor=default;" parent="WIyWlLk6GJQsqaUBKTNV-1" vertex="1">
          <mxGeometry x="490" y="180" width="183.75" height="50" as="geometry" />
        </mxCell>
        <mxCell id="CPEIrPVz57s7VJ4nKZEA-7" value="Массив Forces_one_side_wheel" style="strokeWidth=2;html=1;shape=mxgraph.flowchart.document2;whiteSpace=wrap;size=0.25;fontFamily=Helvetica;fontSize=11;fontColor=default;" parent="WIyWlLk6GJQsqaUBKTNV-1" vertex="1">
          <mxGeometry x="483.75" y="320" width="190" height="50" as="geometry" />
        </mxCell>
        <mxCell id="CPEIrPVz57s7VJ4nKZEA-8" value="Массив di_one_side_wheel" style="strokeWidth=2;html=1;shape=mxgraph.flowchart.document2;whiteSpace=wrap;size=0.25;fontFamily=Helvetica;fontSize=11;fontColor=default;" parent="WIyWlLk6GJQsqaUBKTNV-1" vertex="1">
          <mxGeometry x="482.5" y="580" width="190" height="50" as="geometry" />
        </mxCell>
        <mxCell id="CPEIrPVz57s7VJ4nKZEA-15" value="" style="edgeStyle=orthogonalEdgeStyle;shape=connector;rounded=0;orthogonalLoop=1;jettySize=auto;html=1;labelBackgroundColor=default;strokeColor=default;fontFamily=Helvetica;fontSize=11;fontColor=default;endArrow=classic;" parent="WIyWlLk6GJQsqaUBKTNV-1" source="CPEIrPVz57s7VJ4nKZEA-9" target="CPEIrPVz57s7VJ4nKZEA-5" edge="1">
          <mxGeometry relative="1" as="geometry" />
        </mxCell>
        <mxCell id="CPEIrPVz57s7VJ4nKZEA-16" value="" style="edgeStyle=orthogonalEdgeStyle;shape=connector;rounded=0;orthogonalLoop=1;jettySize=auto;html=1;labelBackgroundColor=default;strokeColor=default;fontFamily=Helvetica;fontSize=11;fontColor=default;endArrow=classic;" parent="WIyWlLk6GJQsqaUBKTNV-1" source="CPEIrPVz57s7VJ4nKZEA-9" target="CPEIrPVz57s7VJ4nKZEA-10" edge="1">
          <mxGeometry relative="1" as="geometry" />
        </mxCell>
        <mxCell id="CPEIrPVz57s7VJ4nKZEA-9" value="Вычисление на основе массива&amp;nbsp;Forces_one_side_wheel&lt;br&gt;&amp;nbsp;необходимых для&amp;nbsp;определения di&amp;nbsp;&lt;br&gt;напряжений и деформаций&amp;nbsp;каждого сочетания line, year" style="rounded=1;whiteSpace=wrap;html=1;" parent="WIyWlLk6GJQsqaUBKTNV-1" vertex="1">
          <mxGeometry x="135" y="440" width="240" height="90" as="geometry" />
        </mxCell>
        <mxCell id="CPEIrPVz57s7VJ4nKZEA-10" value="Массив tensions_one_side_wheel" style="strokeWidth=2;html=1;shape=mxgraph.flowchart.document2;whiteSpace=wrap;size=0.25;fontFamily=Helvetica;fontSize=11;fontColor=default;" parent="WIyWlLk6GJQsqaUBKTNV-1" vertex="1">
          <mxGeometry x="482.5" y="460" width="190" height="50" as="geometry" />
        </mxCell>
        <mxCell id="CPEIrPVz57s7VJ4nKZEA-21" value="" style="edgeStyle=orthogonalEdgeStyle;shape=connector;rounded=0;orthogonalLoop=1;jettySize=auto;html=1;labelBackgroundColor=default;strokeColor=default;fontFamily=Helvetica;fontSize=11;fontColor=default;endArrow=classic;" parent="WIyWlLk6GJQsqaUBKTNV-1" source="CPEIrPVz57s7VJ4nKZEA-19" target="CPEIrPVz57s7VJ4nKZEA-20" edge="1">
          <mxGeometry relative="1" as="geometry" />
        </mxCell>
        <mxCell id="CPEIrPVz57s7VJ4nKZEA-19" value="Вычисление для каждого year, значения di в целом для участка на основе массива&amp;nbsp;di_one_side_wheel" style="rounded=1;whiteSpace=wrap;html=1;" parent="WIyWlLk6GJQsqaUBKTNV-1" vertex="1">
          <mxGeometry x="131.25" y="700" width="247.5" height="70" as="geometry" />
        </mxCell>
        <mxCell id="CPEIrPVz57s7VJ4nKZEA-20" value="Массив di_one_side_km" style="strokeWidth=2;html=1;shape=mxgraph.flowchart.document2;whiteSpace=wrap;size=0.25;fontFamily=Helvetica;fontSize=11;fontColor=default;" parent="WIyWlLk6GJQsqaUBKTNV-1" vertex="1">
          <mxGeometry x="482.5" y="710" width="190" height="50" as="geometry" />
        </mxCell>
        <mxCell id="31FbOrhQEXPfEeR5PZsG-1" value="rabbit MQ" style="rounded=1;whiteSpace=wrap;html=1;" parent="WIyWlLk6GJQsqaUBKTNV-1" vertex="1">
          <mxGeometry x="11.25" y="80" width="78.75" height="690" as="geometry" />
        </mxCell>
        <mxCell id="ijbjJtJW8E8vfhgsB_Iy-0" value="" style="shape=image;verticalLabelPosition=bottom;labelBackgroundColor=default;verticalAlign=top;aspect=fixed;imageAspect=0;image=data:image/jpeg,/9j/4AAQSkZJRgABAQEAYABgAAD/2wBDAAQDAwQDAwQEAwQFBAQFBgoHBgYGBg0JCggKDw0QEA8NDw4RExgUERIXEg4PFRwVFxkZGxsbEBQdHx0aHxgaGxr/2wBDAQQFBQYFBgwHBwwaEQ8RGhoaGhoaGhoaGhoaGhoaGhoaGhoaGhoaGhoaGhoaGhoaGhoaGhoaGhoaGhoaGhoaGhr/wgARCACYBQADASIAAhEBAxEB/8QAGwABAAMBAQEBAAAAAAAAAAAAAAMEBQIGAQf/xAAXAQEBAQEAAAAAAAAAAAAAAAAAAQID/9oADAMBAAIQAxAAAAH8/pT8izFGdcSwEn35IildiXqjqZUBQAAAAAAAAAAAAAAAAAAAAAAAAAAAAAAAAAAAAAAAAAAAAAAAAAAAAAAAAAAAAAAAAAAAAAAAC/QvnVrLlSxFHHLLxWkrR+1vkXvlPmpu4Yyz1FAX6/yKNGGv9qf5XF+XJ6J/tbo7u5nZLapxlnuh0c3sy0Sy00W/tXqy1T+xy3oY46uwR8GvVrxlyxnclqPn4LlDonu4cxYmoyRbhoWal+1fpZsZyNGl8hq99q1zThirRbtUPtX/ALQ4NPiiLcufMOY+j7YoyFyXK7LE1CQltZv0vxVBfly+TXr0Yi/azoo0eKvNbFelzFyXN7qCxX4Ltij9O7VCykehlfVvcVPpd+VPhe6r1jRgq/U0q9P6ulUjjjXjye60YYOjUp04i/1F8TvmCNYPn35AUAAAAAAAAAAAAAv0L5QAAAAAPp8AAAAAAAAAAAAAAAAAAAAAAAAAAAAAAAAAAAAAAAAAAAAAAAAAAAAAAAAAAAAAAAAAAAAAAAAAv0L5cteaJu2PNFsb/mB6fjz3B6WLz4ns5/ZsR5BPT1sL4ulo4UJ6bFpzGxzhjcueXFiHnuJN7zSty75Ylj0PnIV9LRyOjVnxODf5wh6ellwxPBJHWpPiD0jzf0ta+HCmvHndLr/cMb33AR10jrb7wR6bPyei/o4MaaU2ZFL6HjBV6P754auXHIc7WGNu75cbPOV2m7J5ktnVx4TasedHpvPw9nN2iPQ84A9Tg1Jj0UHnhq9ZnMb3zAV6CfzXZoUYJCPcwya+h5gvoMylMbdXIkNC5hcGzZ86NfK57OtjCHoHnxsQ0eT0uJTmjajw1b1ry8xrw5COu/kdbtXMmN3vzIuaWPCbjD+np/P10dWIOLNiXG5l9LF51VzUxYTbteaHpY8SEmj57JtDGkL+r5nlLUtazLYsYXdaV/zI06MX0k2sPg1b3nBrd4w9DxhfD0f3BjNfL5+H3f8APSnq6vmBq9ZA9HL5ftNqvlJdrvCV6D5gCeHr4eiteRkPSZubGbM/nx6eDz/caNrBVuy+dHqa2LCS/Pguej8d9PRffNTRqQZvyvQwYo17Pn5DVn8+NnLi+xJ6HzKz2Wf537Lu0KXNb83n+S5qecGxe8yPSMSsT8xfST2Hivqeoj80XepUB6iDz/BqS5EhsQ46PS5uYJXzmvYReSHpYMEaOx5YeiqZP2Naz56atnrz/wBPTZuXyWK/3s3rvkCeoz8dLtw5nNeoxqSN2PH4rfs+XmPnzoWvReNHpPvmkblbMV6GDFG1NhcHoOMTs9Jm0oYmq/flbDHHpoMH4eh4whr2MIm9L5npbmhjDTuYER6LGrfY+X6F+q+tidGxY8/Kav3A6NutV+HoIsSuaU2ZwbnzElN35gfTQofRDp5vBuT4fRrcZPZpw5nZpX/OfUs6OH8l2ZsH7XocDno4tVeI2ZM6vXoqmbwbUGfWNO9h8muyBt9ZEZraPmei9S+RRxo51url7z/Zsfcbk2K+Z1G39w4q9NkVBtQ5fUbvODxVmtZ4LNrN+mxJgfDZ6xPqaXeLaXYk87JFnS8/YsuWsSFfV0MacnqczxX1cuWzYixku/Xyoq9FnUfptT+dkLN/D4Na/wCflNLMinipo0Zav3fPjd+YfEbtelFWjcxuU0lGGXb+YMlb/eJXNKjLWOd3JiNGfI5L2z5n6m7Vyu5dG3iwVsXfPTk1TiyVtzEkTWo0vsutZ8/9r0WRFBHoaNBW5P5+sb2fRskfEvJr9YMhc6zxuxY3RpQU7hP1nzpb4yJF6itfS5DU4NGKPmNDnMkq7HzXNLmp9NnOgoE0XVoq7ebEas2BbSxxU5XXlxJDRq15S1xldG3XrfIignjqfSowmr1jTxoZv3mtuLP5iyz1X5sMa97zRNCvXKtVRr2MAehq5A0ZshHosuirar5o9DBiixXCxpYo3pfODV5zBrXPOkt6OGXR0vOD0EeGJfsI+6GcPRRYQ9HnZo17GAPQZ+eNuPIG5L54d/Yx928Mm7358u1Dlo25vPK38+gNjnJG9N5sbGTyJovg1rGCPQ84A0maN+pljX6xhrW/PCzxCj7p5at9gD0OfnDRuYQ1vmUNeTEG9354XoIAu0hp/M0X9Tzg3q2UjTtYStWGhfJYY7RRhvWzPs88DqrFG5ziqvdZ40ZMobceQLPEIWaw0eKIvd5w1I88afOcNTjORNCVYs5wvfKQ0e8saUdEaf3LG/Rzh1NXAAAAAAAAAAAAAAAAAAAAAAAAAAAAAAAAAAAAAAAAAAAAAAAAAAAAAAAAC/QvkMnLnnv7FKcu+Yqx3+Sk0alQr8ZUaEZTWbHTWc029ZjXrFE0eEzlruKS1KtBbljPSW9SgucRWHWAAAAAAAAAAAAAAAAAAAAAAAAAAAAAAAAAAAAAAAAAAAAAAAAAAAAAAAAAAAAAAL9C+VdIkp8kfOQcFfeAl+EfQci2Qav3kI+zE5kJfsYOghkNT7wRwNAAAAAAAAAAAAAAAAAAAAAAAAAAAAAAAAAAAAAAAAAAAAAAAAAAAAAAAAAAAAAAF8P/xAAqEAADAAEFAAEDAwUBAQAAAAABAgMEABESExQQICMyBSEiFSQxYHAwQP/aAAgBAQABBQLzL4YxNicWg0cHahw6AWxniJYj2TyuF8bNSczV/HTc/sf+J4v5DKK42PYR0cotE5LHRzXIpkNUSynirZrOpzW7IWE6JmlX/wCKYv5CCHHX9P5t4/s5ON59JjNSUIm9fEd4Y87IuCCPGCiRmXOOnQ0ZrldEuHkXn1y6ExJUpTGRB55uehE0mCC3jjzTFBac4PTz7Q8S0r5R1PhKKWjGSyx5UTImI2bAKlMde9MIHSY0+c8IOi4SnTSVYNizN+hRHyKljjhgn6b/ACvjTkni/df0793xprOsFXVJzRPCK6bHmkv6ena2KoDYk5t5JGfk4UeUAnnm+vPNdDAHL+n9lZzmYjEU5IhEqmNLsOOgjiQGQ74iKiYIDthoD/TwCuEu84SdZYk20sEZJynqaTMvGKZHiAk2Cs8meOjQniyfSxk2vHLc4IKRxZvpsKYoMCbST9OQHzx2bEHE4M1iuGtdeaXVTAlJjhpyXGlRBiRZ4yNq0xWSiYweZxpDS4pdFxJiy4+8DhSe/kTpOPN2GGApw10MFSFwRybBU1ljzoGwFNEx5vK+EktJjo2KcGXcMSTRTGi5GIH036fNVEIqVwuSxxFI8W6+Vdz+x/8AuxfyFXVGyqsTk0ZXs9fhHabDJbicqp0uXZB6ahRl1D+mnD225einX7LcvQ/W2XVteyp0cqh16q69NdDKquvTXiMuob0U4Nl1ZmzKGYyqhxeizbJq7djbDKfn6q6GVVR7K6nmUnr2WDemnX7Lc/TTguVVT6KcDm3OvTQn120cqpPrcy9lSwyqgDLsGFWGhlWGmyqsvtty7W2OW/L00A9VdequhlVXQzbKzXo6DMsH7X17LcuxiDfbTZVX167bnIodeu2hlVXXqrqebRK+mgT115HIo0/VXf0U0uVVW9NOPp469VOPrtr1V39VdlyqooyKKWyavo1c69luffQ6fI0cqpHstr1V0cmrahlNEizrp3NG9NOJyql/TTgc6u/orxbKq2jk1OjlUOvXbS5Lg0zqFhk1GlyqoRlVVVyapr1VC+u2jkUI7n5LkUSfrqW9jibZVWBs7N7GEJ5tEr6q8Uu82J3P/wB2L+X/AB/F/L/z2/b/AIni/ks98YYsaNbGRUbDiHunCz4mPyTBUnyR0mLB9Wmq4Nl41cnx4nXS7SlNDhx9D4/GOHJaUbEiJNhyQZEwlfMm5jGKpjSZExZeh2GzKUKnktox59EGxTiLK1ZlKnDgXTCkzXjNY4UFtpJpSWNCORUY++OceUtUmq4x+82sbhS9ZRkGw5czjcTjTD3xY499Ux1GJixFNLioZrGN7+eBxspExjxJVG4PjzR8YRg2QmFJ3tNvJBZifmj1ZkRKvSnjtOQsMWbYrY29K48lXI4o2xbSnZsWaVQSgaTwpUu8yMLDjN1fDkJUxYzas+FqYi9lpwkoxI9k8aW5PMEbGIFnqkA3lkY+XhkTTnkLiQZhiTMMyKJqMFfFac2aGNK6DG5DzyGrBfK33X1iddbmUkQ4cfQ8OuOOilkhCkMqCznGIaAxJgylG+hix4ZPGL8Txm3Bkihw5xx6ZHkn0Zs2TSLIY74kA+TLrt0zmHnJC2IoxvGGy6TkJZXGWVxPGbBHmkji4cVpRsWIk2HJBkTCV8qbmMYqmNJlniy9DsNmUoZsNZqTXU8eTYr4cRZ8WKaxph7dSprpi1PLtWOLPjOcuRb+DKUM2Gs1JroLIQpiQFbz67Yv5fUHYfTzbj8bbfD1pX5WtEH0u5o30LaiL8KxQu7UPzSrV+EczP0baa1HXQJUvRqH6OZ4fQrFC7tQ6Srz1/n5RyjMxdtcyE+gEqWd6n47aBPoVijf5+nupw+Eo0yzFj8A8TSjVbSuVH0vV6/Cs0yzFz9BclfoR2mWYsdLWiD5nVot8cyU+Hq9fla0QfG3y7mjaSjzJJY/D1pQfPa3X8O5o2ko0ySWOltRFxfyXr856ZHeLQr5u3Kr955lNLQqtylYptjzPn68iBpX7a4lqp2gQOIUU2uZAZNz2cGZEbg2Jkqk3rB0muM1mdQMqVLZK+bp2xvQ4j1wiZvxj1s0KZH9t1ZDpOXFqaB2OFlqp7YNFBjHIo81TLnS11EBjsMb0U84EImVi6ifKLXZU5TEkmlF1zLJRDN8au1J5Uqascd5186ENzxpSMWk2O8rzWk5TCTRccai0akebqyq8H6yJzczaGUk8er47Pxx+rtX11hRqK8O7bHLSiyPzRKcpHW0/RFJiC2n3NQ8XmZkUIT2SalTjnXHGC49d9QiUceTlNcfprPvIE1iemWt4NCnn7cqv3nmU0tCqjKkxo+M7IuN14td3jEig8poi4/nugsVVBi0ojUn0PDipanUhvXlHZrHWHlhWNoGAGMcijSRMtKWfdJyfzdtYMXZZF6NGar5t5GK3LlkdDN8avGqZMqaqcek6+dCH/tpSMWm2O8LzWiQmqp2JQYvRUoqmX25ao/LD/nk01jZOz1vNp083fxjw2x1aTQedVeuPiJOetsYzbzLRYEPwm1K0iqAYy2BiJfzyH1i/lxJDyeR+SSdBGYfSQVOgXix31wbfc7AbkRow+lkZD9S8jrYgaCM2nRpn6ODcfoZqcNbED921sdiCp0saOSCD9Bm6r87nb5AJ0QR8LN2LKUP0fd6fgksdAFjr/OiCpII1xbfQBOuqnD6AGqxBU/UATogr8LKjkgqVYqWYsdbkAzcL9BBU6KldbHbi2/wJO2lm+3W7D/w4N8AE64Oq0WzMyMoBI+gAsdAbkjY8SDxPwATrrfgZOummyj4BKnWL+U6FSc0c/TM4rZMu02hsMtPQao5gPO/rhumRBZU/uT3KMSuX9wXkcRCr5F8hBrJyWo4nvMEqZZXVEZadq5Mu1MiQl6UkrZEzi5Ci9lyBNPXI0pPm1LSelcpQq5MA6ZUg45U068Hx7cKjN2U5Eji+mXo7Y9a5iHJNEeUh5mnmJ03ZLzx2SCrlA6xMqfKbz662870vzxVDZD6hcKaZnKVMqRt3x29EVaOWnByGhiVTF16IGT5chTrAc1m1K5Y4jJgLemXWgbIprHtwr7ftnJlwXIiLJaIEMxezmpx8dhimmTAytlR1dBWnrRanJ4Te8SkODWbLHDJsWyDPjNWKEZSrKeYhyO+Zx63jQ2yl41vGr1U3oMxe30xLxTqdLS5tl7BMnHnU3n5FDZD6hcKXzOUnypGnfHQyIqYZacWIbHm/kX1SMcnbJqKquHTL3ouRI4wZXrfIRDkZJoAhdAdjhU5MKhVNJ+mCdbjMjzS8Bj3YZR5quM+TFWXJRpNlRL5VudnnwVWK6Z1OMlknk774+OwxdUyYGVcuQNk5uctFucnjKl4nUODO2Yur1Js0+M1YprmrYa2muXy3hL+1Iy5mGSy5OlZZwxfy4nRRl1wbbz0+FUsy49HAg5HQ+wG+up9+DcVVnPRTr6n5dTdYhRtCFSjIVGhF208KTdIvRmx6IQjHVZNF+Dcet9+DbAFjxbRmw1wbXS/BlKNpcWrP1tqePSumk66nClX11PvwbRRl0EZtNj1Udb7mTBOip0YUEnQzbSY1HczYaSFKF4UmVk7sylG6311PvoowPW+wRm0snZWQp8Lj0d2k6lI0ozwohE3YujSfrfbqffS41XbrcBYUdwjEeW3b1P8KhYNj0VODAnGqqGbA+egmqs2uDbdT7/41wYa6224NpY0dihC6E2IfGpN1mzF8aszxbVYPHXBiOttdb6A3K49W1wbYRclZO+lxqu3BgughKvjUmeJ0+LaeuDaeFJoEZtdb7MpQ8G2E3bXE66n5NJ1+AhKvjUnrg2nxaovBt2hRZqjPrg2zKyEIxD49Ubg2zRdW6acGx6oSNiP3Ix6EiDsFmz6A311PvwbZlZNcTx62J4NrF/JMlFguZvkHO3x8vKW2go6v8axLIF7lBN0No8IvDO6w+SlYwomNTvUzTNHfS8qLkZShaZK0Ex2Of8AIb94Zs51TMRBP9RXm2SjY9uq9FzFSDZ6Namar6mUgwykC+ze4z1AtkrTHUBxqVeDTzUnj+5Z6fNk0jlypk8E0f1JGcZybVyFyBGyQCZSrrEzRIyvJErlLF3srwQCjahXrtHKSeMc9QRnz2pkTqteu1Rm7P75mkuMmXKmHplsVGfMWOYpjMCj6lThWGXOU/cilP1BOT5CUhbqvZczi3vQ02XT5iG5ydptmxa0aTGOc4Grn+TqqjfbU7quvdLsXPG3vmLc5dEKpiGmcrztnowtwu7Zc2pTM3C5ygrnJzH8tUAWm/7SzJpkDMmAv6gpNMtGnUxqZ5axi2eju+epefGDnJmXGX/M5UXrPIRMcZY5k6qqo+/7TyUFHzZvo/qCu7ZsyWaTTFvOnvXjYzyKDKVVfLUKMz7L5yPW9eytVVDv+08hFds2bP7wde6fPlIwWvnX3Dpu88mnegxWyl5LmL0LaTPbMUPWwoqqGTUcgy0lkAR5TrHhJl/UV3XNmI1quUe5Fg+ahK5f2sX8hChmcOinU07HXHZ085OknzRJtVvJbcY9WFJtJhj0KthWWvRTicWnY2JVUfEpOmkXmy4zPpcctqc+zSqXYYdyTCipOT1PTTT41Z6OPUKcOi/CrzZcZn0uOW1OfZpVLt47kmFFScnqfLTqOJYN0MJjCsT5K8Ovjq8+q3+44v5LmlYZFxbX8OrSWKSGSoYVRAlJxP8AUTpc/jPnOujkDz0yQxGZ/brkyalswM9qiuhw6tTsZouQFK1mjTecjHLMg2UKSWspaGXtNMvjke1jHJyRcDh1anYzRcgKVrNGm05GOWZBsoUlK08eneOCZfGz5SOL5aFGyQ+l25Xp22/3HF/IS+14KmjYjqng+95GK+frNEMqf8YxfyFtppkslRlMEGUdxksAck007mj/APGMX8lkCnRsTLiOlOZioDTQP0DYIh0IodKn79ILGahBBWconXZFUpBGiIzdjjqA+Iq68+v86EFaizBRcfcmO0xJOXR9rzqKcf2838/P+1UVB/v+L+XY3HEx8rOfInWFVsQTZyO1t+1tw5Gi7NoHY9rb9jcTViTRiGcvrmwBs50b0OvRTXdTdG4MlXnovvrufmbkr2Nz7G49zkk7nsbl2touSv8Av+L+X//EABwRAAMBAAIDAAAAAAAAAAAAAAABERIQYCIxkP/aAAgBAwEBPwH5AVGkVGioppC8jLMsSpGRmWRkfQYQiJxCLisrPRSsr4vQf//EACARAAICAQQDAQAAAAAAAAAAAAABAhIRAxMxUSEiYJD/2gAIAQIBAT8B/IC8S8TciXQppl0biI+6yijHBolNQ5HqRXJuxN2A5xjyLUi3hfA1RVPwViVRgqiqF44MsyxxT5Kx6FCPRSPRhMqvgf/EAEIQAAIBBAECBAIIAwcCBQUBAAECEQADEiExIkETMlFhEHEEICNCgZGh0WKx4TNScIKiwfBy8RQwYJLCJEBDUFOy/9oACAEBAAY/AvHk5ZRrtRCkCBJJozAiZ/CsfGQ9Gc08x0z35oFoPbR4rJMY+dI7EBHMT6VdVCOhsdnmlReSYqBDccH1/wAFTTWQq75arkrlksQfnV1D5rj5GvKs4YE+tMMV6p36UQ0bbKsVAiZ/5+VKrohAIPff60XCIsvnr1q0So6GmRyaZox+zwUDt/gqaRw58RnxxiiqNlrXbcxTXMxAJj3odeeyv5U1wcL7GggMUwDghD1H01NLOSnKCfwo/abOOGuZFW8Msmxk9t04zyhCw1WUtliGP50qHI2zjwfWj58vFw5pVyIyZh+VXW6mZWgGdGlCs0Nay361fEnK3FWFQlDcWSWNfSBczLWxI7VbyeQfMBqNTTpkc9Yrn/SrQa51PEj2NPq5iELeahcnfJX+GriWMhiqnqavEznvEdpivDUsWKZr/wA+VHbkkkL+FWz1AnKRlyRTopmKQZrk3b8Jo2rszj27GKtFn0/oOKxdmIK5Bh2HvQ6+s469Jr+15xxMepig3LZ4tTKpKW1UElj60cgwui5hzqlVj4ikkSOmIotbbo6iJ9qUXG0fTtxTxlmhXv6irYDbOn9jzRDtwfX2mlMsD05fiJr6RH/43gUnm8QgN7UDZJAwyht+v7V4hYneMD1/7U9rJsgmQ991dIfyvgARzSAl7hJIhfWrrK5bGdzxSB+sMYGOp96dgXK5lUr6PhkuYJYk8f8AIq+HyOK5IVarOR6LkfymitpoEAid8+9Mzh8lYTDc1cTLG2j4/rS6fI3cJy/pVoXS2Lz96O9PckjE4Y/xU6sSISR86vtLfZGPn6UviNKshcQY1VzbYoTP5SKGVzXeBxo/tQBYmWiR6RNWZzV3/i7UuZbqxGvUz+1Wd+a5i1XTdyxQxqrrMHlIPPIq4iNiiiZambKSA3B9DFWLb5AOO/rRYls4Yj8Kt7JUqxP3eKu+YY98pAobfXm3z0zTMhIUQd9hE1ZL3DDnYisRd1hkWiRSlbn2jBdfOiL9yOIioh8vFwnKpVvXn/qimLXDmobXyNKLRyJtlh2kzVyGyurOpjiplym+/oK5aJP/APmasYsVLti5JmKIDMRngsH+lLbXRY0VQh9TzSEP1O+ABFRkzTbLg8cTQYEbWf8AVFW1dyyvI6fWaNz8vlSJZYlXkK2U7/Krl0FoUkR37VYW2SmaZEsafLNmBIEa7UsMRnwT6RJr+06jGOuZE1YLGEuxTKjRCgx5qsbaWu4NSpZuTKZTSkFi079t00M0YswprxJ6TiatL4kK5OyZn8quOpOsser0q0OsFlLEZimKNjshR5p160pybrMD8eKdbgcstsNpo3S9YyMajiaU3SerGMfef2peoZk7HoOKb7YYLyY//QGsAemZ4qS3aOKKltEydV1mdz8MkO6vDvd0aXq441UK3txSrlpeKLSskR5BQWen0gVlkJiPIK8ORjM+WssgTEeUUydOLGT0ChsCBAhAKuSQfE80oN0m16BC9Ap9g56boFeb/nFabtHApRl5eKLSJIx8g4oJl0j2otlsxwsUqCB6653NK+fUpJBooG6TSszSymRqmE+bmrbP1YGfSn6vOZNKA0Y8aptg5cygpNyqkGKJDf6RXh9OMz5BReRkRHkFFZEE5eUc1OQ78qDzTLMKfavP69vWnJaS/mkUvVx7VOW/l+FKhjpMgxTNKy3PQKUBvLxqsg+9dhQ3w2X40Dnx/wB6xYgiZ8ooNkJgjyDvTDs2zApGTWCYCd0wBADc9NJsdGl6RT7BzEHpFCG4iNfhUhv9IoIzdIrLIZf9Irn72X41llvjyiiCZBbI19kq2vXGjk0zM69anL8xVzq/tPN715/+f8NGG51xSbHR5TiKzPV6ilQEQpkdAotKgn+AVgW6anITEeUV5qDZdQMiVmmWQFbmFpPAGAUEdXVM0y9MMZIwFL1eXjVTl39PwpRI6BA6RUAiIjag1IaOP0rqatn72X41lluI8tbaeRQFoFFC48zTjLz86rz9ydj1purzc6pZbymRqm7huRSQfIZWsn5+VIsjo8vSNUHkZAR5RWGUL8qRtZrO8RTLmcW5XtW27RxRluZn8aTa9AgdApurzc6q1Lat8CibfQpA1+lCG4j9KBDbAjilUEAKch0Dmhi0R/3rHKB8qHVMAja0ROj2iladqIHtRtqek+1BpXICPIKKiASZJAoAv5SCPwp2Lbfze9Ki+ZSDl8vwrM9XqIoLloHVFkOzzqpP/wB+f8ID/wCZMa/wUNWotqUPnbvOVHpwUBid+jCrhRCQGbqy8tQ021ht8/jTqBABqLcscjqfbirv2TMJge3TP86sabcFj2IjdMxU+VTA7apf73SaYYeHvy+lWR2zb/amuXVRLYEQePSkW4CHJIynjdYqrQFJI9a+khLUqlzT40RdEiKutDT2j7uhVslTwZ3z0zRFsdMA/pVoYGG+9lzr96JuoSRiCJ4mrLMYF0heePWoFtjGPQe1FMRpyZqGEGhbCjItzWQCsi2z5dbFPdUN3j+Gvo/h28yWggifxpgVIg8Uogjfrzz+1XtNA49tUCghhjO+ZE04dST29q+i/Y6LYu4o9BCiARPFL0EJ40F/ajnZiV8pP8UU4S1JS6QXpQibiIHf4IXVQttZM8H51cLLlLkKQe0aqyFDb/1amvpSWrWQCAzjxxSK46Sd0TgRsCMuKW4qme5PenlDcIiFmKV40YEz3y/amtIChHv7/tRuANs8+m6skWQIZtHvRaOkcmlJGUGY9avFscm8n4b1SWsSO/PPTV3TQND+HVWH8LDZE488U7X1LQQOaU4memd/L96ARYBExQu4bB2T3q6xsYoEDKAeeKe4Ae5U/jxS52W/sZCepp0w2C8GfSrDrYASAfZqZgNDn2oGJg8VfLBQX6UB9edfpVm2QQWxJM8064sB069JpWa0BJ6WC/705urMcb+ddM5F4y7eapKHy+U6+9FOo8oaJpkW2QcThvzU3ST1MoM8VbGzmC4Ht6VdK2y0Fh1fd6aRVXY186IOiKs2yAN9Rq7dZQyHEjDXPNWSJycjq7UBatZLhk4ZZjdKrKQpeIodJ8s4jc8fvVxt6JxP40PCWOpl59KuPicl71aPg4p4WWu5irrhSF7fw6r6LnaZVIP41g1uMivfy9NWGSyBrb07IkDmB2+DvdVESIg8bq2twEO3LTx1ViFaAskfjV/7LK2rFVbHf503irICExTOFI80b4q01tSJ9e9M2Bdp3vy0hYHFiI3z0/vTsAVCDIie3/evo/m64k+tKPCCza8voaDR0zE1JUNo0s45k5e8TFOgRhhOuZ3V5gDqcTVsPa8N++KxWVxSWYkTPFKFRvNEA88/tTqBoV9Gfw9FgDl3q6btkrDhcQeOatuELPK/5pq6LlpjtYHGj3oHDaqD890xFgKm4Hr71lHTxNAlQ3sakjrwftRF0SI/3q60NI4/h0KQlT3nfPTNEIOnR/SrQwIDfey82v3om6hJGIIniRVlmMC6QvP51AtsYx6D2opiNMTNQwg0qYjzgzS+CPvNOvesmHXiTM/P9qVUViIP+arggky8GeIE0quCQewr6Ugsh2WCOdVatBTkYJM86q8tq0x+yn5VaZrc7TqPeeaONnPOzkFnvWOO8pmoYQaVMR5wZpfBH3nnXvSF1OTkiZ4pQqNywiZp1A0DR+uIJEcfVxyOPMfVHiOzx6n4kI7KD6H6xZzLHn6pVXYKe0/GUJB9RUuxY+p+oM+3ECPhKmDH1grOxUdp+AKmCKm4xY+/1cJ6ZmPqypg+tS7Fj7/D7N2T5H6mSxPuJos5ljz8CoPSTJ+qCpgipdmc+/xwzbD0n6oZdMDI+thm2H92fjNtip9qJYyfX4gjtWTmT8GCmMhB+sPEdnj1PwDISp9RWTksfU/VVSdLx9WUYqfapYyfX4FUdlB7A/UySJ+XxCz0jcfEeI7PHqfiQjsoPYH4z8SzGWPPwm2xU+1EsZJ+IDuzAep+p4f3fl8SzmWPPwm2xU+1EsZJ+BVXYKe00aQ/Z/xT5uf2pv7JjixHfvqnuYqrgkBPn/w0PCFvytjLaPpNXwhBViOKXL7wkU6j72jQSyJuSnBmemn8a2C+Q6W9KTptz0zv5V/9OuYjeA4/KlMILin5k7q/cIstoFPzpj0ZnY3sb4/KgW8Fj4QgZiMqe1CaLx7b1Vm6nh6URj/vTP2B3SsOQZqHxlnJ+WqtB2U7XIT7T/Onz8MLoRkP+flVpbSplAOXoac2x4vBJTqpRcCA6n15H9a4tgBeMhvf5UyIEmDB7+b9qPjoFbHo8TQmmP2cjIQD+VeHjbRNgPV+FWZIG+3ak8Lw9OGWPl3q4/ps1NM13GXug/LndWw7L93IT+f8qOQthYEjIUiW1QmPN6GalPtTgs4HLtQW4EDxv15oYi3iFP3huriph9+D/Kl/8RbhTPn1X0m3b8I9QI4/SlTG2FG8vXp/evpItG0EKCOsc6q1ci3AI3/lMz+NXBbFkF7Q5iJpU7A6oo/mGjVlWgILgagWKpriff8ArVw9JYudz7/tUoLRIRv6VfxwRSQQmQon6RbgYNjmOTTF1tqxn8KsiwFz/urs04uBBcnYuentVonAzj39t/rTG6qJjDf9UVYkLyMjl+dW8MJ8LE48d6D/AHSYrJeaROnLA7/zcUoyR4DRv5Cr/k+9j1celILAtpi3nmNVdZFzUE7XYoKUt4hZn/L+9XY8ICOfSrb3bf2ZP3tA1fW34JytiJiJ/lVi2QmwMm9N19kbQBtHLrHO6DRb6YkzsHP9qDL4QLK4Pp3imTUFp1QD8xNMnZiJo7UAMx55/wCRV7yuRodX8P71Z/szHO+en96uspS2I2mQGRpXvJFv1bimONs64yjuf6Vay8MnJZ377pD9HSTj1BPnVvIW+eufNz+1N/ZOwUn1+9+1M8KrTiE/5+NfZC15TjLaPpV9UIKM06pcvvCRTqOG5oKSo2JM89Bq4Tg+h978asZeGTks7/OmZcLUDqWQudW3up9llsnipi35eJgc1vCZnnfm/al/8OgLbkJ86cOEW4p780HYWSPB6eOYFXmYIrGYE8VYLGyfsyIzHm3TWmFsAn8uj96+jFfD6R25mTVx/Tqb4XHu4y9xT8ud0od13jkJ9x+1cWwI4yG9/lSrbVCTPV6dVKq/bsq7ZTlNIjouZJDTyKTAWuW71ca0uVsHzKNUB9iEIOO/bvTYqj7A/wBP71YJx69sP7uv3pivhLBHLfypU/u8UyNyDBqwrEBFu5TQyK2+mIn3I/3pj05M53PHV+1ZILZOB1zuaulSoVuLWQ1RP0i3HQccxyaYsttWOX4aq0Po4XP+6mzV5b6qj/x19Ez8LACG496Zrq204BHH419F8U28Q5yGQ41QW4toZ4ZDt3pVXw+lz8+1E/eify+Fx3Yr9liMTHpWXhrk5afUelJ4apjv74/D/hr6QJtcmGoH7MySR/7f3q6zogb0mO3b8a+jiVdhIxUiaK/SlUNkPP6VZHQNiWn864tGcJ3xzNBnQ+BltvamVvAB1EHXP7UMERpJ/DdQMGXAsN9z2/Kr3h+GJD99+1Io83lHwNTB5iouoyH3H1NmaLBSQOT6fWhhB+AIJQ8gismnff1oLiZPArGdelQOaYrbYheTHH1odSreh+vismewoGNHj4LCk5aHvWNxSp9CPqlgDiO/1VDlsPug/AN2nRots+pqY1UMI+GKIxaJgCoIg/VDMpCngxz9QCdD6mhNCRE/ABVYluIHNQ4Kn0P1fv8Agz/l+MkyfhCiT8SDyKAINEYmRz7fDpE1ng2H96NfVAEue1EMIP1zA45rYj4QiMWiYAqGEGgVJBHcUSxknufgROjQYqQp4MfVgiD8BI5E1PagIMnj3+LQjHHnXFBlU86NFsSe8/8AknR1z8DA45oPiwHZqm6HZtc0CykA1o/UhRJ+ECiDyKiDNHR1z7fDQms8Ww9Y1W1NSykCY+Mgx8DSgnoDZVcwAQQ2HzJpxCh2JkRVpg66BnRgVc6p88dPMilyg2x5THGq+k/aqgcaEHfFC47LEHgz2q4emSO6881ZBIJUqeOPWlZSuQTqk47pVy+0U6A+dXri3cmYDDXG6ZSQHO4jgz+1Dw7ouObUSEOjV23OpfUd51Vq4t3IgDX9001yeDHzoEaIrjK5nPyq0Gg2ljtwYq7kygEDYB3VgO3lYaAo+EwLBVAOPO6RExV/kdGeam1dR+kSSY7e9WreoB69e9Ichqd4/L+tXLiMpSTEsAfyo/aDBlIHR5acWoMsfu9oqy2t7ua4aI/rVw5Kknsvm1SW57wtMszBias5noRppsQFIACDnvSKAoadiPessxtYJg6+VHe4Kxj/ABTNOz449XhtHG6+kfaquTSqQaLOy+QxBy3TC7AZpnp9qtKjLmO3AH51dS6yifTdfRc7ureipHzot9JInQOuRX0bO4GKPJWDxqlDt1EJl0+5rwxcgK56PUUcm+7JJ9vg5u9X2eIFdpYtmI+VWymAUT2Oq+kDPTca2aVgeTPl46Y/nV03cfEPtzqrdtLwdjBbLt/tTLdZdsDrqqyugAROtiskYTC5GPcz+leL0m1lMZbj5U2d0NI82HG6i1EFmJEe+qBWIxJkjhjV2GCZZ9IXmeKRJ/hHt8EN3aKrAfrTQAGkDGPuxX0cLh04zKnVXD4nSwG4/l/WrZJ30AjHiKc3ccogEiiFujNz5DOhP5U/isvUNR1VcVMdue3vU2mGQRgDHyirly0Uwn1j9K+jOrxierEcCmGYuMX2Y5EVZFu4FZW80HQir/hMCM8ycPu7pMW6kwjXGt1cZLmYbv7Urz5p1Uqe0VaQAcQ5/wA005uY98Gj3q6shZYkAD3rzjaETGhTC1EMzSI7VbAcW07kA6HpTuGQj/qj+dDjw1XXTwcaudQAYf3d1buXSpSfWf0o+LcDbVssOYq0EgqACRHeabCMQsKSPxplDAEjyY98p/lW24Xk+g+DG71fZ4gUeMmJyEdqtFMAo9jrVfSBn0twY2dUjSOQT08dMVcN3HM+o5pES8GZoyBnX+1XBK5mI+9QXUgDWPy/rU2nU63Jj+dYZAXAdAfOnueLkTahdcHVXA8ZvJiO9W8LouXPCxkKdNV61I5fUe2qsMLssoGvQ1cuT5f1qaObdeef/VzX0Z1P9mdj8aZkb7FExHvqrd1yuAYE9X+1TK5YxJWsSRMzEcdX7UuBXIZc9Op1Rt5gMJyWJyotbOzmR08TxV03ABd+7r1q3iVAAMHHy6pzbaVYAH3pCT5hNHE8iDWYOX9mpX0ir7O0q3Wp9TyKxyGTvPPFP4jLJGo6qZVx25+7/F+1ZW2GWBEx7irly2Uwkx1f7VYdLkR5oHFFQwuMzHIxyIqx4dwKVbzQdCr/AIbArkWJw5EGrZDbRkjXturjLczy7+1I0+adUcTEiKJDTCqhX03NXGuNNq4J/wB6uZMMrjggU5Zlkp0wct0VeAWBkY/P+lWxbdco390D86e2XUPJnWWVGuDXUpH4UTiYHNJ0nrML7/ABdkmBTFV8vO6UgeaYFEx93KPaoFRg0/KssTj61CAsfavEwbDiajBsvSKLxCgxWkPE0zhGxXRPpSkjzCR8EgDr8smipEleY3FBUUljxQBQ7GX4VoGilwQ1ZYnH1oDFpPaKyxOPrUKJNeU1tSPwo9J1zQfE4kxNFW5Gj8GQAZLzLgVOJiYmjgpMUZU6MH51iimfgBg0n2o9J1z7UMgRNEqpMc0pa20P5dc0RiZHOqViNNxTdDa5oXSh8M/eqHG/gEUDIiRLAU2pA5I3RCqdAmmDqenn2oKqmTRVtMDBodLb41zRGDSPb4QVM/KpxMfKulSaZgpxXk0MhEifgqgCX2stE0wiceY3WKKS1EMh0JNABTuijjqHNA4mDxqowafSPhittiYmIonEwPalTEgmiQDA70LfhnM8CmlYx83t8GKicRJpXMQ3EMKjEz8qzKdMAzUFTPyrxMemulSflROJgaNAYNPy+A6TvdE4nXOq8prFUJNKxGm4+APZjAM1gVlomFOX8qAUc0AyGTMVwaHiCJ96yCnH1odJ3xrmj0nXOuKgbpsbbdHm1xQOJg8UwxIxEme1LipMmBTKttiw2RFZEamPgWjpmKUECW4xYN/KuDXWh5ivKaDOIU0cQTFTifyqHBB96BxMHVdKk/hXBrHBsvSKbIeU4n4MwHSOaWQDl5YYGa4NZMmtfrUYmeOKDlek10KT8qnEx6xUOpU+9SFJHE1i9tg0TEUTiYHNKpU5ETFZYHHikDIRn5Z70Qe1QKIx2Gx/GlI+8YX3pseVExUCowafSKyxMetdYI+dEwcR3qMTPyrg0aCw2YGP+qaZruTWiTqmUzmSe3M0vhlwQxbfaaZi3VMAV6VFwwylmX31X0d+9vRWrtwSFxxRf0q3d8QNBBxHNHxCx9P1/evDMgzr23Rm5mpG8RWPWIuZAU73MsTOPtJr6Rtwbj5AY1KsSXD6nyzFXh1jMhhSK7YiYk9q1SzwKuuwbqfKk02XTP4Ur3ci4Akx7mhZ6vNlNSlzAYgda/tQtbaBHsd1kcogx08U4AYK2evnU+JmGUr0dqcdZMtjPeRG6Db8LUr+EVd0RJ6de0UEXPKV+QgRVxnaCBPzPwcvJlCKVMTkI/nNfYZDUAn51dWGBee3vNWbrZgJ7c0WF0a4BG6mG+9+E1eyDEvPb2rEtj1TLdtVcRmLqeMRX0diXm1qPzqb+THUd9VYEuXR8ojVKFcvAWSD6EmsJaQ5I9N0fEeNTPwR3k401sg5EEUWtZBjLfImKuSGyYf/ABirCnMC339auut3EEyA4pdtgEiPeIols8SOPXZq3dzDQQcaMm6y6MnnRpQhKxz+c0SqlUxgamNzTg55EMI7bM0BcfFfX4W2aSFINXAQ0tl/KgyBsuT7HGKLOGyIE651Vq0cxh39ad1u4A/31/arO2wQAEUGbOMYPvua8QXBMzj3oMM4xZWPzpUQtAmferDdYFtifLV0ByIDRMCZpH6um7l+GqbBmKn170kNJIk+3wsZA/Zkk1MNrE8ckUquGKDHX40HhjCYcR3oorOHY9RK00P4mQ+7TgA9THtzJr7PIdLD84q5d8QLJnE81P2kNMj+7I7U3hZL1fpEVZOJlfP76iiWz5BEAb1SiaYIclB0fWo7U9whtxFDpaZ/TKaBu5Eid/lV5AGHiOX+XtSLacoij76/tRtSW52OKQkNAnWPGqJAYAkn/TFJcF0HfAHFXvOqOgFWpy8NQsj5UWYuB4WGk5pGyPSVGPyM0uRfyFSfzqJMTWKNkPWo7UrMDq3jVww0ktj+IqbmUBiV9qv6b7WB8tVbt22Kd2yXvTLaeTkGyFIOoY4/pFZB/DAH3u9WozlI190wZpls5jpgH/NNQwm5lz7c/wA6J6wpUjQ2NzVxlnFmmKAVstCairJYHoTH+dM0NzK/+2KUPlipEe2qcw3UgT5e9JbRmViZeV1TrbuZMYIZaCdUwP8Ab9qBD+HA2WHNG1JJ+7TMpfJrWPyOquK+RuODNWwjP/ZlCWgR+tXFBLCW36ysVagtmoinZm2OB6/C7s9axX0djzabY9d0XRmIgxK8mrd03AcSDj3reXliYmipDZH2/imhk+EFjLe9eHk0iYx4aiUDCcz+Jq4LktcPlP6GjWYU40ivCl5+CqO+t0XBECZ9qQSMmGUe1OwO1ExWKCTRHhmRSkIerQqHEGg2PSeKa3AYj0NFsekGKwUZNjlWZXQJB9qRHxBeI6vgFHcxRgjRg+1WhIyucCmg7AmPWgqiSeKI8M1mVhai2s15T611oRqaZihheat5wuZgT8AvrqjBHSYPtVoSMrvApoPUBMetBVEk8VHhmsyvTUWxNeLqJjndBSkGndtYmIqMY1O6uPAGBggmrZc9Lb1TpM4tH/rI0tqD0+/vNLimEEnmeaP/APTL9Phct9nirT4klVxI9au4KwyGIBMxQZCzNBBBEU3SRPo3/PWkUW/KQefSl8XJcVxECZrwsZ9GJ4q6VSDcG90bRXkbOXO5oSpRMMDL/wBKfFdHOPxpTjDAQd800+eRHwuqPviKsPBLWtR6inZFYdMAEzSXFLM6mYiiMcpPrxz+9eGynZmZmPlTABriMNz01jhviZ7TNNdK5KSThPrTWzMkneXrQhMeosd+tNPnkR8Lqj74irD4nK129RNMyKw6YAJmkuKWLqZiKYRlPvxz+9FGU7aZmY+VZW83Ebnporh9/NYPFPcKzlOp4q/lbOV1p8/FdG2fLL2mrodPPHfiBQy0KuOOGaf/AFkaDTtmxUVgMTzMHimZ4XE41h4oboz6BPamZTpSfNo6oeNpcsZFMh5Ux/gyaCRMNkp9Kd4Bz5FOoVevk0CUQ9GB9xUKqherXzq0LolbYgD1pmbkmf8ABk1kWjU11GKMtBk1AYnQNHZPMUF/+VMdiO1J5t87qdxrvxS56UmoHsee1Zb9aKrIiOaB3v8AioYeX51mW6oOqUDISk803m1Q2eafv/d9+/wiYUEL8zSzyzQKgncTFZT7xWLEiEk1nkPagrsYgmQKJHArEOD60/VOPpSYkmRP+ABrGdU3/hh4jKN7FG19IEOp2KE71FETzQOp+VTNCDxxWzUiiZ7RUTqpmo1+VdVRPaK57RxTdXm5odXFE5HfNBuYo4mKX+Gi09RpV7Dn3ov3rGdUDPHtU1lPVR3zzQB4HH+ABr//xAArEAACAgIBAwQCAgMBAQEAAAABEQAhMUFRYXGBEJGhsSDB0fBw4fFAYDD/2gAIAQEAAT8h2noGOgwHicKCa/cahBeeGR/UcDpR1QN+8JCSdOAMqERETtNlGOkDEWhr/ohF1Cz5SsCXCJXXxNFOMzktU5MAYDAb7f4U+DBFT0CyMqPwqsFNDeOJfSGgV/cTQJoAWGP1CSKdC2CKgoBGANpQRKgVhyv4TtaDAEH/AMQkmAEAK9x6xK84D3IgWwDXu8/4V+DG6eZXW/MM2bvwiQL7x1awGkBUwAA5SvKGuTnf8gL6gkjAlngBw4swNKj9wkWp6szhdIDM5mDBviIuyJGJ4z9wKFpqWA7gYqOGkUxAFcCjQcuaJN6pdlHh3iIeS6eYoJHHQBdpdICdOAo7Ee0AolEHqv5hIVAJI2KocQLEBQdyBYIPMxR/IsqzMnBuBkhps9cRMTBbHUgsCSBAWA8q/iESLYQ2GQOJhsQg5T0OZgMRxiQlmyud6HycKQItBCsr7woagQRUoEis9YkoNWfjxD4ME+WCCsLCzWTbBlhOc8R5jsaAFBDbRoqfFQc4HLp1oyw8RgSCpXtGQoB2FYHWdO1/4KONLRbCvINCWhoV2uUE9r0RQtnoZgPEsFkwoTIEcBdVF2gM9XgGKl1io4XGxxh0mRAi7RcEwcssUOokeQERn2qERYeS1N+P2mVIxMAjQe3zDAQT5AazETVaqkDfmcKZxSYY25mImEquog1cJmiQjQbPd9JQNDbIAEtIdUGATEUQUmx16S74DgQ916nIRwr0RCEigqAAF9IfRgWIZLQQAJxau6hUBElESDRhkFHIiHavCftCwAifEQdU0+r/AKcBPGRIUWcbiaNlAxILn37gygsEFFpBwDJyBBAZxV94G1OYV9KCCCJN0MTK0ZDDsrcLgKEIYVwYFLG4yiu3MYo4M2cLpEIWa9hHaMTCA1V33hC/UeWltRENUkAFCmVbPaBGSDjdjVfMbvFfL7xiQJQolAWRBFXzgA+IQ9khwS+rCmwylSievYqexPVnKUtcFbshh2IHJS+1GGDxIdBtwZJtWLZLvxGAiOgBy8cuAoHEs6rhBqQN4AZPmEvACMRTZYfqEECBmDCwFwAqJXgbL36SnFhko+BdJhkqCIlC6AgqJuFKN5Q6UT9TgGDC5pDlE0IZIK83CAJQTzQocTBIIUTMgwisED3meIQgOTjQiivkbsM9lGBR12Z4SepRSFhx0j98xFijaXAlUdUIpTGfPiFGmQ6BC+4BBKQcnB7ZcWeESgbCbuE7ydA6A4IBPxCVB7WABi1T8yjE4mwNhLpIHEZAn9IQRJRoYweYUkCt9wEJDhTEnC3xDJKLDlKH3nHJl0WkoDBn/wB/wYc2GQKPQ6mSHQA29dYKUSqO89p1jcdnMZ1BpAejgJFgBMUC8CWTxnCvmpQDQsGghAMlKCgDrF9IHOyyhcAKoSkiQL7p+3SadVQOMa1MF0Gb5eZm2O5wjmluUtFjb7SyPeK+KENo2Qk/CWXRGH2ubqUMLXtUAMcdDQT4l0kr0AoQADUGCgDrFwFT54o6EqjzW1J3XbpCVACAkWNjEQUB0D+jiAgTgAbzFhOgH7wbTBDPM2IOPMc1BgECK6iaCglAycriBlNdPCvncAccIAEhDFEVDwnDgA1i4BigkAdjCqbAtxr7pxiuASSQMUpaTOmzqeYWAQn5AyJWRJLAEZ44hFnQKEYI+8IXtEly4i+teFfNcuM/M8OP0lhhGQBoBIhXCUipus+FEVQYKBqF6x6IqxUBAKZAggA3srz+0IzYd3M2S05eDhY7rW4StAFAQBrtMlFIFd55gwmiADpXHiKqNSgVHxcuc65NXGKntVg4CQ0HBK4AsIKo0ojQ1i4QCAgGc22az1lCx4PdNHpwMvCUNQRB2YUmUSsveyYaNrUXtKhCSHhIsIhHUTDqwGGISZ+A6j9oCBKDBoKvEJMcqgRC6qOyAKoAFYVUoBgdyXy04BigVoI5wsy6bsD5zAIR5XcOtXADFERgbLMDUCWYCE5NysOCAGcriE+VIDkNiICXnDxVVAAmHPF4V81zC1lLYcfpCRJsbgMZUMDZitaL2OsFGwAYGzE2DjQ1Y+zGjez7pkR6Qk3jEORUwaJZhC6VZibyhCAYNi3n3grbKgkaHM/fwcKuPiZiqoZHPMJW8zlJjgzENlAqV4PQAHsJhyFYMs8pwtzFDgR0kuZhLDQAbcKCXeuS8KVIGErJ41O4KgDOcczIHgC8DCZHwC+1z+DnCriuFHYHHLByMfzKXIUBwOj6UwJFFDRCABIASJoYzNxaI9TTmgYhXX9oECy6Hl+z1AIkRQEEIlnIiAQIggIF2aHiJpcJwgAIdq7o3mE75E0pXVwNPsBGQkAqjJQoAoghHXHsti4oxDAI7Pl1jNgKpAIYVVEBKMaB0WLitO0Be8GEJYTz/wC/4P8AiD4P/wCjfIL/AAp8GclpRSjPZVNMLBnA30cBrg6EoCdaGFgEvO4CpLAbqBhQg8wr5ERCYwE3YscIIQVNcKsLdICARc3ZiYuS0GKoEH9uWWTIXCAJ1XCaAo5HoHcwpUxsBcRa7gPZAjn4huXCBTO4WGHktgQFShseUH5JhazCZKggw1AIg2mBmNAwjyl1GAFFSQEnzDTOqwP+fecy3psbPbHvFAA0G1xGXA0RGIAlvwoKY7yIsdX1ScsKtnggZYzx4JAXlCTkuCUBIZwU2FfjEYKrkd788w5exWyUSSQMiB3LEpwGwPO4vLQAsTkdIV3HBnBy4KG0Nz7QUh9hYGnGSSUdBn0KhHVg/aoYxRqVhLzGXLkk4DV/qUr6WE7LpuEVHaKNwb7wUBbOAQeWNGAMcxgJs+IShK8BEQ2G2XFf7IiSSoMYwD4gEBZWuiYAgRKAjmCAoCIsdEWDfYXT+CEmUgRtuXvASrMZK9/7j2VQoiQk+8wTZkotwrTbJcu8HaCcj8vEAnBuEgWSH9BjARAAXBzmnQ1QF1h00MEQjUFpCuUKIHma7tn1BcU7DKaANUB6oyNoTH9DWYPf3IgsfUNAKjNnsuO8FjBcXsnq4hFRENGi/UzdQNTBE9o3GLsNoAam2cNTqF5amiPDi8JIlqAUcCBkXjXucCEG4dYMd3EmgWAsyYQQYRgKqO9Gb7RJE6agNTyDBWy9lYohwBURYYUQB2YMEKLgHE1aTFn/AEgZg8l0ER04yGBwW0v5hJGcWJAC7b7wmBZYyhOpZQmbYPfmExwVENkX1m9+dYi33M4CAics0Y+cJWg9KTCQoaa8w+UzyATHaZW4S7wBH9EImAGHcHJ0AhFJZJMiFlSJ9QYgwKOxdBf+xCzEEMCJuEkOiCxhFYiuCwPZ7wtgYrqDCw4LBVktm+8SQQJCbgcARHqE/Exc3H/WRLi1nCg+HLaSZkPBSPWCBKCaPoOqgUHXDQAqhCAOTEFGxNEnXWPFnrIt+v8AkAOQhAQiwfiE7OgErg/5PBFSyeEBYXsvcwjHAQcIDQBzarYNwIZELznhTkbhJYQ2tB+4GpNAvKD8kw35SmSoIMNaCAtpgZhEwjyF4USilJEJ8w0ylsF/z7xi23psbPbHvABAFJFriEpwdEQ1xmwGuJrJwnwjgfajhDzgS9Bgjn4ijAMsAQjDdUWahWWFCRDftABEDURcjvxKjeoFmQ1ACwMxVyLpKDkxEUyqAxwBcnaMuBoiEAhnQ2uJ8YI+GodnUmhKoRWBUEyFSozSLnwfzyFLQ4P49TOSn6ksgnyPTpjF3rnakEP8mVCy/HIHQEB9Q0V4IjOrdx/gaYCqAADwPTJcBjmvxBFoMDgTAXQmA9DlMIgzRjmb/HCfYPxBTh4Aozq3cn6O7jNUJJM2evqBUHAHsY/QWR9AkwIHb8ThMAgxXTGzr1CiLwvxP7ZC3CSTNk/j/Bw9vXqQY1CNj5I+p0hlsP7nsAK+vRGBgMjP49qM6chd6IwaiKFpJyRn8WZHJ3/HqzY1Cc4+SL9M7EkAfwdEOZE+zmc36Eo2CHUfTtOnMXeudqSAPqyYV29O0ZeLL06iONQ4TIJPrhBgGL8N+A7QAPud+rKhZenUxxqHKZRJ9MgdAQGfBiSgd5suPSBUJ2CY+5OC0iA5UfH6QEB0wA/0DmbyXWFcQGQLbaiEEIYOrmtJWA1HScY4qNC18TClDiE7M+8IVK5QL3CUEIUUR8h8iYF2AAQa6G04EasCRZ1rghBN04ng94TQR1osAmxGoGQA0EADFYE9mESUgc3weJXW+4CDHzDb2RUrV0VkHEbbvg6jctCQQDTpATlDwesgEvtRj/Q7xnCjHOohiiOlrDnzCzkA8w4PIhCJBIaDFE9jGRicNg0sPLxGHpg2V/JEQit3kxAGRHOL8V/oRnZ8wiolBESLzZBxxiEF1rWznxKWHYFYCDiAIHz2/wBQxBSMgvXQFPMABGDkXSqZRAEwtdahltUAwi7cdJT4xZXAYJtwgO4gfMAgIG96EA3B6HJDF43DlEooOZToWg7jJEYT4iQN+4V/cwAMyxY1QyoWVAGCCQRgPMVyXSj1o2Z0CkBFQlHau6DHzCUZ8OLNfuAH+xRr8pQONx0Z+IPDQRgbAO9TkXWHnIZUsA2MsGeMJRCJC9iUsoRjkKGEgEY2MvdUJcC4FMIbrmNMFJKEaacxABiQAHkfMIB9xVkTC7zUnQ8wgMBREaaB/UILVv5KAgiVDMBT8pSGCeVk/EPOHgQKqPtDKITNY1HtAglnwFtjw6jLVn1YpagoEQZaNwSE4pxLF2bFEHyggcznggKRL3YhJC4tFLWIIHRvTLeukZPQaL1Us1BgBWZ2osljoawHc4gQMFh/ExAAsz6eIxwAK1eEAhubFolg+AntBqGOMnrPnMeFSa2OJRqTdqIISLDguDSYB0QfihGPtFBRBJdWdQJ3QCwRkMwhmIeSOL1zDVwYIYvmZBlcPIz0lthwqmC5+E0pidChhnBMw5qlkfMxtiAYRWB1iwJNIEwKTu4VFChOhgHtGhhJD4CxHAJlAADIMqFJjLyH/fo0Nmy/0IZAFBZER+JISQosjjkfR3hQ+ZLLB+IQ/EFk6YA1AVH1NYX7jClZEAGAjdcxwroALIMxfj03zGa+KdZEQNhgrGiI94FEVtVBXwysTJMEcOZXjnG4cACZ4/iV5sjBkfcwRc4W+xlRUC5wClY6OGJjZHNG0bPSIWaVSKjZOkTeheYYTIaMWa/cFWu0Yrgo+0CBM8CAt57WITlFgNLB/qYMIDmowD3hYgNwbORB7EtCuB5hQADaVBB/r0dUgbLRGobAUv4MIGWt8gWWnFKYLIcUAH9OGiQSbrAGD1TxoN2+kAYoASAUqHmA8HgEYU1jYX3DMsBUgIEWDDxADKKKvzMIXR+/hwEBh/XT8TfYAADKImqgiIgX4w6QJYFAmvT4MCQYZAN8TpQBX3+CVxAKzqYDVwru/Dt6FBAMgj0RC7BFHtA3Ae0cEaiy8TYAztuEEBlgKYilRkd34dp2uGYk0I+nf8bHywUJgIZCz6WyipGXSdmjo+nb1BDWZERQM7/gUW8iCvHprUsjYidZLP3FAZAsFR4BcEemwnBJXMIigZBE7/hmEyU7PwJiCOAE4/Bq5A6GpahDFZHphVpZ4QtFOQIx/h2vct9erQuQn0CCCYAHoAyFwZaIjCwASkFO0hL5ehtEJOhFCYz2P5fiCDFABmHKByCF+YQiEaBiEkYuoXoEm5BJK5hQQDIImDsxERCds4jJ9AICGQPMyJ5KH8WBdQemIVTtECQIOmqnEJRfCEEFGu8AZQsyydrP3Qkm4AG+kaASchrn8u/qQ2GgLDA9LUFGgwI2yZwIeDGABG5N4EaABEiNWBhFHX4BBBNAehAWEwlQIjEhCNIK40qY8Xy9GrkDoaiAITL+ZADHoHGjiW5BYb49WhFyD6fBiBAJCMoBgEsAu+0dpUM5JohVUIdAfC6VMfMoLHbaoNa8QqrfUq66xshUDSW2OhmsrkmySoQKjhZkGleJdVGG8uC+4NdwDHs5XSLkQEjvY0vIgd4kLSVY7xki7O3S1CULCZSmcd5VPVQMwB4FgAG4Q8AA7bGHLYYgCUbFvROoook7xFPzCCD+tqaYPyoCgS5q22x9RExaBYTmEAeDyWEndAcIAcZYOZu5twptIASIKuI/aXBGYAi2GxQvgH+mJrHgckh/cyAM7gX9czYGLaVrz2jYmwO5iABpG54FV7xhRvMLnMSEgkPN3xiYdfVA2T++IvJUFYvsMSpwQh5UxfMEB0JOdUhMmkK+CsOGsKUOaTwrQi7EfeFHgdc1ohiBCdcw7Q8cRHUvmbG8cQgV2TF8MLmAAZ60i5gjhRI2EEDaku1xJAILgA9OUXFbCFQlXjwNPa4WbtLkUP8AjmB3klxOyXtzEhmz7NCUinJ1prftCYJAIhgEAzgJZkwQF4cYO7+g2eICMQQHa3B0QAC1CGTygZHVsG1Y4hGeQYt4RiNwb2rrECHZBxYQk70Q4CHNWIMgRA9RSupjMJM4CEFco4JkwYC336QpMjcT1wgPgsQ2GTKp0Fthu1CVagQBnAD5S7jlR9HFIHU7LcEaxALRwPOwd4AYaQFKC0cKwqeR8XEGVncduCDy2MhofUMgXkwVKWK1xPk45Fi8bQgOWrhi4XTatxsQJLwNQh8bl0MEpHoCH166ONg4x9v2L2gKCMn2vojT55l5zY3AAfuA192VGX9MfNnxaCGCPKlugfcvI9sFocV2yoBOQwBOHs+EhbmPriIsZBrMwBEuL+WxcKLlhO4OKzBhOgHpQacz4FQqA8XAASyyc16I/wCnzAz+lEpJ8rmAkYkBw/siE18tQFreOISZxEhSgGcBCsl1CAI2KjHPSK3JJ0dNvVIWHURyeWvNQIVMYT1rHeEsGinT0lqOopMZ5MfzCUVcG6/aZIFgLFuEAAo+owgAoiCETvjQMO8AEJU+9vmWAltojXHUzVzgEp+Uu+xBZZxCwCebtaunlLEYxMeUUDIwhedEGAFlm2AE8SwAEGaIyqTwJ4Q/PDlrNwBUA/YhBQcfgNQNU9olNJoMwP3AQzkrSYIEyiiDgSZ4ifs5Gh4fSKzAg2asxqGVRBA+YZHDgRceAgCvlMsxDSDyPi5d7GZAAG4ADPJgNofUwHiCRUCxS8ToKxYALC6NwgN5K4Q2BxBwKlsGC7GWOFhlm7QEBBIvBQfCmYj4cNk+8ZicCFkHDlSlJsYMqgSND2fuVnVBQQQBHFz4MCWDeJnmTvSJICRERgwFxsxTf1TvAJe7EfABEUZ6cwDAoTLIGTMAUFl9cISGegl4Fsh4hgWTCnOiCAcp3pw1KRsYY5aeANw0jzwZHSFKjJDKIxDIax6VAWoh63OQeseZOG+CBpnEZDpAB91RI2+B4iIAqBeb1PrEqarTGQy3RZSoMEE0BPmNcZiK2DDh4IEAOmBLQAQORMEKjoe/QCjhovcymxgAw+80TD1tQmI+OFdEDjxvNffoQkAwAlcoMJ4vlHAfgwnBAC1DEA8iZQ0DWGkRsKRTMAiYqK4CDIglSiQQDnm/RHwxMAe5lmYohPcQgMTGsWYAqK1D+EPBGVhdYP8AZAe5qGkAoBAMjQTtZiYYaMVAeKfKKgy4EIiAaKENBUAvRx6CHBUCPMKDmzUeRM6IrGnuAwSGpoG7UOCFFXMWIKgb+owA5UQymHMrsa9DQOn0kJAGREnAwQMbY1z2hAvMAoQEBLoMxAcptVvRGBkMDEC8e+ifALhOEMCkYpszAYNCEgMNQWJO8PKxmFTU8HCIgJGLBlIYDAbEIJI0YbQKIxkSkHHgSxApaxuHY1yFjvEYHM+PQJwA7AF+fE4okFPdCYSca6qBl6QWaKOJxe1OTYkB+oHo8AqWjf8A8iUH/eLhAAY6AgcyeCCyA5SzH6BklGyNCp94ClKGAhqZv8+ga0ARezDSwWJA+4z57XEWpNaLtPUsRyrE0DTYPW+IIINkg1CACGDgmOhKgUYAUiEDJhhdminQnjUpWAYyTC0Z3B/r9GYEs+YCPmrfAEyxEZaxAYsGQFtkGJnBgacohMrY3iowo8o4t4+ak6IABS2y4KcDzZ2CbCyJYhMBIlwgIwAWKwevxCy9aFaGrBJGAQWEwFXYoj+twQgxzsosISCa0MqEIAZPSfbkcYorqlOFEV6FAUE2RKECQfhFiWb1xmfBhREwQpZYHuF2iX/EArGqEhjzGHxRpQXChaIA8nkwEkCCw4jBCCJoiqJgEZxJaBfzLYAWtJH2EIuawJ+wUOGTYYHQg6htxCA20b9pyYe+WrUL0SGzgQdGMYZjqzYw42EogQzm4CG0IB4FEwtjSgOwCEb25g1TFBEbIacIGCS4cJ9hRAGrrMNbQWoWeO8VMRAAtGw+olWPAHOOw1CFJDjVgLlA4+7AzsS5sS8O59lAGoTk4BAt92oWzrCQhMk+Q4ughGlBNUAvHzFyGCD2FKQZHl3pYJ82QoCBSnYpjdECNKAduYABzqObs/ErB+gBKGjkWdzCQFbg/ZiOBPIA+By7F67ajt8xigoAGArpzofFBK5KIjKFwBSZMX1hZxaGDV/csAmIRZbfSUTMgcoKJ5ErRGysEz2XWVFQbDwKH16UGC1xCXNKDF43UFxcRA/hKli5YwC6cqtzHHpAAmmc5/UB9vIXd6cIihdpcPeABzsALsZdZlsY4IL+lMGSgCzFnHvEyoUdP/lCCviCKyu7iNiwAbKMqZGRwAPTleM0C4QePgARaDdKAAGzANGoy7SAOk7qJkDDAA9W9alnSdz+0IsgltEmp2UqB90Iuj0J25SiNpKCOVgNfUYaNfSkuWlsoGbBAzAFYdlENP8AmXQglz4PiB7AFHuzMZ3o2ePqAmRQOUZZaEjrxGNOEkAs6eC4hQ/IAJ+ooRtI+TycaiascEQ6t/zNArYkL3UDMspaMs6iMBkCgMk30MIAagCW9qjBJiEyVD+qigZC37UyaTEWoI7CBF1qJRUQ4xFQOmaEbNAIw5jWHscAODGAOOjhYpogAv34ougCA7Sq4gfkEKG1dnPYQo32q/cyYCYaFNmFuAqNQsU5v4hJVwIBuVLDYt+4ARQKQhbCOCcVE2o4Z3wjSkUrIhpwkdxReUn/ABCSCBes2bZ6wlgS6FCEBTlXGoPY4DRA8XfKdiKoeFBYrlgKgAoR8xKhAUACqsd/qD63RqZYJ8VLl0YJAoHnvCiuyIUn8InsSKm3QBqMkR6zyCYIAVRfQgLHK0uwgoiwAQQjy6Sjwtx+5lJYhyQ14jAgKByHEgJiQ3t8xMvQAs2vj5lfGdUaGPswqRRiAKBIOYXioLh7gkodoCqjAgBF7UvHbAmCf7TZhJWegGo6w5LAIZbf6UpcrHwLxUStgkCCTvpGRaq2iwT/ABhpVpGkA+oYxwyeK2DET18hEztRlxIT+XP3CKHQMLMQF0KKJAlRMdpFBB27KAuA7AGLB2YwSSTRPJ/qDjARJomBTjASr8ksuFkQk6BVdJ9aSsWeJ8GMFcx7TFZBnC59CEQBOxVM8DD0D+dQLQy2aR/MKArTkOYINehLUELMKKA+7ME48wB0KiJA6QCczWRxL6YYPWoIFQUOoS7AFoVcKdcCEXyoaMImAitBxmg5XoGz0zKYy3cYZhQWF40GY6E0EAQhCwRv+mOHZs+IRMR1jg6l9l9wkaRnuoEAKoJABb5jGfeEIqGDIExaPpoKV6Bs9MxMDJdxhmFBYFdAMx0JoBAQAhC2N/0xwYZZ8QiZAM2vuJcBeq27QjUryRrMOMDPZwEK8wbi5dAl5BcSwB6oDUALQZlx/wDZfBgLcE4kbBF5a6zE4nCScA16AE5V8QxLHyRJgx0RjAbLqKzeAFhZZgHWp13fSKbMFXwW95hua5FmJ2RCkmYOQydDUIgFbbBbFdJaklQe4YzHQobagiMdPWWDKETo4iiEmsECFa+YDhk1PTZ+vTAEMr6uHtcDIMfvCo4lvIIklCA9RIwA93DOoCHAJA2V2XSGA3ksovTgE94eHKEaRxUhDTKIg5MbgUb2FlP4gMmTUjjZ9OQD31cPYlVqse8JviW8giSUIHxkjAD3cKRRMdiA47M7LpLANAT+TEeUp0AdChSwBkKXJdGbEYinwgIqRCCUQgbAgkiQ0JWRxMpLbQZggtFA/wD7L4MC7ph7v3EDBOAxgQo/qIyikCdjMAIPUywKRXMIClCsozVwkw6o6bHuJeKR/hl8GOR1wy3+oCZTuasvUB8B0Au/iBmrkA4laP8AEI9ZANKjkxRKoFeXx7S4M4v8M/BlhSgLqoyKwJNaag0NAlxMXWYFlfzFwVYgaoOF8SBskOO1S1o3EPEDqAuW4eI8IjzCLD5giQtsDL5K0NwOhBEAeMhhwnggyPMCpiZyHKxGIZNG36EYQG7cf0znKWBvWo1XJHBFIA3KAIZE6Fn6UfsaHh+kAZC4bm5H9O8xAeOB/VCU3GC5sMrBpqFCcmIA7TmiAaHYagcCdII+XNlr4iWoHhhTJUuJwlHHmF/gD4MwfswsJMMCtZm4QQDZvU1ZaEfeGQg4AQnIKNrMpft0UwUk8uBWoQFBEpCE4BqUMXpCYgBKwAMdo0GHZ3itmuigEAgBYaMKhgCMAivEsDdARtn7OilQFxY4iSFruFCeJeHDCGACEvL5ChCY/wBw5VSjJ1zP4xEJHtjSMCyeBAAxsyxAOvhCWbcL/AHwZ//aAAwDAQACAAMAAAAQa4sloiAAAAAAAAAAAAAAAAAAAAAAAAAAAAAAAAAAAAAAAAAAAAAAAAAAAAAAAAAAAAAAAAAAAAAAAAAAFS+SE0UT00Ik4oU4PfKgEAAiQ4C00qA4fYIogQYscEAA2Ts+UEU9kgwgNMSI0UZ0DAAAAAAAAAAAAAAAAAAAAEAAAAAAAAAAAAAAAAAAAAAAAAAAAAAAAAAAAAAAAAAAAAAAAAAAAAAAAAAAAAAAAAAAAAAAAAAABAwoAkzxwEQg3AzZkIg6gwgpkgCgAEzOgIgwgXwYgQow0giwQQBwYEQw0SxkmQ06gAgIwmrrgIgoUkTK8gEYQYI0YUQ0LGggIwAY2YQQwa2MgkwmDH0AYQAk30UAQiiIgAYKgMQMzCSaU4gSiEgIkiIgYEjQ0A3goAMAQ0goEY4YIBaEkysQk8IQEWQQESGky4co09AudQcTPHcs8os6E0aoT2gYccsv/QAYHqyWoEAoGQsoFks+qUcocg8XsawQ2oeyomMgjBAwiSwwQAAAghwAQwwAAAwAgQTwiwwAwxwAggAggygwQgAgQAwQwSQAYocygAAQwAwQQQigwwwAQAwAAAAAAAAAAAAAAAAAAAAAAAAAAAAAAAAAAAAAAAAAAAAAAAAAAAAAAAAAjVWCPEIBGEPDMODLAAAAAAAAAAAAAAAAAAAAAAAAAAAAAAAAAAAAAAAAAAAAAAAAAAAAAAAAAAAAAAAAcfddDDhee89C8iB9AAAAAAAAAAAAAAAAAAAAAAAAAAAAAAAAAAAAAAAAAAAAAAAAAAAAAAAAAAAAAAAA/8QAJREAAgEFAAEEAgMAAAAAAAAAAAERECAhMUFhMFFg8ECxcaHB/9oACAEDAQE/EOV4P4Zy77/VPaitdyFV+B7tevvsN5oq/f3e9YO0/kVrsY6LAtUY/kXa9p2102h5c2dtfp9vdHYsHKMYre38talHar1+ixSMQPNXndvRYFZ4d6FgV3h0eTtVi/dGPPoavR7KjzI82secXoXtSDs1dN07J7CxB9/duUcHlQdsVN1eR5kbljUnZohY9HtFi2SKxNiwLBqng3uscrymq6t8EjwaNESTJyCRGreQPObtUg7Ne3rFXm37/lixb29Y/Dj4LyGgmIMTiNBXoYJGhjNBO0ZoEwTtDUpfwGD4NGhe0QISIex4hY0NHTyCb0E25JMyeQbaJPvwH//EACkRAAEEAgEDAwQDAQAAAAAAAAEAEBEhMUEgUWHwMGChcbHB0VCB8ZH/2gAIAQIBAT8Q2Vrzo20O/s7fDz5/SGPOyPZj27ouO6GOHnyxR7IsO6DBsIURKAMQiij2RtefZDkM2hMQ52jz2hWUJC0j2RzS2w9xahFtQtsUUWFBtrAjhDH0tIotph1QWocUscDtFwxR4aQY8NzxFFChCL79DPLSNtNyhTWhWOEMbRtpUUx4SoY2+3hbkMKQpza6v58PhxRYo38tK05vz68iurCoQrhtAIGOBtz+0X1DRaDYbIhdUbnjCosKMoUjbFFhS8+GBQqOyAgKYWoc22FjiEMMbbqEbaOEwoqGhFG5/tFtyvost3faCyp3znbC1lbUwogQgYM+ZWKX5WWwxtYMoUIW5QpRUObfs2/QNtMIUo9XHHUMb4SoWWNtlA74Z5YUehn+auNoivzy0CYn/nRCOvKlS0aQOQEC1f8ArwckF88UtKI/CIBIvOun+oim8To6ys8QESZ7HpP29gyzSI0gotBdlABQC7KhwFRFFMJlE1ysGmUTUQ8KCFZflEGnmViEIBMgDyvYP//EACkQAQEAAwACAgIDAAICAwEAAAERACExQVFhcRCBIJGhcLFAwTBg8NH/2gAIAQEAAT8QkaPRrTK3S9HNOHcSH/bJ/rydkD81jClqFABnrh4uQRkZ2J/cBuIwmuJD4DHG5SEuILDI3Gy6JKEGaxiQQdR7UzI6LTFfbipfz3haD4pHFSEKXjX/AAp/h5ImVCd2bnfOO7PVPq5Uzc9BAAKofbg31DQQF3KHiZ5HQHT9/kPOWYAWOHvyGDUsWW7eJg3TQM0+p6PjC62HULvY7zXUmtrNUxk1m6L7/uOy6VX3/wAK/wCHkeQXTNeskVrnp8ODLqfDfFJK0fRlVEVHEo303hF9B8QvSP24dFt8hCw7rRsirQ9wfeObpSsA02EyPRCrieDq1k4dRx5I0h+2XSKVtMeiTE8Tprfki07bkO7KO9jRHeZF9OHdLvrYe8dfWNIGF3BNrLaH36RTT/fODjvyew0kwlBrxxFadbzhSrNpGQOnNcOU9SL0sZOqQ7IcgE4bcnJMCq9RKeEjD0JQvoCLSzNCFbVyGoGesHRORL4nFXG+noYbSmgMxknUumGtBzx4sgIhcnT9jFMZsALTN/IzjgykGCCvfD0OPFGbSaVac1xQPQy0fPL7x1pychUFE45ewTdm2ehSbMm2jx1Ig85MWjjK1GK86M5nCvildDeVy9hwAs6H7wKsZVIi6y+uJ0QpJVtemp7wuR5tKa6JvFyROmv4Qrc340u6SUrmZHv7c7sgIie8fPXQrKQeOBI7NLXWNuJOmzMNRRNJ3HW5XKFDu/WX87aKrBKJgGbq6BQR1jSm9YuXR9h85CbqcQJknvHPrpYLoA9m3WIK3AbFCGG6ck4thYMD12wTN6lzVESQMUTSa4ENJfhxFC01NQFIJjJVEIuei6yI6QgJqeJALC4FRtBIVNoNdwvwF4g4uJO4a/zzdtHfbm/qnh09jj7wqQT6T7ntMfGit9SfK+c68rL3QDfCuV9mnNpEM4YSqTzbQhJTGbSx9PMiG66vnJ8rN4oL20uOGSaFYYjHKkmhBFJLRhvCnppZ5Jo0eGKFsjSfE777lbAMY1aoTQY+GUmgzGDvtxw7EANEXR3lda5FRQjqzzjWAOrbgkieOa+RWkBASu2MOilpGlQHzjetnFnBF6SYtFEkqWO3hN4JMLQVNaAg61k1grOhSrQdY0IDLoLKJKNZThgIkxUC1k1tZFhRTR2hfLET0viZ8jZ85uRFnagGT7zmoXNgQJdLY/vxyCIKAxjPNQkhQ2v7Y1x51BQWt6s8KxpQCmu7jkBAwr8EKdDjANuXDpVaU4GAwQPMzUAm0Xhr09ZrfPKKYpTTyw0E0YGEUlH55eMD2zRl+5H50d9YL+9IAHF35QZqDm4a3Ume8bLrGKksaLeFnWFtExNjzhgDjJRvZveGC94uALQG3gwSoN3tgJ0dZGDEA26diCvOK3Ysd2IRlKGbKwegKcx2XrhKt41ilB4a4/JlzjE1miN8LifyZRsW9et8I9DhM0mcGB1R50zx0ngHL9SSBD+m3bxhGUNQatEoeeMDNIL7H1BnjlOgsmuarJqtmhFo8sujG96FW+dG8jkrgmAwaYHRwwo8c3fniTawmym9jaJClOM/8/8Aw8M3LKkfKFWvGL9+061L0Daavc7SpDqsMoU2Gf1VQ51r3MCImZvfUGBEiI0RM1OncICITxg4500ne1BtzXHEJ3mg0FNIPTHBxOg3tFStDm9eCIlKEBu5hJLH0kB1sLfDFvNiInqIvg9MAdL/APwd2zzyFYLaUVde5sKB4KOI7E8BhJ5AAbXQzdLb+8Bo54xBbhARdGaN+ct7tCAABdBNTOwf+8+Dw5jKLa1kHQppDQ9y+ZGIPkioXQ5UxFALoUD6xLRRHzGEyod1rKM+OQzgOJiO1726/TRfple8AkXejj6y8NKlhYsRQZuOXMgZg2qAivlcA3TGwrGm3ZiZ+r0B0KsJXJ+4Vniki0aZhg4JG0QVOBG8bVQ+XEIAfGGePLlVDNhdZMNb0g1hoRbTPos0LuqpjqyFiJsIZNOdKB0urtNs2nxgTY6obTJJ7J9opBozYYT39utsWG0dcna/V0cYiCeExe9FL32vPx4ePssLZLQfXE08afGpa+LzO9JlobFU3fc0u8aTZBZULodZF1QzAcAEAc41ZBT5bN8zwssw/aT75RwahvBqVy5QRQTyjCxtyS/z1VNAgXhl+BRE6pQE6x6TKNClaHZpx3ZYSqCM0N2OBoAN9HgugmgxxdiCYeYnrWcp/fKziRfGcyCEliUCsHVwZ5ndjAdB8t4tvQjAIsX+J3H+2Xdyc6PD9KvfOVtTa8028RPGVslmQotAm5gRRSB4KATQ5g60mYAVHNB8YSibv7j1esJmym6EOxpNabwjQBCswEUn3jo3jTwTTDrSGGerxBR8o6wWaC4RhQCHj3DXx9siwxUrZk/AGpjIXwmlwufKdqNzy5pdwm+gB9Yu8BDfAICGbDJ6Dwj8ECPqYL7hlwbfA9YbyjZ++cfHhXPz5UcSSXJzNapDEgxFJvGTCCVkGzjlxQ28gPD4TJ1Z/vXweHIc7SUA38MVEsvZKWendxzvN0q47PK4aKVDVXvsejAlpT3rpDKe07h1jNF8DSEiHMJ++rU1px4a1xhh5IkwAUGwHnNPiOQbQZGF0mdqWAS3bub/AHj5Gga0HAADO1kjLEIfJmlmEu9UaDcPpU5x4iFC7nMm/YsC7I4H5wKmbVShQ62PGQ/F4/x4DcbeuLr+oqK68hlCxpgD8IaPvNi//TePj9GN7YkhEtFd+TC+mwXNZGIzyMHh/IaUjTwOWBb/AJ4UOzw9wycU0Q06jhIWRwCBqs53krwiDTxjL5fDJ+NeraRBrlYof8ZoA6YC2WWIHgM30Ol9JBkCG45ciAnq0+BNbwudPHhYAaeTF1CGUh9HgMc8MTaAvrZkxelk2kgde7gyvTXOIEM8Iayo+yUNAxUHYOsPp4Ld+gTTiKq1XyX/AM//AA/+IP8AD/8Ak863niv/AAp/h4lksFEIB3ciV6NcslO14bsl4A1e6Zr8XG/B71WGdsP5ON83ImivioftxzzQRMjb09HD5F0nsM8tazcfv032XgnnWb0AHtS1Ct1DzPFCtv8ABfObsZnlQxv4jFEaibkfnD9mvXp1qTCaQIyQlitDXjJUuNpAo+oYfiaF7vf+8CyaiSrSmk28dkce2QOi+TGf3zceX4uWhh6x2B8aawzfFPTt9Jxw4mw7Qi/9M3607JOOKqA6yWbIdigfUmOQ8LMlKYCmF84/pyFIjg3dBprB8zN5DdobuH3cbzIHjfZMK+gpwuRrL1cqA9rgDIW6zVg4cmGt0a9no8RMHsKEE2qp+CkwNrdCviuCmTWY9qoy3AbXQ5HbG7G2a6JhT3YTXQFsuQu4FDwUajjL03sKT9mV/DhfDRSogG1Dl+GmhibyHOmV1wKllVugxdBT06RO/L5ZDdXyCXuVWW2FPk8mM4QUUp9w19mPhls7Qrj0HolXM84mKCPvNF94PTIOABJZ7+8KEQ6DQYmx6ZzHwQNQfuZyvdODVfDg6KkMlsoGdDh1cDezi8LqTLHkbHYo8F0KzfkXbaPMLsYd1OHZtj2k1ms2KuOgDoXAsUm0VTTZa5k+oNkOTp10xEdfD6A+t+Mt/m2Ohk6I8dx7RHxzEvWDXPFWL4XgNu5+xQFdj4cv9QUdCGGmKK4BscYRq02EEDEQ/DIrk/YLweN0w4LrEQ3YoJ1azVpMhhTyatGBT4i+2ZLtUdC1448+XO614wit745pv/8AQVZsF2d6KL5+pw3qu+m6cSu83ZN2kFkbVliOCHgFWzawXBeYJ3BRfncx+6BvRNJjWne12n6DL1GNEmKHJhwmbGqF07BD0Uw9LpA5qs6c39GEKQlxTjqNBeuOjC92G1BmeiNzE99v7HP7Z1ui8QEBo+nWOt8VolSuxN5Cvu9Up4A6i9xHNlkFTF5y0pNlbt7ds8XG1imlPnJU3k/t1/kfg/BJlKtWNQOwo+cJswOqDq1JxB0xmYJIqka8YH0y4F+KNenD+bqyKbMeXU99YJ5iZPsp2Idh0m9JMd0PGvk77feNRK57834wV1kOhjP0GV72PSk0yjrRkxVb1Y+W4xbWXEQCh9XFhx8XqD7VTD73UefLJgX4G+gocbaTB2wPGBiehHjG/wA2wjEXyHXI0G10v5tu8tYntgg13tMzR2kCChlA/p2YTeY6yq+n5D8sTOAlWS64jxmxkZghUJ1JE4wpIHtTpqOY3FPuAXA+PPcZ6W3yXYOWkz/qtGlmXTneTRMMj6nDIr1TxjYJgvd7/gyf0F0nVKaTbxWQa+2QOi+TJNrvk+X4uUnBax2Q+NNZez1Ojb6Jxw7Gw2qxf+mdvabJOOKqA6z3rkIQB9SZMztmSlMs8Obng/XDK6PStSHWjxm+S2EiGYHyZd6hCK1fEZztO1Dk87Zie+pFRJh14hZRjibby0ouZqN4rQMS1MFVwrvr73jeLStlutcTIJLv4mid7C5Pt69SB+pMch4WZKUxPQ4/gP1wy+IaVogdaeMP02eV/WN3izDCz0BuXs3m/JQGJ8VBz/D/AJ9dF5w6n8f7MX6rPf5aB4CaNOcwwAVuzfV/Pdlmj7h/EY3EsMcNX+NCDX6SND87rCtB9JmgtStQ+X+C/ri426APx5asw6Cu/D/EtMGvgMgAa/AQg/h8GWcieRMLmpLWHqv8Q3uS/YEH+KmdrQfSZpLEtUPl/DLc1a3Pcxy6rV2VfyGG3O49gjjtGPNL+PniILU/q/xdhgzkTyOG4BC7Bvz4/LlQ6WO/H8ZpAhMGx3jlaKv8f+xL538tH6lqnqmJx22lflfzrLxJinsocQmQDRABAAAB+NPxGOhH9n8RRFQzzxG7N7L+H41LDR1pM78FhJ7X+N+SXpdn+OltS1R+TEY7Wkvyv4uySzTrYfw1hqD0+YMfkxVqqfx9cykAL/n4FG4OGwbs31fz3RJdGth+USm1B4U/AojhKTHur+HbuRa09ax+HLeVfKv56lm0fQf4LmNDeMsgWLqv4GNxLDHDV/Dd2ItaeqY+DLeVfKv4oQa/SRoZ/h4euB4/wDb/AEY+kF5dZ9O/Czp4higI+5m46qAyIcID+zLotHxHVesDzB0NKC+uZ7ufBACfsy7LodWCgarThBmzodXkfLGxRUJ1I/Y1ki45FC6ap8mIiOmelaXQdExbdFHRWp867weYzqOCqg8uYHHSQiQ6CGhjOBT4ZfsevOSfwYoeNgiaHDCc2usD3zPb2xFGmd03H2E19IjF+rQ+VfAEHGFdSiVc7rxjx0LRqw9P7y4KcJUDVoNM5pCZWu/McukUXYU0dBPHbJZdrSMI3d8MHkHEA66HMNewtlaWdg8OIdmTTLOaduBZiyUCEdq2cKevjqDsjb53A9e3oGon7cTtET9ZdoPMt2F8Vif4zLwanrvAcJ4HVzAhsbZywKkE6dRPHNvtJpRrZsxev7dE3PdhiuKJ0VLdAt5Y9a2ZSpinnx7xBnDUvBspPTrC9tpmxondaF9YQbggJsuoK+TxzbzzDohUp6GsiiLytW2PONfwuYuTpoKZM514LI/9YLwmFIOlMXVQ3ypVfUMGBpjOkN/eE47UVzvo+DWEYNhv5UdowO8ffJWUbCEDmb+WBQjRvrcUqRfgZs6FoMAiINgBVKvfApnDyqJtod7et5SNvzQQj0OPPdixQL7aYWXi2CqgMLo6WEmQqWOFPUfSAuvRcH6vboiL/HHMRpaXo9wsNjSBu5XkBFwPy7UeEJ2HxDBcQGYgtSU4e4pKpnD7BzFyRadW/hWJ/d3Yh0QLXyrmylGwHYL0DmpXIwDtzUOGOHtWbb947PMw8BjRIAoAvpmtpR4S4/s5nZ5sUhcPYwIXIuSOzTrC6n5tBi/Mc7ewtrcn94r6+pRH+tHJ9QapRV7cDZLK1IqJp9sg0oi0fCPmjEBpRYq3Z01wLnPMccNced4NaGkkpDdA6usUTe7YRqFihjx0Z0DKHX+GEUBTKoTpi+mFMW1IZffXxNIL2inGAz5MPmGzO8r1vNHIBs3y5o/p0SCZNn5fIF9jHc/a4z1Phz2xfCq5LCLcOm4o3uONQFkXiY9n2O15cTPWRi4+ZoHLStKJaaYtHV0xVJJvyVgvTzl+fdAkl0/RHvDaIPhsNyh0OCdUfKppQuBjemoBCjqPtrHFFfbplurhwWqbUUDwZx/lcCJq/Op+Bsh5iikD4WJsQA+kfrMz69gtxoE8Ssm8TQSK16njgWEK9VPbsQOc36CQqfUwxDRM9vq4dB04/fc3IbZ0AyVYX+tu0XvtcHVjSjAEnjq5O4KKU/xDZm+L3JXaJWSOhTGysv8A1hMCwAQGnZjiEemKlV9Bk1aLF3/zGE7Lp7Tog2+DWX5dq0C4pV4n47y0E0EOZ3cpig4D1wBLHuXuPPEydlTqAVSl74FMJANJDtAbZ72xgkIXKASUHB8oqkCtnrfjCfpEHoLninHacQRCUzNHkzXbGY20vIZtM3cxxG67+PxpO5isgTdw3hKZv5mqYT1IOMlVoPWzjsA/sBadG+KxxBy4DqfD6ON5+WUIhtvaYauSvYwtTlYr98MqVLNZJzX2DuCkfbMhiN3ckqhopMSfdx3SuFKKZmg3tRhVHj9V38czDtcnOF0g+B85dHGGizdixjH8P8ByriRTP8PDiiA1Ff8AbCDQUe09z+BxlI7oNAfBh2nFtBYUcv47+BTr8OE+Tkfkfwj+lHA0j7GPAEUV2O7e5X3CHyIPN8ZN6IfCNWe8SE8DpV4GPwxGwPCDX8BTrAVmxwmyipClNP4Vev4x8RW75Nh2ZeFCsEsY/hwOmuw8ezvFY8WmT8P4FOvyFUj1ZwXguKvX8CCAZNKil1+NdLwHoLPq4mEJVzt9vbi3FpzKdB+LmuDjrMSn4KpRKw9kBz5x02ycieExV6/Pc7lf8+w6f4XTU6yuw/g+LU90HV+DK6UXi3k9mVMH6yuolqDsmd/i2H2OV/DXzH3v/d+XCtLc61+HOfLyr4A/DidLAy7DD9JpwaQp0KOxPvPEBW+g78J+HYKmMsCrrwY8tDtNzXH8UjUEjAQA+DHwbHkJ4R/jWS/ga3VUAsrl3uDGUSj+KnVZHcAcxznycieEcRilYT8JiMcrCPav4mCicEcpnZ1zn1rp/i+Bgow72fg5tJ8q44urKbUnQc8TJX2uR5uOxUMTDmajAMeNEl2vdDWAgt5VO+OpnQyUbTH5l6/yVevxzPM8E7JF9DdfgdF9I8FfRj2hdUTB3R7uY3LWoaMX4A1imk+zyZ1V2sq8Px/DmO+5foPwCNYB7XD7oH6THuoLCuyHzgeAlNUDF9Pw+W2e6DavwYrhYN0+jjCol2XrofV8YH3UZQ9XpPX5MC9kzvT+P8PGP/IWaXFKDmJ3MqKZ80fPwPCfbmcfQLBB5J9QYx5suoNhAFF3h+6sMv61hvmlUbvqSCl7ODVoZ5u7KbwcoEQhhkfPWsfkUHQN/gr42zvjH8H3VrC9eSdhKiq9JiilEUup8GYjV8msQwkfK4vMYx2oN7AUMc+tBorEPjFUy1AcsRqXWQ60+qXX0GTdg/pGjjxfVkVbgP05ZRm7fARUuuPkd3wQ9C+QBxnFrvDYwu+reNbmoqa8cjG4bELrmaQIE/eHtW0937FtMfSZGSQgDujSZrT71WUURpLMH0MEW7y/0YI8A4INQrJ40xzQbXOPY1sRknQWM9RKgnGetIXS+aFPNuHHAq8H/wBy4foXRllMtnnnwqVre5m4kAilEtdu8MdFzQpD0594z2rp63mq17MLQkioRFBGWJnA0A1EAAMncU5aJYqny41wt1hM0UbxtGHTKIdHVyLMR4w9QETghwTqN+YwCxvY5L1dPETioiM7uymgUTDf0HFr3h1PJaTS5VtAom8g99FcNfisKOonGjj/AMLCPi/BD8dT22VNpCQMnhe8cBu+YjB9NKkgiMoniAOe6B+OyGrV7rAz0h1sQVNr6Y3cJLgXPhTtsYjqxmiEQBruE+eQo27hjU0RGoJ00crIrMUPIdsNiYqy8O+B7cDJBKCnWcyVI1fkX2Ga3HZiRGmgJTKj0EQQCUYHy4Yj0GFu/gwgxQe+83iSVz5xvNgf5Vn6aUyaiCShPwi3gqUp7IMLs+m8v3gxQ62REzxHE8bQDajMkYHiCzSBd1c4OKh++eGG9SXODRgmu8jnI9itUIgcaMUbV7h3TRyLFQNIXQI+wjFW1WUQ1oOnGcMiPSj5HjB7PyraWjovUZPL0SaUWe857TxstgHWTtQepJXwuOEME9FH7HI/jtUHA5jDRHaCAM2ajE7O+mBBEYHNownIiumUQOCEGPJ0GdRfsRHrCfrImEsD2TQM4j6YoBCghrmF/vFguGvORqD6YkGbBN0AZTxY+DxSrrCSJ6DjSWt2SsAxVXrQ32mnNRvb7ZUHVmVvoUVS0Scdx+NcHfF/BD8ec2ELJs2MPPJ/lb99TWPbpbUhCTUeRDg0mlprrDt8LC1I6uuGka7rNbeNcKofJO1jEiUaWEYAB7cvSxyMtGj7MbpYEkF3xs1kzomzOmmGmLtOtKV1RROBWbTAVAa4LrYwHvoUMFSgD20ybYsmKiG3WqGLEnjKx8Na4l8t+4ERuHjlv6nhiK1iPpMfLIxKVDNVdDjuoa6l3PIGYMcl7QRBb21wI9AjjyK4adYg0IQYuzPLaF0XAn2Kzn2DCrFkwdGRwx2KEGkA7cAjQKI3adRlKx5+Z9aJLjKCaFXoHjfDmXtrf6QTN90wPaBfuYKIX+ZIz/MEz9GtKt1I1MfFy6YKzi8bzAHjm6EldUuOxzsTXlgbwXgR7ajriabxL0n/ADyTYcPpu7najTFwBR54BAH7EY15JFLMAdOzKsFQ2MnkqcExoA+2NUOz3iBOi5wqM95Py1Io7ADrN+auwTZ+3GEh8rCJjsbU1B/DQTAr2rwgoNjb4G4ZBo/SsrTFf75KMvp/ppTNa258UJiQICIfijD5JTwx2Rt7az/DxRIJRqSy48gYMc2Zd+MbWgLPUvhxsWIMwT397YiKYktAOVMDec9KKYKgWoDxmv8AU0FUD1rB9x1LS8TA63YFFcF0h94vKfOIzDFv0XNaqtqh8GT37i+xiEabuh7DCiBWqKro+pvL9VkWIda73KqypkFj9TebNTMNprXyfhgdCHy1tAb95MelJsdpgwnYlwvsYbztKVzZKKhrEzrMrusf24Dc6S6AG0nHPiZdvlO589psPYZ5tMth5FzX08cr9BnbwId9Ow/XnA0UzqUNqYFvBhxuL6HNkQtosQL3mX6zCYGJr8GvtZxCrQsxA0MKj0BpcDc0udEnsu2ZV8SUAY0auOvcBJ1p3BkbMZsUun6DB7Fx3F/0wsVK3EerhOGqdB7ZzB+KtwKhPnWfM+XR7TwYybYNZmz43jlpVWAbGdmsRVC7STz+8WWQkOgDnw/jSxQa1IgVHmXSxrC/uMAawvAfJNh4zxWSRRStGTaAkFnSwNbzWxITAxKYOMTrfy17zYAJ99iesBUBTFyuBaIvNfOCaTW8eIPvHEW4O2dk9YvcGsgh1875l+DTzSq1+CHnApGG0FfWeF0GVe0TDbAK/RPceC4LQkNChVTTjtyHKuxt95cl0qE+aHC1NCxPg9uCsAXijVn4b6YqISrHLFodAtRfDhEhEubf/i505pb9jiBagf2jyfOL/nzdSFHf42aF4NxW/lx2VSzfuYO9JtEXgntwy9S0VXyeUyGL62JeU+cazvVkOrWl1Zgqiaiwe2ZTqEuepfDgnmjeV5D1jk0GI6RwxGVVIeT4wUBVVwd3guoKbtcPtx/hzX/s5luyE26j+H8SBiYoqJ3ZyX40WHs1GIpwOQ2G351ixSEbeIrjgxYItvgxxMh8yp0aYnkxyFWpRO7zw1abo9+2eCrR3Ed+GJrXCxVwfKRptIbMWNKK4/h85vRW2AXfpfGOQB6pNgVrGirQ0t3HqRSdEJZO/jjibiAof5k+yPR7mDv4EO+vL+vOHvSyCZSCbpybpCRdEKn2ZrSi7BSACqTZcLq1bg/MySq7sbyfeLQLr0fpwvqVs9A+8Mp0oOsszo9xryl+rgnly2j3PWDuF6Te6/z8L9iYiPGTPmgs+FMRYSmXRNpi6NcGg4CrTE0CCvReE95xXA2Tqg0s1chIO3wfMxPZJE1fnNYit6j8OaWwg2ni+8HoYVVQNJ958sAcfpfDhpjjbL7Pesdbfw0Cnp3HhA4SkNuDnUP0mCJWAfLi8oLpK6d/G3M7E/ScTPg946aQILZ8kxOT4BSrmjtBTaB1mHgwE/ovvBKGUHSe94+YAJqvtwpVUlrTpiLZCJfdh+vOf4ec84B84tviZ67VaZ5t9mAXRJYBVNJMHUDsFaVTrEdfWtKKnwTHBLEdETEh+CG+M6dax30/LE2PIGYg9W9j3Ro6uKsZmwNdhp949ZiNQtFU84a9V3V7qI3xy3SYrWChc50cW6uKktqjSZxfZzR3QEhJc2kb5IWCnt3DC8qV04qAJgv9KFPhiHlwRF0bjdu8BFtW9FMZDoniLWY3EY1W7hAO+5rrNkASLtWsILRmNkoGyT4ybJ9p1WaaG/LFuzFKHqLuXBQvUaQv3uNyP4Hop7IAYSrjnSikoLQfEw/IFuSAm8GlRrIKldJLrGBOiBYE/szdue3ncnB5MPkWP7JWN3bmuursgE391fwa6uutYW4lqiC7Mjbs1JnB0grYsCnGGKuq8TWp01qMOied9LZ7D54ReCiyc4BfvCu6iugQRQ4fWEuskyUGO2FY2dW8AGSm0yfEFOVS0YXGArRC4CPXMmT9aEN13o96xwNTmRQfj8cZRVqRQQc5Oc8JM8Ltp+HDtX6pXQXqsH4FQM1swQC5o93lUlV4TcMRo3LEANtGUsxFkbdvgVo2Y6OmyqNiNEhvJ9C8TrSSzco9p0jZouTABCVAugYNUxTv7+RqVw7ZupX1aCvvHtVqypT6xDL4uJekEZGQxuCSdJInIGTezt1BAv1A/FnR9s8AuMSAKg31FL0bxlBNAUdOytbhgbCEQtSDZtxpbhoE6I+HxzTghAJegYk+oqbXw/eHLHG2F1Q+EcT8RrSfJRxMgxFEnZ6X3WIOA64fgXes8b+G77T5tXBpOaTOW7RPBiZ5UCjBG+5iVY3AGyBw7H4lmQV7gnDiwYYU7HJ7ia1oTo5iUKmv8NEGHh4zhtURuzXJ3IRvFqTYG/LDdjwB6ENA66pxS5HcB8xh73s/F7asY397SgUSws49R/sNgdvvNkIWIOu7mHEVlZsGfk5qfKdIzi76785PiKKhpQA3njXWtV275nPFqoMMKhsKnIXrM6gwFNaKBuafGf3pFge/SYRgnpBQbB1LkeYrNiwvRv5ZTSlcClamjOXBMUwyHzh0iSBmmQSTy40dgGAbgzpca/SWxJ6Yw0ah2D24V43WGZwDig72+cch+kpWiAXKeB2+XRKRT2DNei61YARZmK2BHVfae8Nze8FBBOg4Gk2i8lOOVaRAoJNgPgXGHSBBBvvUl1ika2pdASmi7M3l3EOID1acl7jXdW1AhwZq7PKIUQDl1mmWDAoLMrvChstdC+LjQNiQBfkrfWKzzv7FaYYXubqG/wB44GNV1dEGxyq5bha9pUg8lwWvrUEQ/aYPBHPRnLl7m0ltQClDxcvcEIhiG+lLrBOaeFr3SXuGXtvJvlEUPX4w1QB0FB0AdGbOKxC0MLLAQCkCRBcJtkA4iePgKbyP09Ao+2XWoAgkCoVWZ5u1hiUvE2Bm8jlekpDzIuNT/dNCd3HJUhvkpQTbgmPc20foNrgoioYVvN+tptf9ZzVd7LvMk0fRiMBhauPSZr8bAo/1gVRF2TSPgzqeZyQg3WiQZcKjwQghaxRWVak99TqcmMSsWCXEPE7jm/fnJ/2Dn+HgBgYfd4dl1c5MO/e6X8D++JAvvOpZdfKa9ph4QvTUgr7BoyKOl23iH4uNXOp6gr3EChD1x2T264YdZsYrea8Wayo0hIaPETSZC61qVh26L55hwXrECw263iTGCwKGqO4Orl2moKCB7ZC9zS7B6SUfbms4ZAkTpJcNz04pxYdQVm8vytaWcHQQ4qfRNq0N4FMFnubXYh9hvHeGF6rwwQxp0JURseY5tVQvfDspLjvj10AObXDzIf0Lv61wxRbiwA+eliYqoD60mnXxd4lh4bUdzYZv+rMY8qOoKzeH0qehTi6CHFZBLtWhvApgsc12gsPsN4rwztK6DDLGnhKjb8Y8/wB1F74dlJc8b7sAs2wYl7JkgPtcLlKCDwpsJhub5eS2nSTLg8vlCI+GPnCQnGTC6F3zH7LMEW4zesRcRuFqX/7l/h5SmWtnNR235w1xQNqh4MCY0HjA2vyv4C1s3qFrzzjd0jIFmBjH1jQbRIRFgU60TGTEKm7QIy+s86kKMDNej0w9zK0tKUGjVVwaPCYxU6HcPklDgLiqfO5gqO2yCvQ0+ORb+nNtwq+NuFzjabrBRG+uAGiiqgRk8TPAz24mIODe8az7HwlW/wAH4Ll13MA/vzHtmCASO9zaYW514FgHAdExnDL3GoFP+Y/Y6GwAhpxzkisFugI79xwvaUxomK9ciTBTwQdDt83Lc+LodS43TFpKHQwqa780WEIZ1x25ulvwWbDjMA/vzHvOOAJHe5tMNU60CxDgOiYrln7jUCn/ADE7E3mAIafllYoRYLdAR3Oxz2pnRsYmvwJjvzOxLKoaQ1hu+dYJLDHUWYux6MIKhF3u94tk96Q0eKcx+F7eUK1U3szxBFkB8CmN2M/QLf8A7l/h499QLSkUv6sdLcXQRMLRcJ5vt64A8auNpWio+WO+d5OblKG03gfePV+kEqJHpGxwRETijP8Ahn/DxgbhBSQnkZiMXu+gM2E2Y74IhCFAv6Upgu/QXQOhsDxhVK0UCJCjw1m6HomDi970PrL/ABDOirf+Gf8ADx7cw+CbcoE87oJv7ccigbbve8GImgB0zves6rCKaDuTduOg5XG9pDye82Qm1JEpJ3b31lX0uFJdAjsw5sWMQyrTjDeiCWhg/wAXMaml8Ga3WjqEiTv7xHDNFOl8HvRnpWQIHqV1io3uvRmGm+mW3hNc1WTJUredDQ1cmgZJoeQ97m+xROh2dHridNBPDrZUNGXEaWGXYSzahtPWzFkhS+F1/a4j3I6aWAHn3nORLuRef3c3fWPip36MpTSrGJbO9ySEisULpsTFkSZYT/a5QiN8mV8u8YpQk2QLdcMGy4Ziqa3/AMAf4eBvYkkcWy9lzSfDuPQjB5jzHHRROqG46EJCCAicPJ5wRNVBMQIIa0ZPKYE11Nw3ivkC8ef8JrE1Rf0u3CTYpIDRCTEVro51q7gF6gGjPeSQS8aC+T4w/wCYXuKcGV/Sp2FajKY8tDCAb+smCaI+Qx8hO/X9DPK8VblSM1qnZilJRTSbHrvRgTkCDRCeHOYgggJxTIFCdGx52O8ls1P9qv2rmpkF25xBIJhTEADOFs9m+ZIGsdE8EjSYsoUrOVbpmj4wKO7UjfaBG+cSUrWAf0Z16NgiJER1h5HvytkYzWvWMiaWmh6vf+AP8PP/2Q==;" parent="WIyWlLk6GJQsqaUBKTNV-1" vertex="1">
          <mxGeometry x="-607.5" y="850" width="1280" height="152" as="geometry" />
        </mxCell>
        <mxCell id="P8JZlvMNbFZh8vozIxRp-6" style="edgeStyle=orthogonalEdgeStyle;rounded=0;orthogonalLoop=1;jettySize=auto;html=1;exitX=1;exitY=0.5;exitDx=0;exitDy=0;entryX=0;entryY=0.5;entryDx=0;entryDy=0;" edge="1" parent="WIyWlLk6GJQsqaUBKTNV-1" source="P8JZlvMNbFZh8vozIxRp-1" target="P8JZlvMNbFZh8vozIxRp-5">
          <mxGeometry relative="1" as="geometry" />
        </mxCell>
        <mxCell id="P8JZlvMNbFZh8vozIxRp-1" value="for Year in Yars:" style="rounded=1;whiteSpace=wrap;html=1;" vertex="1" parent="WIyWlLk6GJQsqaUBKTNV-1">
          <mxGeometry x="830" y="170" width="120" height="60" as="geometry" />
        </mxCell>
        <mxCell id="P8JZlvMNbFZh8vozIxRp-8" style="edgeStyle=orthogonalEdgeStyle;rounded=0;orthogonalLoop=1;jettySize=auto;html=1;exitX=0.5;exitY=1;exitDx=0;exitDy=0;entryX=0.5;entryY=0;entryDx=0;entryDy=0;" edge="1" parent="WIyWlLk6GJQsqaUBKTNV-1" source="P8JZlvMNbFZh8vozIxRp-2" target="P8JZlvMNbFZh8vozIxRp-3">
          <mxGeometry relative="1" as="geometry" />
        </mxCell>
        <mxCell id="P8JZlvMNbFZh8vozIxRp-2" value="for model_name in models_names:" style="rounded=1;whiteSpace=wrap;html=1;" vertex="1" parent="WIyWlLk6GJQsqaUBKTNV-1">
          <mxGeometry x="1010" y="270" width="120" height="60" as="geometry" />
        </mxCell>
        <mxCell id="P8JZlvMNbFZh8vozIxRp-9" style="edgeStyle=orthogonalEdgeStyle;rounded=0;orthogonalLoop=1;jettySize=auto;html=1;exitX=0.5;exitY=1;exitDx=0;exitDy=0;entryX=0.5;entryY=0;entryDx=0;entryDy=0;" edge="1" parent="WIyWlLk6GJQsqaUBKTNV-1" source="P8JZlvMNbFZh8vozIxRp-3" target="P8JZlvMNbFZh8vozIxRp-4">
          <mxGeometry relative="1" as="geometry" />
        </mxCell>
        <mxCell id="P8JZlvMNbFZh8vozIxRp-3" value="for vagon_type in vagon_types:" style="rounded=1;whiteSpace=wrap;html=1;" vertex="1" parent="WIyWlLk6GJQsqaUBKTNV-1">
          <mxGeometry x="1080" y="370" width="120" height="60" as="geometry" />
        </mxCell>
        <mxCell id="P8JZlvMNbFZh8vozIxRp-12" style="edgeStyle=orthogonalEdgeStyle;rounded=0;orthogonalLoop=1;jettySize=auto;html=1;exitX=0.5;exitY=1;exitDx=0;exitDy=0;entryX=0.5;entryY=0;entryDx=0;entryDy=0;" edge="1" parent="WIyWlLk6GJQsqaUBKTNV-1" source="P8JZlvMNbFZh8vozIxRp-4" target="P8JZlvMNbFZh8vozIxRp-11">
          <mxGeometry relative="1" as="geometry" />
        </mxCell>
        <mxCell id="P8JZlvMNbFZh8vozIxRp-4" value="for v_km_h in v_km_h_list :" style="rounded=1;whiteSpace=wrap;html=1;" vertex="1" parent="WIyWlLk6GJQsqaUBKTNV-1">
          <mxGeometry x="1140" y="480" width="120" height="60" as="geometry" />
        </mxCell>
        <mxCell id="P8JZlvMNbFZh8vozIxRp-7" style="edgeStyle=orthogonalEdgeStyle;rounded=0;orthogonalLoop=1;jettySize=auto;html=1;exitX=0.5;exitY=1;exitDx=0;exitDy=0;entryX=0.5;entryY=0;entryDx=0;entryDy=0;" edge="1" parent="WIyWlLk6GJQsqaUBKTNV-1" source="P8JZlvMNbFZh8vozIxRp-5" target="P8JZlvMNbFZh8vozIxRp-2">
          <mxGeometry relative="1" as="geometry" />
        </mxCell>
        <mxCell id="P8JZlvMNbFZh8vozIxRp-5" value="данные из массивов lines, pod_sos, trains для Year" style="rounded=1;whiteSpace=wrap;html=1;" vertex="1" parent="WIyWlLk6GJQsqaUBKTNV-1">
          <mxGeometry x="1010" y="170" width="120" height="60" as="geometry" />
        </mxCell>
        <mxCell id="P8JZlvMNbFZh8vozIxRp-14" style="edgeStyle=orthogonalEdgeStyle;rounded=0;orthogonalLoop=1;jettySize=auto;html=1;exitX=0.5;exitY=1;exitDx=0;exitDy=0;entryX=0.5;entryY=0;entryDx=0;entryDy=0;" edge="1" parent="WIyWlLk6GJQsqaUBKTNV-1" source="P8JZlvMNbFZh8vozIxRp-11" target="P8JZlvMNbFZh8vozIxRp-13">
          <mxGeometry relative="1" as="geometry" />
        </mxCell>
        <mxCell id="P8JZlvMNbFZh8vozIxRp-11" value="for line in lines:" style="rounded=1;whiteSpace=wrap;html=1;" vertex="1" parent="WIyWlLk6GJQsqaUBKTNV-1">
          <mxGeometry x="1200" y="580" width="120" height="60" as="geometry" />
        </mxCell>
        <mxCell id="P8JZlvMNbFZh8vozIxRp-16" style="edgeStyle=orthogonalEdgeStyle;rounded=0;orthogonalLoop=1;jettySize=auto;html=1;exitX=0.5;exitY=1;exitDx=0;exitDy=0;" edge="1" parent="WIyWlLk6GJQsqaUBKTNV-1" source="P8JZlvMNbFZh8vozIxRp-13" target="P8JZlvMNbFZh8vozIxRp-15">
          <mxGeometry relative="1" as="geometry" />
        </mxCell>
        <mxCell id="P8JZlvMNbFZh8vozIxRp-31" value="" style="edgeStyle=orthogonalEdgeStyle;rounded=0;orthogonalLoop=1;jettySize=auto;html=1;" edge="1" parent="WIyWlLk6GJQsqaUBKTNV-1" source="P8JZlvMNbFZh8vozIxRp-13" target="P8JZlvMNbFZh8vozIxRp-15">
          <mxGeometry relative="1" as="geometry" />
        </mxCell>
        <mxCell id="P8JZlvMNbFZh8vozIxRp-13" value="Запрос в ML_model_name" style="rounded=1;whiteSpace=wrap;html=1;" vertex="1" parent="WIyWlLk6GJQsqaUBKTNV-1">
          <mxGeometry x="1250" y="1010" width="120" height="60" as="geometry" />
        </mxCell>
        <mxCell id="P8JZlvMNbFZh8vozIxRp-18" style="edgeStyle=orthogonalEdgeStyle;rounded=0;orthogonalLoop=1;jettySize=auto;html=1;exitX=0.5;exitY=1;exitDx=0;exitDy=0;entryX=0.5;entryY=0;entryDx=0;entryDy=0;" edge="1" parent="WIyWlLk6GJQsqaUBKTNV-1" source="P8JZlvMNbFZh8vozIxRp-15" target="P8JZlvMNbFZh8vozIxRp-17">
          <mxGeometry relative="1" as="geometry" />
        </mxCell>
        <mxCell id="P8JZlvMNbFZh8vozIxRp-15" value="ответ_маcсив_&lt;br&gt;model_name для всех колёс" style="rounded=1;whiteSpace=wrap;html=1;" vertex="1" parent="WIyWlLk6GJQsqaUBKTNV-1">
          <mxGeometry x="1250" y="1100" width="120" height="60" as="geometry" />
        </mxCell>
        <mxCell id="P8JZlvMNbFZh8vozIxRp-28" value="" style="edgeStyle=orthogonalEdgeStyle;rounded=0;orthogonalLoop=1;jettySize=auto;html=1;" edge="1" parent="WIyWlLk6GJQsqaUBKTNV-1" source="P8JZlvMNbFZh8vozIxRp-17" target="P8JZlvMNbFZh8vozIxRp-27">
          <mxGeometry relative="1" as="geometry" />
        </mxCell>
        <mxCell id="P8JZlvMNbFZh8vozIxRp-17" value="приведение ответ_маcсив_&lt;br style=&quot;border-color: var(--border-color);&quot;&gt;model_name в правое и левое колесо" style="rounded=1;whiteSpace=wrap;html=1;labelPosition=center;verticalLabelPosition=middle;align=center;verticalAlign=middle;" vertex="1" parent="WIyWlLk6GJQsqaUBKTNV-1">
          <mxGeometry x="1241" y="1190" width="159" height="80" as="geometry" />
        </mxCell>
        <mxCell id="P8JZlvMNbFZh8vozIxRp-20" value="" style="shape=image;verticalLabelPosition=bottom;labelBackgroundColor=default;verticalAlign=top;aspect=fixed;imageAspect=0;image=data:image/png,iVBORw0KGgoAAAANSUhEUgAAAUMAAACQCAMAAAClMPkAAAAAAXNSR0IArs4c6QAAAARnQU1BAACxjwv8YQUAAABpUExURQAAAAAAAAAAAAAAAAAAAAAAAAAAAAAAAAAAAAAAAAAAAAAAAAAAAAAAAAAAAAAAAAAAAAAAAAAAAAAAAAAAAAAAAAAAAAAAAAAAAAAAAAAAAAAAAAAAAAAAAAAAAAAAAAAAAAAAAAAAACds8o0AAAAidFJOUwAMGBkkJTE9PklKTFZYY2Rxc3+MjZmaoaitt7u8xcrZ3eyOCXRfAAAACXBIWXMAABcRAAAXEQHKJvM/AAAIRUlEQVR4Xu2djXqiOhCGS6m4LfV02aOl67Eq3P9FnskkaH5mAhJYW3be51nLIsXwJTOZZBL7IAiCIAiCIExK2bZtDf++DqZg34iyPX1uzbEwjuqcmyNhLKJhOqJhOtUhM0fCWGrRMBnRMJ26NgfCWLKDaJiKaJiOaJhOfq7MkTAW0TAd0TCd/FyaI2EsRRNouH5+VmH347P+KfRBaFg0rbLvbNtu9AkhTnEqzNGF/Nzi+E9mIwZSNoGG5eE3nqyltxkGoWFVl8qYs4P0NsMowynYusrPYMaElQsk4TS2an81tE5CXYEk1FC1P2XMlQykBxJqWIIdgzE/HqRLGUgYwGD7q5sXGcAMJUgFZNj+yvbjKO5wIIGG+VF1x9lBx9nCAIJ0igkYq1a6lIEE09jFqd2qBkiMowUaSQWko3sQIQWZxk5HNExHNExH0inpmBAme44zehZM3fjRHHtk6/UyonijYdGY9eQMIwOgH6fm5+sRszMhRbOQsKqbaK2UUm9PBMX7eA0rNebJz+FUuaJqF+JGulQAjI/bln5Wpe9IDVdr9VqTYuXnpczxXtIp+RlEpKcZ4K0kq1OT4iHlYgbk1wl/tdeH8Vxp8w+YnAmhW+d3xJrGRpdIPldak0GnGMAo+x2xNESXSPqopB605OplMcG9nU5hXWK2pjubIRQNveCEdpLfEiedEnGJYyka+n5zmrJ6Cgdzfi7cVIByib3tI/t5KnTZLMx7D/keZ3A72OF4NaMpmyJdMefnwtWQd4lXigasU5fNwrz58PBytI1X3/7tTf/vSnZYjin76RR0idEOpGx68n1QD5cmVjT73W73QS3Pm8+U/zRBKqDPJRZNTzNFETvNur3lgYaLGecBYTol7hItfXj6dc4OvTXxfQjTKXGXWA7KOtd9HcbsUzbZFts/Mnd1Ef0mToMxj2g3w0gxexuiPc7D++hSKBuYyk/W7blQ00717GsNqNgDXSJtsa44bDH7LN6bsgGvaW4w4cKA2tyKC1Cng4zfVE9Au0T3Gfli9mjhjb/h88zHTdfVQDXqQs2/1oBMp6BLpCzgUjAkUswy7oTcKZvs8Lu7U93jA4YDQdrc2nXQtcS5RLdgkWJCHB4Job1xHjTjSldZdqBqbhQ9tTglTEtnXGLpmHikmPFW4E3ZlG1pNJ+wuza1snU+6SaytU7HXeCql1u3TrtEV7VIMV2j9/GmbKqmgOuVesw02Ri0r065IQ7ZLFjLInZWILRLNKoZIsU0mtB44zyMtyusHXq2dgwgwHG326cY9OB2yGkID9qnYbSYXZdN4U3Z5Ge4FD6u1GpOA9zvAwbq4SPMAL9/AlxiIIMTCEaLGdHQn7LByAgbLqo5Ddrr/JmFgeGuAAM8VPiWo2FYzKfrmxEN/Y5DOwNlzBOGw7qk2ftk/jUCq2FF+VBHw6CYtmeMaOjH0TomVMY8XZcCLSC5OvL9p8Oe89Xc1lB4JKIQlaVhWMxqvzJHMQ19p2diQmXMbIXeTDy2GsbgfpnREH6f0kD3nppoMdG90fh51s4JVu3xP6ZCb8cLXa9d7OOjWn+1wk5WnV3ja6EvKMZ9fLCzQlMTzhCwi+YVU+26v1ZUxJb81HxnwNDyefu/FbuyFS/N8fX5+b39lWW/2mq7P+L7L80Zirxp4RUvgPfN9TdBa0g6Q8AewvnFVIUzh7FGGqyy6WJCkD3d/gxwL/e5tMPAj9LPgNag+0Ps4/CCkbEV+WVftDMELGmCYjoBMj9e9k35GulwFXc7qyO4r+PVOTsaat+BVYkawsVpGpIBFCjlyXPhMkEdFtOZc6n4O7hCqfs0P/BwQKZmNIGGWHXq6fP9mzoBFxRPv0ZNk5EaMs5QEUkFOLdikwF3WmUTaIh1CUXO9yWeyA7H138+Ti949W1Qu1NggMJWB7ccE7ADZP6yO62yIdoh2vJ/+1Kf0BeMWr9Cp1Mij8lnm+wAmW2u90rNBxqiPYBP35gT5oIxvVqoYdhXOPBOCwuogXswZblXal67EJRIBwZY4/osamg0HdcO/YeNOEOEzZRAl1KZCuGzKXOusomgUofbbNOoXhB6zGa3V+tZsvcWAkL1WqmXz8+WHc7FCDSMOUNEt38C+E2jT8GuJrmXKduoZvfI7PYYhZ8KAGfINaEOEJFuS52RbvgFObOn5geg/eGEeBr2OEMNGIYbGDpAwOcsnnP4CqtsJq9HL53CDhVedjoO1mSvvNAZtysKmHCeejTQApoxUSCPmwrgneE0a/jTlsZPxNPT05Te0NMQeizmGflg5SaWs5vCxk6ngFCcqcVT7kNZzsYoB3vmODJvMs2Uypcw5emxNLzGdwEQ8UzRgha0m8LmmgoAZ9ieTPbF49ROsg7yTlM2s3PVsFs5zTCBhnca583OJRWAe/UipDehrzDOm4WLhj3NcAINl7SbwkH+dkoyZCpAuAnRMB0vnWKtObLJ8EsZBBo3FcAsGdostTOYBldDe83RhdXxNEGnvGD6v6iq+FgtdXwxEbaGzpojG9Ewip0K6NYcrXCNmQZtWzSM4qQCTILYHvWhqKJhFEdDbp+XaBjFTgWw8bZoGMXWsFtzJP7wNux0Shdhiz+8DSedwk3viYYUq/1WH9gaWmuOXBY78ZfA6v26bd1Sh8lJbT+VUX8GX/LzV7Npfq67lUnO7hRpbDdRm4bI7E4RBlA0ei5GUgEJQACjIhnRMAG9BUVSAUlgQxQNk4CGeM7lb6ekocJB8kuWhMGo1YaFaJgGNMR/e9MpQhRoiH17UYQ+INAWDVPpRnzCeKZZqf6Xs9AF0n+UjP0aMEEQBEEQBEEQBEEQBEEQhO/Pw8P/7brloP84C1wAAAAASUVORK5CYII=;" vertex="1" parent="WIyWlLk6GJQsqaUBKTNV-1">
          <mxGeometry x="1410" y="1193.6699999999998" width="163" height="72.67" as="geometry" />
        </mxCell>
        <mxCell id="P8JZlvMNbFZh8vozIxRp-24" value="" style="shape=image;verticalLabelPosition=bottom;labelBackgroundColor=default;verticalAlign=top;aspect=fixed;imageAspect=0;image=data:image/png,iVBORw0KGgoAAAANSUhEUgAAA84AAAC1CAMAAAC5xlb1AAAAAXNSR0IArs4c6QAAAARnQU1BAACxjwv8YQUAAAB1UExURQAAAAAAAAAAAAAAAAAAAAAAAAAAAAAAAAAAAAAAAAAAAAAAAAAAAAAAAAAAAAAAAAAAAAAAAAAAAAAAAAAAAAAAAAAAAAAAAAAAAAAAAAAAAAAAAAAAAAAAAAAAAAAAAAAAAAAAAAAAAAAAAAAAAAAAAAAAAHlZfVgAAAAmdFJOUwAMGBkkJTE9PklKTFZYY2RvcXN9f4uMjZmaoaiprbe7vMXK2d3sH/+mOwAAAAlwSFlzAAAXEQAAFxEByibzPwAAF4tJREFUeF7tnW1jm7jShk18oD1h/eSEdZeatl6vY/j/P/GZFwlmBr+kbtJs4vv6kCCkGY1GGiQwlhcAAAAAAAAAAAAAAAAAAAAAAAAAAOD9UOz6VToEALxvKJzrdAgAAAAAAAAAb0ax+bTph2FbLhb1wNTLA//rOK+lnL4t6AZGszr511BWyUKbmdBMxVRwDlXccBX9A6fGygRJsVH2mLXvtEBFpwa+qZrEtG6hcbqDUdqIobfac72uWbGqxeopl5zqYmeYjGM4+40hyauMaDFqgo1X1TyVJFx3nnH9sXaHvha8hwmjY44T9M0WOeboHfLdf7/806bjn2n7zVLs+vtFsR76ivrtMByo1woaTPw0cXmgk+R8HgqrfujIccudlFjUT6vjQlRcCjSqwhaMdDxIvpSsgGqwlfFQom5aqZg5pqJJE9Umo86INWSgJOnI6w5G0TilQZWMcvX6Zkn+VFWx25c0+pKYShRrUW8y5hj7o3ca1tEkQafG2Xhlzdp4iYLQnWdcP2/35JTTHvY65pR7DsBu2C05ZZq93A+7kjJSnYGOAtbG+U94/UYpdjLH7eSC12l31MOB3d5Id2oiFUglKnnamHrPC6VUpylXMMKnebzQ0K1dZTQ4uLyK2eNF949qWm6f1B4jtiZJHWzFn4XTHYyiPJLVv65e36xYVacDp1ElSeXySxEyIt5+Z8ii4plHLQj6nY1X1pxLJqeG7jzh+lm7jVPOeNjrmFNLO1SzbXYt4Zgz5mRPJZ7f9huFOob+0vrP+Dv1St2z26te+s+Fc6Mu1AusF9LUw1dNuYKRrJNkdoWtjMrzEFID7PGie5DRtKh/JFknlgcb4XQHozQvNdkq8M0KVVU9D7/oKiJkRLz9zhAXzl6NtfHamnPJM91JRYLrZ+0OXXjCw6EfZpwKZzeE5lAlLuf5bb9lyt3AHs7eMhfZu0e6OyKH586TEpRImL6w4Vw9aMoXjIwDItc3VTYVt8ekvW6ktvZTliWyGDEfbKLbGaV5dHOg44FICkKzQlWaIlQwtZoIGYFgvzPEhbNXY228suaxZK6NiN05cz0J+XZ7p5z0MGP6YUbD17RsuWm2Wz3NideH57f9dqEL3P5ejuh2SUkdVG779j5fzn/QIKMOIy8uD+P4ILwQO5xmfO1jXzASBsRU2ThkCHtM2uuqp7LV97ssa8SIM+E8GpVGaL9Oo2BUEJoVqhpHki7vpoEVMgLBfmeIC2evxtp4Zc1jfq7Nd+dx15OQb3fswpPh7PphxqlwXqz6fmWaFJBCND4ZLv78tt8yd+2w50c0vv+LdmiLfIF86Gl0be+lxHyIEkmIUw9VSvmCETcgbGXUf7JAZewxaa+pgmbRNFnW2XhysDmjNG98zDQpCM0KVaVmssYTA0szAsF+Z8jxcBY11sYrax7zc7ONq5x7vA9Du2MXnvBw6IdI8Z3PZ3ttsxd01SBykzzZhHPhfKLtt41bx6X+15TvIjlHXk5DtKasmVAtHw5xyheMmAGxo3XlVBlliMrF4nNlj0l7TUUO5WaZZYONxwYbNcwZlfPsXCcK6LxtVqhqXNTVIqFyTMgIkHQ6K/Y7Q0I4WzXWxitrHkse6c6knvO866mYbzf9dV142sN0OPZDZLnRJqqZLpzZupwRmembCl5q+23j1nHa/2le8S7VEp1+3rIoNlGIUn+vbcoUjIwDohkaX1n+4ILF7DGPNTrxrc2y0cbxwOqORqU8eajqFPhmharq/JGJPtuaBlbIiHj7nSFuXHs11sZra84lj3SndU/wYWx36MLjHo79EGmkaLbcNlsuD1OTPDnkR57f9hvlId81c5ef7v8E9SGXqPqBv+dStNwvTigpyilXMELKUo8elr6yLLamUWCPZaxJR6bBFG3UJyuE1R2NSrLyUNUp8M0KVZES0Vjs5N84O8SMiLffGaLPe/OYdWqsjdfWTNmnutO6J/gwtts5RZJc2qvwyucs96o6BaNptlYyRamHV/3155Rgnt/2W6Xh931Wcq0r0xshP/S9A7kur7Y0ou7l+kxUWmJR0500sadh4oUoJb2UVNiCM6gr+Yar3OuQtZUlMekpc1weaG4rdjR+aFRJZrCxEY1RdzCKZGkIrXp5mu8UuGbFqnj8lotyJ20hlePIdRlznP3GkO5QtuR0Sqgmp8bZeGXNVNL0jGspCZ5w/bzdvguPezj2g0dfIuFC+9I3m265KZBtkyw8c6/0pTPlJ7x+s5Rb6qwtTdJ0TSamNzSLDZ3nm1d5TEZwDxLcNywkL9h5oajCFJxD6tZruvbLK6ChMhZ7elSx8Zi1U3fSxV2fpvOosGJardRrdQej8pN4bnKs1zUrVLUoHp+yUapSB6nLOIazfzKEZl4aqqpeNBk13sbrag7Ndi217nEZx9ptuvCEh72OCF0BJhrb7L/ogrPMhqbShuU+f+SiPL/t4PdDnZ+75sV5Td0fgBdwz/NVNP1Dirm7xx698lFBOL8ZvzecTTl7/NGQtYMlnb8REM5vxm8N5z/M3e3yj3TwAUlBPJHO3wgI5zfjt4YzuAnue3ny+iq8pu4PwAu4Bx4GBvOQ9MV5Td0fgBdwDzwMAAAAAAAA+J0UrdyDCAe8rgbA+6YbDtV/CPN2OQDgfZK/TVLh/TcA3hJ9J5yhUJwS8vn6mQ2mLeOn8bpjIgDgrbAb/6bvgdGime+Bz2ww7VjqN0UBAG9OWirzxr8UwhrOfObsBtOW/E12AMBb4/ZRMOF8doNpS9qLotUVNwDg7XDhPO0+StNy4lI4q4IaK24A3pwT4Rx3Jz4J3Trvv37dvtSKO71Ki4+8ALgCG85mM+Fx+9JLVP3w7evXbyYA//MroYhwBuB6bDibzYRpsZ1Wz8c2mDbok7BiN2rBshuAt8KGs91MWHY2JNLuxCfRd8GKzRjDTf5JXwDAb8a8muk2E6ZFtN2d+BTY0gGAfw1m41+3mTAtmt3uxKeIL5Hc/fe/z7vnBgC8MGbjX7+ZMJ0wuxOfJr5EUqwxWwPw5ly3mfDs1yybZz4RBwC8HldtJky3zuEzpe6FPoAGAFzPNZsJl3tamLtfATGfWAEA3jf40jMAHwa8RALAhwFPwgD4MHSH5Uf+US4Abol6+vlaAMA758JrJwAAAAAAAAAAAPht5K+PFJv0pbDV0/idkWmrM30yZ/cML1o61i9ly+H5r5kYybAP+XSq1j1UumLziUuzbs5Ir79WdMp+Gl/3+DAPgEh5kC0W2r/2/WeO4H3Jv5iVYqXhl03zPqR2z/CKw3clx7KDEkX+mfdS3W7jbh9yhaRlm4dmGKjgrr/PpadvnnZhrySEMwBHkK0XdEckSmiQ5K94VbztQto02O4Zvjxw8OqxZp/bKDzsNm42Ls6kVMdKil0qLcX+0Zzl9gmf3QFwEQml9NZK1esUSOteOWHD2e4Z3ui6t+4pX/6Q5OnZMuw2fjKcH75KOP/JtSULugfdPbH+gQ1bALgMh9IqbZfS5CBLuyWZcKbpMtFXtB72sXv32OdV8Rwryelp4+IRSVUP0xRf7gauetHValL7CeEMwGXornR8KjUGWVptm3C2e4aHDYfLbd/en56d427jJ8KZZuUczjQ17+81o656Old9v0M4A3AZCqW8tp6CrJ7NzjaEqbwstoWiHdri3GI7BL/Zh3yEUw+VuQG/a/Ub4F1NeQ3dC6R7aQDAOTiU6rQOHnckrTXa/GI7hXBNi+0cjJ+rFJhnwtlK0h+zD/kIpeoHrnWax9UUCmeansvNEuEMwDPgwKJgkTiu82e76VmXfRRm9wzvUvjTcZqpzz0K87uN233IM93w95r+2XDW5T6FM2V+a9lChDMAl5BpsOo1ftP0XOzknz6ETuFs9wzPx+smL7zPhbPbbdztQ56RT6hSOD+ku+YxnOUag3AG4DLpNZI0g/I0XS7KHT/p7g5lS9FU/EhTsd0zPB1znIvkakuF7svPvT6QDhhJvw853XezCrKB/1FNA4V9w6+PrWSdUB5o0i52FNh0SZAiKrBYrAf5MBsAMKEvWMokq/Hy+DQMT48cMs3Q0/2sPPjWmdHuGc7HWqzYDMOWb6cpPiluj0bZKBn3IZfo9C95aulhS5M0Z9ClhNYIagWpzuHcDmZhDgB4FWR9fpLr9iE/TntydQ8AeBHOB9lV+5AfJ7+XCgB4HYqW1udnuGYf8uMUXzA5A/Ca3H+RT6Ren+JR7tsBAAAAAAAAAAAAAAAAAAAAAAAAAAAAAAAAAAAAAAAAAAAAAAAAAAAAAAAAAAAAAAAAAAAAAAAAAAAAAAAAAAAAAAAAAAAAAAAAAAB+nnpgmkWxGXr5/fPV0zD0rfx4crGTTKZJBevlgf/90Jy6k38NlS03/TBs9Nedi5aOt3ysQkKjZYdeMghTUeCMTc4k4ly1ydZOUwf+ofhkr2Y0i4b+diJrMUZrtijW+j9t+oaT/ZFfpY8N9HhJo9IabhNsxk4LVHRqqJ2UMbJxqn3bo1Gu3tF5R6oiRq8fzzYYY7JDbe9aW609wdTlftgv00np/H0ZSji9nHfWqpukPAwHcm37177/TN2925fU5ymMFg27sNEURRIX5BhYkVv7oSNfLtPJ+mm1KNZasGJ3r+S4oTLLgx6x06mXUqFQkeecTdakU9VmBQUNHrKVU6kaslcKUCNYT9ffy2kPlZehQwOGpLUB1Ho61/H4/1KOJTyugQEvaVR6w22CiiZN1AweuFbKeHbwRvl+8ka5eo3zZlV5rx/J9qSqs8ecMFHu+drbDTu6pFp7vKnL/f5/myJX1v65p3+UMB3p9V606iYhL9PIID9KQh3U6GS2qFpJqK867bJO8qgnZHrUk1XP10YdJ8sDn9HjNZXUQVf8WahIEgwVBc7YZE06VW02i4ZXmpTH3s6HNILqRXV8Ig3SWpkmWL/WfGQ2cA2MOEmr0hnuEt0/asdy+yQqrZT17J03yvWTN8pqsM6bVUVnrNfn2QHvsVnv1iykZZw93lSiIZuki6SbCa/Y671o1S0iDmvUHVXP3c0DRf1zJJwfvoovU3+kk412h0yajQ70uk8dooOOUBFVHSsKnLHJmnS62jAKNMXkxtC5w6etGjbDS6vKqudm5GZTkaTHYBs4w0lalc5wl+ge1HU13duwrJVismeDUWp96idvlKvXOG9WVfD6LDviPTbr3Vk4pxxvKsG92/BJjmvGKQ56L1p1i7DDVnTTwognmTRa5+FcPahn8xCSk5RI9FWxExdP+HCmZRNrixUFzthkTDpTrRsFOcWM4UxDQqanY3hp5u6Rbk2pgtxsmzdiGzhjJplUOsN9K7pa295+yrKTIcwsnFW1WJ/7aW7UWG/ynaibVeW9fswSh/dY6DI6wZ7WMs4eb6rkrguWXmVzneKg96JVtwjdePCjh3Sc/HVkZSuZtGZWz1Kv/CgWBQ0NklgecneY6M3YcObBsx77kRnXY44zNhmTzlQrChgpoal/HklmDGe61OtMeAQ3hohy27f3fnaeRuCEbeCMIDmqdIb7VnR11VPZ6jutplV2MoTJpYNq10/RKFOvbcCsKu/1uSUB77HQZfTfhfNkjzeVueenWpSfHzW6jgx6L1p1i5CPxkXR6K9aR/0snB+q3GUP5Pd+ey8SdhSSLh8lY6aMuvQQJFYUOGOTC+eT1SYhO7xooJCQC+dJ3OOli3Zo6WbuWeE8NnCGkzQqneG+FV1NljR005FkrSHMmXCe+skZ5erNaphYVXYB6ySHzbIjR/ytafF28Z2r0rPOHm8qQXFa0pRLhZIGpzjovWjVLcI+qtMQHNdktTouhnNNF83J94x4mNyZRmFNq97s8886XHw4pytrrChwxiZj0plqU8e74VXz068xnJfflqPmyDHpWTjPZW0DZzhJo9IZ7ltBw5Wmn3KzTLLWEOZIOLNRVMz0U8pM85mrd3TevCoqmdonXp9lR1RxrjP2rj7U1DLRHjek5HLGK+ixkU5x0HvRqluEHUb+EEfJiGfSI5kQzn+v6d/oe0Hd3ekHDotiw5GaBhkdM2PPJKdLmMaKAmdssiadrtaNgpSS+T43hicMOiGlZjjpNGNqM8aB0xwZQLaBM6ykU+kM9wkq1A3f2iTrpJh8FIzy/WSNCvVOzotVcXkpmrw+y454f8fe1YeaWsbaQ6f8kJJ4lRviHLlOcdB70apbRByXbySTF4udOlOeSE7hnPoq+Z4hR7K7eeG6olRLsZaP18nD4z1qcnp6lOorCpyxyZp0ulo/vDQlgyEpW7RcjM4kIz1OOoazyPs7z4RrYMRKOpXOcJfg4SpGq+Ij4SwnolG+n6xRR+tl58Wq+IzqVK/PswPe3154sdyLwVrG2hNMTQ0Kne870uq9aNUNkj6oT9dqcsyuXJQ7fqrcHcqWHFb80OFJBdmJlNRXBYRKpRe1PsGQh9HpWDxONAPfrxHUQ+T0VT/w+LEVzThpUzDpZLX57QO1lVI0JujeueMBzZLFWuSXe9uWES+tZqy2JHhfki3cmpJfcZjhGhhxklal95dJlAeauYodjWNSzCecFJE9640K/eSMOlYvO29WlSgdO+hItid4zAmnl0i48j2VsfYEU1lqfI1EOz8o9novWXWD0NWNaHicq2sfn4bhiZ8B8wWU7mv00WJ4yVOumOJdhnur3A7Ty4N0rCpkSmFIID+j3OqLWKaiyGmbvEnE8Wq9rZqSirMkBQJd1GkUELOBEFtabEiWb875jaTdsF7TtJbeK3WEBgacpFXp/TUl2Awa17QaUcU0CTmpybNOdbDeGzWvV5w3r4rLjl4/mm2JHrPC4uuR/JKn2BPEtFP0ZCOdk7rOKDZ6L1oFwAUoEnSq+Wmul7zIK6p+AZr+gaOPuHvs/8V2gtsD4fzTpJf7BHsMwFuDcP5p/uD73MTyj3QAwL8AhDMAH4b7Xp60XsH1khd5RdUAfFimh8k/y/WSF3lF1QAAAAAAAADwb4Jfa5Fnk/KeEt5XA+Bd85CDuMUzSgDeOTQ/6zunHT5BBOB9U3z/v14+aUjfJQMAvFt4uyP+Vtiixo0zAO+chr+zx8tsrLUBeO909WJ5oIlZ90gDALxfln8v+WlYvahkmwUAwPul+k53zFXfLeqXefM2vcaL+3AAfj/yrW7+BQTezOwFQDgD8FakO+Zm+AsfUwHwzpFbZ5lTMZ8C8M7Jd8z8Cx0AgPdMuU/7MldPWGsD8J4peK9q2eJ/UXzBx1QAAAAAAAAAAAAAAAAAAAAAAAAAAAAAAAAAAADwwSjafhi2ebf+1dMw9K1+UXPMqWU7BKFJp6UM/3wH0WfpckM5m/nG/yrfNfKvSf+8UgDAr1NxYK4G2Rd4Uez2JYWrpqacpisWywOfbDo9KHbyE6RVT6FYrJN0/bSaEo5yL2dJin/lozzwP6cUAPDrLA8cSyk6F52GYsPf8TI56yUXlID8s2hkl4VavgZGuTxd68//Vz3vjZRVeVSIpnOthv85pXwWAPBrNPprOnXPX7quet0PZXmg+HQ5OfKIXFQCUQJZipMq/Z5nc2x6PhLOzKgUAPDL8IaD6ZBocph1wy79LseIi7y7xz6vnmmxTaUpVuk4cSREEc4AvDo+nsYwo9V2FSLNlCy3fXufZ2cO3zWH6vKgs/NREM4AvDq0TjabAY9hVg+70uWYyCvaoS3sYjs9/TobmghnAF4discUWZ8prnTVTNRD53NM5Gks2ntnnsyXfJziv56HKMIZgNenS3e6xYZWynX+mWl+DOZycvxyBEoZF861FO3kU6hRwHEinLNSAMALUPVDv6IQXHNYUpxJ1BU7+udzOCmhfiyc9WF2FmjTzqSWpHgezun6AQB4AepenkZLtHF47spFuZOfvnM5FLJ8y0zIJLzaUgTflxSOFM6rfpAITgIs/DmdStCNeArn9E/n8VEp3Y+nagAAv0C5HYanxxRMxePTlDI5NCczPKkWm2HYVhT4+zK95Dls77mMCugbohTZ8lKJYt7nHKHLgFGKcAbg30yti3QAwPunxUMuAD4GRfuQjgAA75v7L/OvSQIAAAAAAAAAAAAAAAAAAAAAAAAAAAAAAAC8GovF/wNp/lc0yZPXJQAAAABJRU5ErkJggg==;" vertex="1" parent="WIyWlLk6GJQsqaUBKTNV-1">
          <mxGeometry x="1573" y="1190" width="504" height="93.66" as="geometry" />
        </mxCell>
        <mxCell id="P8JZlvMNbFZh8vozIxRp-30" style="edgeStyle=orthogonalEdgeStyle;rounded=0;orthogonalLoop=1;jettySize=auto;html=1;exitX=0.5;exitY=1;exitDx=0;exitDy=0;entryX=0.5;entryY=0;entryDx=0;entryDy=0;" edge="1" parent="WIyWlLk6GJQsqaUBKTNV-1" source="P8JZlvMNbFZh8vozIxRp-27" target="P8JZlvMNbFZh8vozIxRp-29">
          <mxGeometry relative="1" as="geometry" />
        </mxCell>
        <mxCell id="P8JZlvMNbFZh8vozIxRp-27" value="масcив_&lt;br style=&quot;border-color: var(--border-color);&quot;&gt;model_name_&lt;br&gt;правое(левое)_колесо" style="rounded=1;whiteSpace=wrap;html=1;labelPosition=center;verticalLabelPosition=middle;align=center;verticalAlign=middle;" vertex="1" parent="WIyWlLk6GJQsqaUBKTNV-1">
          <mxGeometry x="1240" y="1310" width="159" height="80" as="geometry" />
        </mxCell>
        <mxCell id="P8JZlvMNbFZh8vozIxRp-29" value="for v_km_h in v_km_h_list :" style="rounded=1;whiteSpace=wrap;html=1;" vertex="1" parent="WIyWlLk6GJQsqaUBKTNV-1">
          <mxGeometry x="1200" y="1430" width="120" height="60" as="geometry" />
        </mxCell>
        <mxCell id="P8JZlvMNbFZh8vozIxRp-37" value="" style="shape=image;verticalLabelPosition=bottom;labelBackgroundColor=default;verticalAlign=top;aspect=fixed;imageAspect=0;image=data:image/png,iVBORw0KGgoAAAANSUhEUgAAA84AAAHDCAMAAADCyrOdAAAAAXNSR0IArs4c6QAAAARnQU1BAACxjwv8YQUAAADGUExURQAAAAAAAAAAAAAAAAAAAAAAAAAAAAAAAAAAAAAAAAAAAAAAAAAAAAAAAAAAAAAAAAAAAAAAAAAAAAAAAAAAAAAAAAAAAAAAAAAAAAAAAAAAAAAAAAAAAAAAAAAAAAAAAAAAAAAAAAAAAAAAAAAAAAAAAAA6AABmADoAADo6ADpmADqQAGYAAGY6AGZmAGaQAGa2AJA6AJBmAJCQAJC2AJDbALZmALaQALa2ALbbALb/ANuQANu2ANvbANv/AP+2AP/bAP//AJmzq3kAAAAldFJOUwAMGBkkJTE9PklKTFZYY2Rxc31/i4yNmZqhqKmtt7u8xcrZ3ezekEXBAAAACXBIWXMAABcRAAAXEQHKJvM/AABQqklEQVR4Xu2dCXfbNtOFrdiS662O436Olbepo1jM1qZN0iZdstn//099984MQICkZNnWSs5zjmUIBEBigEuAFInZchzHcRzHcRzHcRzHcRzHcRzHcZwNpX9ZkPEghIoTRvcuijP7HzgZjIeM2to6KQ4s4/On+4xIsu6P8P+8L+kcx1kqg/Hzx+Cn7RB6/INGF5fbDDxEzKh4is/9XM6S/Kmqv8x6UIwfHZ7rKcFxnOUSNZqEwPDyCTWriHyTBCZnfhuMMa6XW3oX/Lr1wEdnx1kBzXLevhwmX6fIeWuYhClnHdMdx1kBpWoT/WLOfJAoc6qcK6OzJiW986c+SDvOMmmW8xBSPolXwFPkPBhf9NKsB0VxhgiyfVlK23GcJWB3sR4yJHenKUzMtYNSyQQ5P3/85Hkx4gicZD1C0AT98CfL7zjOUjAlQrmQ7x7grSzRq93WCl/rci6ePS8uZT6dZN3qnY35s5fjOEunnCeXIVw27+7s7MTZ9gQ549tgLBfYZVbSO7MfuRzHWSpNcrYRW8ZsMlnOCOrvzqmcsxtijuMsjSY5nxSnnDvvjWzSbHLevlR56yxck1dvhSny65XjOEumQc7xJ6oDubkV5QyVyuz7QEZtS57/7ry9K5+Xch4YyBfHcZZFKmd7UrMU56XqOsgZk/Cnh3vneqfLUonkk6zPH+49fC6y9x+qHGfJpHLWC+aToN44aY4R/adMoE+HWEaRfMy6dczQ+Fi3+A1ux1lrdnYsMInezgMLOY7jOI7jOI7jOI7jOI7jOI7jOI7jOI7jOI7jOI7jOE5b2PElmZxFchCWM/BVgxYMV2YCvgTqgkmcu4Q3kLrDidUc+CuPiyQuAzN2Oy+URM624k6HgJxleZJzl/NC2b4sivPBzgB29sXWFsvu3t7huBgd7u11byIEOdt7z/p/99HjH2mFPmzRf/STLToSYhmvc/Le7p6uRnT4+JGseCBLFu0hMs/pKLCvTv2G4vqrZ+bapb3EVA/MsA8OH/8or6FGm1uCXdo1TxuM71TAyVNH5tRgic0Ni9Ge3WTvBtsDZOuhyD02k6RaH3I5ywoFBR1MDovhGYPsg2WsTBl1+SH9j2zgohdnOCdZTseAfezexIEYDqJWDhDkcB06oBr0KLV5TDBsTCtBJyPKOTVYYnNDDShJm+1dtz1BEx5QAcgnwTVCZRz+D4vRo0fPGWTdxwjlsTx86Zc0BGqHr+d7p5BuJucyp2OgQ1hn0FBVzrQfexUMOn4yEitGm1e7VJJWjS/lOgkwFi1ktjOD1eWMmGfP1JjN9k7DGiSqYWQ+QMm6n3Uhl3Of8wecd0SUOFAcOD7LWCS7/AX/UY3HkLXVJq2/VDPmdAw9lxOYCdZSk0m/kCBPj0gAgzJ+8ENq82qXKtOySN3qZMBYau7UYGop1aIACw6DGZvtnYZLQ2sRbNLjdfs9KJcz2dlXOVs9rA4ai2SXx6j+YIx/4wE2n+3s7JxKpbT+iQVC7Z0b5YyA9DgkS8Zas/mwGB/K3R3tUiFtZnwnA7ZRc6cGS2yuIJWMTNYyDfbObU/GD+MMm2eJtLnWgVzO9ttolLOOFmUsoi92x+PBCf8VB+h9Sl3OmtMxYv+yUNK1EBxcFj9Lr9LhgWQ2N0TOaVrF5VwjlXM0WGJzBRY8CHJutndu+xCyIrCTtbN9JmdUrXj6+ElFzkksoi8eXBQnw+KEPQ9/I1m1F6csl/M0YBxrefQF6SapnH8pLvu5nHObF8+fPcN1ncg5TVsa38lI5RwNlthcOWGbwNLYNsHeFdtvb/VHyGNF4J+kXycyOWtvkk/MMnTE5cw6xqLWQyT95VIm2idBwUL4kuSUeIegX2jLIwCDJ10LEbCY9ioYWa2W2NzSinnTtJnxnYzY+1KDVeUsndnkPMHeue0Z5ClAi0DG52OJWyMa5Iyg3Aq77PfweZLGol7yHRagMfAnY84DfoTuleR0IjTa6YOtgd5ktb4R5Rwu4fBZHGHiN0xsbmmtS2VpS+M7GTAWrSydMRossTnpQZlHOztokYtB2sdTe+e2RxAlycU4iqBi8Ldep1QeVPyPwy6eYmaBStEOBD0miUVQjKOfFz1UDJMRrZPWXy1IpK85ARhYEbskXQv2UnGyA9KgYJjY3NKKeWtpg/GdDBiLFpLOGA2W2Nw2RTjPbLJ3GkZ6WhshKUJ2gYLXq5tnct4ajHC8Zz+jUqjHQwwoIx5sGYuTmJyXWAdcRve29rlJXWNo/cUCMadToqYqzuUpoqRradAkKi7x6Se/tLklsC6Vpk2M72SI1hhIDZbYXDeVoGc32jsN6/mY1pYiVDAIrvXZ9IF5wpB6RKcXIbaB3k7lrb88p1MCU81glgdmzyk2j9SM78zMMAgRYoeIb7Y3jL2x1tbT0l24e07HWR5VObcal7PTbjol59Px6I6ivHtOx1keu4/Cu1D7P63VW1GO4ziO4ziO4ziO4ziO4ziO4ziO4ziO4zhrxgzPjM9Eb14F3cjAl3JYG3oX8soKWcVLKuLdZ/zM+4Oga+3M4a24uRU0A+xB+raUo/RH4yMLLptEzvpy23IJ7yO374Hzu7SpvT2Yv8w7t4LmRn5E6EHr9fbxytFVGVbDap2RQM5HXJpivd9fvQt3aNPexfgR/RzlxrhTQU8HW4NLWRZgAVSPqBOvi0bPHnTnUfqn2dp9+CN9fOgXof9wXJwjJsmR+6hZsBuV+Np5PADsLHdGkhx/2BSqE7aUsb39n346ZLbEOQn/pWUYtn6DrYwbM24NHoa0NX8+IQ0ikAKfD/Cpfn3KvVkYyCb+z2wYym8+Qm2zas6G8s3PDQ4iGEo+wJ3adMDcGFlTOd+9c8C285Wz7ak8oj4ao89DokHkmOxA6n1849HF+ORf4rtjW1fHyGaXOjW63E5yZD5qdEa6uLlwZRUJ/RqXjYDckuPXZAIvzTKvJAQHbHHoSrG8MjaUYWRyjhn7GFgA02KTHFz4Xxauh6kjhVgu3Vv5vqitg5HZsCy/+Qh14Zdqznr5egjhegXR4bzEBOQubYqcVoZwr4LmKmf1YhxWwOIR/YyayxI6XML8ZzkmtllTH9940BtCpyt9d/BC45CrAP0vsf8ZNo2f/Y+Lm5U5EMVVlNChEL1YNyraK4E0DHundF4DR5D4HtFkmJtjUogDyrySkBMe7vjJE1QxrOATBJCVYaAzymTb5GMZB+PzQ1wBWKT8Z69FYUnhKBEbRM5agbrcCHIgLT4TG5blNx9hKucyZ6380lLntt47Euse7t6mLDS10d0K6nFl/2Ku78xi16PDw6cn8YhCg4st5As3yKK79T6+8YjltbuVvjsQiTY44ZYEHWLSHLAOgmgrWeiMqcsOOnd0v0D2QeHgq+4PR4DjTXyPaDJsx2GhC9W8kkhjQguIywVQKcPQsaXgrZU0I9Fd1/z5lGnkU0rUpOne7GBCMchXs6FsaD7CRM5Jzlr5aimN0M948FaQxCO/fJmtTVEoN5XcpSBEg/OsnPuCXcPIFuIR4TAueWkiO9djwsFP6uMbj4we2jOA+u5orqrZh9awoSF2ncttfCzYjYr2FMC9opdIy+gRSJcWzPcIgZwHO0fj4AE9eiWRLoW6sEejQ8kEMToqIUkZBmo85kKNSJFm3HqwMxhJebk/nywN9lg8RImn+OPxp3vDJhB9odRsGMpvPkJph1rOvPxoKbUePq0I445timyVuDsVpPUfyR2BOYFd0Z7Ajkj6t/wXQ/KYZAsStlHO7A569ix9d+C7TESamx7/uYp2FJN0W0QqtaafF7C/mh57bXRGkvge0WTCGfJkXkmYIdaFXy2hTAUrZRgqnD4nmGlGHJF1xpo/n5iGRUqJ4IJ7TvcWwraea9WGsfzmI0Se0d4hrgCznHn5paXklIR55jzalAdmZ8nA3QpSo2qzzgnUU0d8OyI9DPuvX2QLDqyhj288aBpdiB31i747xCZVM5t9pIXSoS602ILdqKRybnJGkh6/JuO1M4fEdItmkF6Hf3LoEEBwTlItw1A5czf01RMz9k4fP9UuWvPnE9NIZl5C8o+xyd70YEpfKFUbxvKbj1DUTrKclfKjpXRZXz2GEh4u//NYZ25T7jg30D06B7bVRX4f+vYjmh2RNbj+1y+6pbGPbz6o4v/RolpJ+RyMx7v1X3jNPmKIZ9aL+Sk641lBNi6MRM7s4+gnuZyT4xfk2hnHKpPfuMVaF1+4VcrUKKlAVsaD2NImZ/yjVGNGbsKuRWOpP58sDb4M1fePlpLszcI8RKmBRuZI+ROOsPfw2bMn6LxZzrz80lJyULU9aEHgFm2K8iwTwvb/TgUJyMh080ROIeGI1B72X7/IluY+vvmgw8hJSqvPLsuo0729Xd50SUCCn6X50Dp6WkN3CT5qYEJplcW5UZGOwQA7qewQX7V9RAzJ8QsqZ3aqdIu1LrvkEYY/xmmUdLk0JT7DhBLBox1chyMmydjnL5YiN+St+POJhaP0cGxagWRvGkZq84WCUGrDsvwJRyhUc+blMx02yn6RQqNRxqlmZvC2bYpYuRLe2eG+w2HcoaDtJ/u4wmMytsic6KNMtYEdkdrD/usXsSGOvaGPbz5if7QK/5vvDrYYyX9CkIRiGzSBdHX+J2wrmEcce0w8Dd8X7J69RPaKQOikPCDp0snxC0j27BkkJmqreCXRwyWookYhUTVlKInqUc7SjAd6Maq7VqOZdpLCsQmHKR0IJcJQyd64i9QXSsWGZfkTjtBS5Tkr5QdL6XFoNBKHVmJxahGkZUHyn0xsU8kiHGB7OIz7FMTU8wKWtisNO6LQ4PJfv0hrNPfxFgC7y7mz9N2xPeK1Dr5m5pdf6MU2aB1rucRHzaLdqKB50CGBtklNzqnvEaIaHPNWWM0rCdDD5T0TjULxqG2SMhmdj5i0GD9N6omM+hzC833pH0gq93NRGg6rLFzHUZUzDjOXmx1i8IVSsWFZ/oQjFKo507QaFkvpcVgRyQ2g27cpylCi91PhDp1Dn4iZ7ysY26JS+fFLj0htYLbQL9IaE/p4mwi+O06k1iqYDHO8EvqDWKd0xrJyNyoV3yMPMB80mryS4HAtlFKm7E2qTJlxcoWbC6+CVJUSchs2lj/Bw0qeczrpFPMebarXM4E7FIQWmvmYZ6a0fLn3OhP7ePvQuxj7yUk8JwxcerJz2sAd2nQwllldhQ3pHDf18RaB+ZJwuRuvk9K2wSlNv7mcW8P0No0T7KwfDOOMP+EuBa2C2Mfbd3O7xuD8ecHX9Zutj7Myn2F3HzUtYnqbNveDxquRuxS0EkIft6+O4ziO4zgd5noxWOmO4ywRk9+8sdIdx1kiJr95Y6U7jrNETH7zxkp3HGeJmPzmjZXuOM4SMfnNGyvdcZxmBuNi/qvrm/zmyNWr4l1n5Zx4eEmbS8OnK3/CYxG4U5u7cVC+NTc/TINz5HtR/JrKWRZ07chTQr2L8lWotLk03MpHd9MqO7dgQ+WsLyuu/tnDZYC+HV+eaK2c3anNXNhcObfUcU0T5XuJrZUzrhyyfriAVzHXj8QLSekuBTQ6/Hhw+PhHeYW09OuSuwkZ/PSovxA5X/3zDzWIf9+ur7/8+fuf/4omr7/8/ec/QL9Erv75/c+vEvry4fe/kINR/15f/fm7Zvv64Y9/G+SMyVh4WbdNnmuQAm2ElkGihz/tM0Y8vOTNVYZNzhPd0Kw57tRG/yUOXZodfuh8FDOY0mcLMpZuQrjuExd+W4CcPxXFR+iQ/z6/4l6KN9TlWwkWxX/8Evksce8Q0KS/Iu5T8RKZNZsEXk+Vc6xhCzzXIIW20Yks5jnEjiVP2lxpWAvMjnKDkHsgqIaubcTVSNypDS406g4/kHT8ZITkEog+WwAysdOxB6BHSIlzRsbS6+vfihffPhUv/vgTYoRc3xfFX39Dsq9lAA4gbfHmLdJL4HdsR9IgYZwVqHaGanKOjmuSGrbAcw1jcaz8YEvp8SJP2lxpWDbmR7k5wCbu1EZ64g1ObVB/9qHBDzQEupie/mEgpEJvCOs1smPNX84iZP649Ov1FafREkIkh2BuSYHIMVpf/cUAhnQkfSlyRjIo+VeLxmfTrTC5fZLVEKiaNtZzDdoIQzI+L/ssyRSrFcCn1qlsOttYO8qNANWG/S3EfqjVtqokvRVWqvfxzUcGFu00YIpTm9g/LIAWFwOxwcV0Fq8dZs7INJtq5JQbF79fJstZ5ZsERN7IT40jm0U3XDsHxzV5DTffc422kZRhVWNM2lxZ03Fj7Sg3BRy4O7WRc/ENTm3MPGWgaiCL1z4xZ6i+dxAmlfspXhFDqJxsq3oDlGwWECVncmZ0g5zRvOK4Jqshmr3YcM81eoiydxaieSjn2FxpOGxUNk3ONIGu5Gl10srbf/0iWxr7+OaD7jSbUxszT+gRNi4lBrJ47RNzhiPxSxUiNPz6999FznrPqzLXTuV8u9EZvT327ljDFniu0TaSvVvVGGMVSCusTWcbJ7qhWXPcqc1MTm2wRetuAXQ0/EsMpBGLkjP0+Cfn2qpW+cTHx3/+sZ+sIohVgYeAXHaXctbvk+SMf9K7yxoCVGmTPddoatm7HKnGIBkrIM2VhsPG2lFuDHqKVfNZ5e2/fpEtjX28BaAN5SSl1ZfujKi6ww8OGUeYBlZ9tkQDaTzHB5pxvuj9aupQFKn3tKjIf/75R39hLsFozFvZLy3wtwzkiZwlGhfflPNxXFsWFQ+Oa0JVWcM2eK7R1FIGo+2YtALaXGk4bEyPcnNwpzaczqEV+X+qUxsYgMg1oMDNiYFiPMNzBir9DQVzFo3/r/k7E8IQJnkBoSaI8AvMqC0g2xM5h2gEWVEbhSAehb9JljVsg+caTa1llHKW4oRK08WNNTc0GwDqZxchNCJqopW3WukXaajmPt4C0B/kTFy6S5ng8EMuzHjXpvTZkhpIJTHaxfWlJJ8nUCkEKfe1r/jsyJsPlPPb4sXvv+Nrfi9MRt7iBSbhX+QxkzeccSdylkvuFx/fI5iMzpnjmrKGpWcZ1BFy0N8ANstzjabQMjRaY9LmSsK6MTvKzcGd2pTc6NTmQXjwtTfBZ8s0NyL3QXVqyC/PALLkuKz3uzOuvoaYr9WpuBBirfQmyhpOdrwyyQo5SFUpIXfw0lj+nD3XTCBtrlrT3WZf64Q7tamgv9Wtk8MPVV8FjLgYrjEWV0bn2bHSne6xfn18YfDCiUxwarMCTH458SL4X7mwNvIL6elY6U73iH28fTe3a0x3arMCTH4Vvn54XRSv/8DE2uXs3BJ3arM6TH7zxkp3HGeJmPxugWV0HGfdMI3eAsvoOM66YRq9BZbRcZx1wzR6Cyyj4zjrhmn0FlhGx3HWDdPoLbCMjuOsG6bRW2AZnY7h3i42ANPoLbCMSpdcXMwA104Jb3e0DL4oxbdVnBvJ/QosFdPoTFy95WvOllHRt5pW/WjbIrhLm8j7Wu2Vc3hHzlhhr11v9A3AlWBKnQl9C9IyKpBzS11c3KFN9Gnllsp5q+btYoW9dgWYYwD1BVD6fmhwghD8CqyC4MUi+LuI3i2u//n9j3x5oau/XxVv/vnHMiqQc3zXN6tldHFR9XARE93Ow0XFarfwcBFz3srDhbVJTIetWYM2+bI4GB9B0W3t4lVvF0mvLW2R+L9I7K7uMjabYTGUVSjZ0RPvFsGZQAJXsVnVfPU6eLGQdyFL7xbfJYRAiSQriuwwMzmXtSxdUGCTvPga/peJtqevNBLMoYsD6KQ+vEF7Gw8XZc56+XoIvCokiA7nJSYgl7/oDNOOr2zQygFFWixnMVni7aLstdEWqf+L1O7qLmOzYXW5ACX6FBo5+HVAD1JnAgnBr4B9XSoqUq4phMtivhhp3i1+K1789c/bXM5M9fp1dphotOjiIqll6YICkbKRrctWThKJRkTOKqu63AgyiAFT1xG38HCR5KyVTx3LfpFEl9ZGatuFtcmx9MNwfIjSBq0eUATxLZczoGkGZa+NtuDldfB/kdmdtEDO6AOoFledZfeSUz8+0Bsq6BC1EijnF98oZHy+l2ULcInMpXoh7wrN186E90TsXkk5wKHqVFbq4SJLFD5u9nCBXHqaD5FEMqV5mjxcpDlr5fPgJ3q4kIJMyBouG5RLFNYPiGBr2+WMisNwqKVahU1qthiUC+bndm/Du8/a1ugPl7YyA6ooC7OaM4EEM8wqoJz5IvNv+EcdU7ZQ9X/4ztedM5rlHFxcmBSklrjSMhcUuYeLPBHaeTYPFzBaxXXErB4u0px5+Td5uLA2kaLCOmahQSf7smi/nGkDtY1ZqLTFfinn1EAyC9t4tObsuNLFQgyHBF1BrcQMswqCnClhlauu5icL58vafiXNckYLiouLUAmpJZpTFzPMPVzEmkqimT1cIJcS+kVSvIE8TR4u0px5+Td5uLAjxT9OIuNQo2ei2gEFOijn0ha7NtmGIVMDaZ5Np2z9dHRG3zdnAglmmFVQkXMcna+vPuAw87XCJspZejEqUdYycUGRerhgTctE1BEvwExKkNsEDxfIlbuOmNnDRZqzUv4NHi7kcGP7MVg26GRfFt2Uc7CFDFVi0tRAmmfT0TkGehbHJVaRQWl97cwJZphVQDlzVV56sIBcZelO9WZhsk6YLGf8y71XEHRtDmyphwvWNCZCeEYPFxpXgcWnedSI+hk9XKQ58/J5NsDR4WjkmGq70IKkas+kJZEnNGg9daCDci5tkfi/SA2keTYd9JjLPp0enaDXRL8OpTOBBBiGfgVWAeVc/MtPKBX6Ne8WV/zx2QbuCEfvb+kS2tLZg4uLrJb85ZF6Q7OmHi5kCA2JYJoZPVwgILsMriNm93CR5szLZzpslf0iiUajjODhIrQJNuiAwzzWoMyYHZABSxTF6aLWUF4xYj61oZraLFTaAgYP/i/qdt902GMIqoV6CiPxCFK/TpMus5o6i5wFjNGldwsolx4xKgvzyjqAvFCOhw/1KGciHwG1jC4oUDP1ixC0UybCJh0a0TNEURW5pR4umCtxHXELDxdJzkr52Lkckh6HRiO17UKKkwxsR85AJEDYTysHpDCSSEduHWI+taE2WrBQtAXbmdD/Rc3umw5qwd/gRmzb0q9D4kwgQf0K2JelQjn/9YrOK6jX0rsFBurarTB9tmQ7HZ0zFxdJLSX0fJ8NDymEO8Mc5GIiHUe1Z4iMUrnpaaL0cJG7jriNh4syZ5pWwyJnPQ4rQi/thdAmKIb/8gatHJDCLiyx0TxtQkymdtNGixYKtsj8X1TtvulILeLEK/Hr0OjhYVUzNJ1RJy4tYrDRzQUiLWMjWS0rp6xIkmgySJQXUHEd0Vh8s4eLSs7ppM2gbRIlnjfo7YptKcEaaouK/4t2GWgzTkq1C+QbsYydAaO3zLVbMsosEL1XaL/jtI3prS8XHspKO8lNcq4vm28ZuwIGG2ugxgZdl3ZcB8LFRiv9X5yOp7nEXBs5//2q4vY1p/NyHozHZxpqbFCXc4L7v1g1KtHbYBkdx1k3TKO3wDI6juM4juM4juM4juM4juM4nYC/Us728+TsKR3HWQ2D8awinT3lPFjRE+PKQTvfWWgbvXO+LHXqo0wJBt0ZrTF7yvuii/JwqZ4VMdRH9p31hi+Ijgf+5HrCGsoZ0wBhZa20fRleaXTWGHTIi52d3jQ5t9fNDSovEuEr3ckLJipSnufkvfnicvd/fPl3MJK1bVOYcndkb9cuEB7FaH9nf7SyGa/PtTcCe1F0mpyRpK1nZuqYk8jez6fJVFLlvHVWnCGS4+IFl7N8fozUlU5NmZ1Z8kVyYkvnbA24/I+8e8/X0PtbvYdjfT2fL8rQ/4NOx2M0OHoub/OHZTpkvbCmYT4rmBWTVw6ZmGlPsH9ZruAXbnFtryfqw6Yf5Jz4L4q+hFbpnGnhoNuya25nK4+YPtmDwxeoBd8gCX2rNiAb6yqfN1Ra3DGVhi+nu1yaY2h/ovjxERJKO5bRiL/A3AuXU0c8/JOtE1kSV1JVyArmIhZ6ni/GiOxd8IyOffzcG8BkuRWcdUHP2WHNmMRLU+lLSJM0tX8bkC6+dZBNP1TBg+ei0Yqc83lKkHNF5fNGj8HQs8fgtDccH+CwZGE+7F4HcESwOmW0fB6MR9uncvlwsjU4ZlxTc6YFb20/FX802+eaVo2BfchyXws+ezl3RX3YnKmc0QuCayJEBF9Cq3TOtHi0a6OvJ4h6jlXNayHnTH+qumPZoywtga0YR0VqDMtxxmhdfEIJh58VV5IWDB3/zNQHjzStzlRczusOmpZNTDlrc1o3KH0JhSTthFo8GYSFXhV2WJzDONdcGzmLnARppsET6lGVha04wihn9clj0damyixy1oIp5yNW+eGupNW5tst57UHTsqUoZwTZg9Gq1tjqSygkaSnoohf/l3dPdth9vZBcGzmX+uPucBXE022iW5OzHFASrUEjkTN4LkUkJAWjoPM+sv54rIXbhYdYATtyOa8raK5EztLaMvEufQmFJC0FHT4Z+gTRhArYvqxYzpkosTs52eBINF4V1yzn7Niy0RmnauRKSQpGQedcex6jtRZuFsJOznfTg3HWC9NqdXRmNzBfQi2XMzt5RYyiCdOHfVmtnLljHotA1dGXATUVLpJxbHq4Gk6i05zh8LEFVapVJi2YcpY6S1qbayt6snDWEjQXm8rkzJMwmktaEdHpZ2s5YN/OQIXRYbns+6l4gMCXY3btntwdSpGNS5Az9lNcDHYG5zgUUR3FiMaC4sSHBHavckYYR5hE45PV6/MnxyY5H4/jozFpwZQzvouvG/QMuy0ouJzXGDQXm5hyZrcMrok0Gl0EnwivyjnTMsiGHoL+Sg2g8lCIfoGaEUZPN0EYslF8/S9az3IwAELiTg/kc8jBN//dWS6U2Jzxd2eRZ/8RGzDIWSSOVrXCgjizggd0gYGyKOdBmGsLSOByXlcSObOZhZG6/g2+hBjWXuKsDHU/8hynW5x0qSc2FiYMfPxLFlnl6Hw8Tp8K07VXJcjH26jmcHom43MmpfdmPRVlBfdlinamacfPk3OY9AbX85qSytn6jDwhlfoSWp1zJidhupsZytmCt2N74U+cO6uiV/aZ1JfQqpwzOTNzZzlnM2nHcdaAO8q59zC9zeU4rSDcNyBTb2vNnHDJQM53uWF5IFfQjuOsEXKW8TtUjuM4juM4juM4juM4juM4rUeeeyTP/fcax9l0+nzhYGvrqPDl7JwWMHisT+p3FL53wIep5L0jjVpH+NR88fxZp5vKuRl25y4PS0HOJ+v9DAYOTxj5izDOFNCdK924vT4vmkjknL8zxvcAJ3u/WDY4vKOdw9HdHst2OsROZQJnb0x2hGSyXVEK3/Sd6P1i2UDOmEPhkOScExwagN6egG999WzwYG9QBnfZtg8OH/+YvxDXRxrS293z2Xu7QJuzfftb/Uc/sZETnxe9w8ePtN13H/6IPpNHIk9v/6dNvx+scu4dhZf9SzA8QzsHck0Nsa/2ikTlrIdUOjTQDUSOkVJHEnV6gW36T1Oksws9UZX/nfYgvWBY/MxVKXKfF9oP0N5cNItkkcwDKWz6QE45k/rLSBU5r7aiqZxLhwYAR/bsmR0jtrE6F1yzD4crymYFxk9G2eHzbY0gdLap0x5MzoDOLgalzws0+vneKcYuTjUPMWYX/5POoZFB922Q85DDVG30XT85c6VcGD5xaMDDx9ziIsqZChWvl4iQJNhGxQ5+kGKUk+LyF930eNUXEc6cCXJG+6MvoIuUHQVR3Dy4ZF+n57IkUvJcbv6jF6gRBMG6VIepdZOzEI7SHBrwIEWXcoyyNnhoyQN8QKtozdrdM8j5GKkGY/xzObcLkyb7iQrZ5IyOcrazs3MqK6kHOZeRXMC1DV1B5Yx61Xr9OspZVvBLHBqwsTBqBznjxIsLIIQpYo211swYFhe74/EALborXumc9jBJzvinjHdtso3+XkZSzsyz6aicqdpqx143OR/ZTxA84uDQQEfgKOdfMF+SMGIuJzskgpwfXBQnQ/H0vNp6OXNmipxHj8lDOiUC6CVppOXZdEzOqE21Ousm53C2SVsJR4+DD3LmWVbDTP9MZk9Ix++C/ZdMJ8Uvl+MB6rjaejlzZpKc0dI2/RyMx7vyy2YaaRk3Hj6zbSeq4iK7FYAY6GGC94tlU5MzInDRjMH5aGdnAAmL9wpGqZzRUFovfKcrhLMhT0xaB9Gw1Jd+LmJ7Om2gSc781QYtLdfGD+i16HRvb5f3U8vIlsiZGhAZUB9aN0MEMcn7xdJJ5MwDM4cGdvQC5s7Ur8lZNkkOXkaAqpwp8yh+pzXU5Kz9WKaZxfNn6AhsecLnhWNkS+S8KSRyThwaVOTM9ggCRUNZ8xzxfseozxgtAs2MgFx1owSXc6uoyTn6vFCXGOPj7REvmO154RDpcl4hwaGBeaESEVcmD2jLOI1+IDfRXLldJfi86O2wI5yIbuO8TCOdNWCKnNPhXBiM00sJp7PoD8z7Dc8jOKtlspwRUZk7DauCd7oJr5dJC54Bu4FQU5KPbevJ7qPQJNV3YTAW6ysakZ5PqRxhcP68GPtKGI7jOI7jOJHru2MlOI6zJpg074KV4DjOmmDSvAtWguM4a4JJ8y5YCY7jrAkmzbtgJThO++ED6hvwrOr1b0VR/GcCvR1WguN0gIGtdbveXF+9cjk7s9A758tSpx19oQLD8ybImcOzy9m5Gb5lNx509f0ol7PTJtCfL3Z2etPk3GY3N5Tz7qgY5W8bySV15tGmHrNMRM7/vi1efDSRGryk/vd9Ubz5dvW2KN41xVgJTjewF2Onydneg24llOkZNZ3XHlUuco829ZglIjJ9Ux+ieUn94tsnfPxxDQ1D7LUYK8HpBOrDph/k3Nv/6adDe9cieEJK3Ny0D1FyXZ8q8ANZrwdXIwdNMUvEJtuq2BSJ/k4FX0PCNjxnMVaC0wl0fRouHE85m/sjjsWlJyRNUhm+2kKQc0WfFfHCIPWYJVLKmYpNyMX7a0OMleB0AvVhc6ZyRmcdP3kCHaNvl56QopubNuJydtqEXRhTzuVVIq6mE09IlqSVuJydNpHIWXWcLExjnpBczi5nZzPI5Sy9VCbeiScklzOq73J2NoBcznF0Zg8PnpBczi5nZzPI5Yy+yo5Lb6GlkNssZ9RNHDtV5CzRmUebeswSkZ+TP9blrNGfRbwfRM61GCvB6QamVcqZvfpoq3fKzqrR4gmJYbq5aSM4dRXFmC5iMj1LdObRph5jSZcCx9yieM2PTM8S/Q8/XmIopnprMVaC0w0SOXMqKYy2pUObJyTr3O38oWozMPXeBSvB6QapnM1lzTmH4tITUunmxlkRJs27YCU4naS3Y/6PSk9IJLi5cVaCSfMuWAmO46wJJs27YCU4TqcINw5Ifpt79Zg0yXc7RFL51aoRK8FxHMdxHMdxnEZs4rwsbK+O4ywAk9mysL06jrMATGbLwvbqOM4CMJktC9ur4zgLwGS2LGyvjrNpcHHO8dmD44E8mt7wKOuEaP5MzffPlgIkxhcq3nz9/FHfu2hYc7s5mj9Tv/hmX2bF9uo4G8b26LJPSduqSk1Ppk+I1lefl8P19dviX5G0rb3bIOcJ0frq8+2wvTobSLed2gz1TccjyhnjcJMRJkQvVc6fZGmC6y+yMC/G4QbdToh2OXcLvr3bWac2vQuVc+9/6y3n9yrn6/cuZ2ca6KwddmrDFRtEzz+YnOsObkzOPOtBvr2H42J8zOiqnJFsYY5wuA6J6Pm7ybnBwY3KmZfYlO/fmHr/wdianJGs4ginFmV7dTYPXBl22akNVTra1zDl1+DgxmLOijOodyguBmix2ugMMyFmIY5wVKV/iRxFfQ0ObizmE0TJz5fy1yBnXmPnjnBqUbZXZ+PoulMbKi4IWnRb153J+YTihYYPmOegQc6aTqNxlkCSeswdEcFBbSpo0a0pMUHl/JnihYbfMQ/G3vpkW9JpNBQchuc0yvbqbBwcnbrs1AZXElI9VjnIuaI7FeXgOUU+pNYhZwzPN8kZJdZj7ggGUMyCgcy4g5wr70dK9NUrihya/Eg5Y3i+Sc5liWWU7dXZOLru1AYTEkw+VM/T5HwsakZQ5RxVmrBQOevVsKpvipw/i5oZFDlHkaa4nFsM+ia7GeVcXvFh8OmIUxsigobiJsuZa33yenmVclZBU5qT5fy6kOtll3NnSeSsOu6UU5vtU/nXF91NkfP+pcSuTM6/ixCvRHZT5PwRf4xl0OXcRXI5S4+TiXc3nNps/6InrhNWebKcL7dNvOHaGeGlyvk3vYv9+QY5/2fihSZFzgi7nDtFLuc4OrNXd8CpzfalSvKENZ8mZ3oQQBJI80A/lixnleRnmUtPkTMFr/e/3umHy7lb5HJmB0Un7IxTG9SVT40cjVlx1HOyg5vtUVGcUpXTfndGuoU4woHeXvx7ff3lFZXJSfREBzfXbyFHinLq7865I5xalO3V2TxMq5Qze3LXnNqc9wZPi2L8UE9jCNHzR6Znib7chik4PstTYUwNNed61nSLcYRz/fbbV/5S9QeFiaF0ooOb/6BJGZ/lqTCkhporepZ0mSOcWtTdzzvOiknkrF0UuFObNcOUuCxsr87mkcrZndqsKSazZWF7dTYed2qzjpjMloXt1XGcBWAyWxa2V8dpBeEmAslvc+fMmu6+mMyqyH0uo/KrVcas6QK2V8dxHMdxJmOj5nywMh3HWQkmxPlgZTqOsxJMiPPBynQcZyWYEOeDlek4zkowIc4HK9NxOkGPq/XyN6j8FQuJbqaeeL6YECtwtV7+BpW/YiHRzWhiK9NxOsGg+X1mjW6mlni+mBxzJrzPrNHNSGIr02kl3faC0YQOwzWFThmdVyJnHYZrcp4yOruc2w9f3eusF4wp3EqhK5GzUJfzFFzObWe7014w+O7ncOuE6w/3z8f6MhmkSW1WFarRzHD546gY2zOdR88xtxksXM6/8SXmz8UbzKU/vKK7CpEmhVyVs0XLO8x/BTcX119eI/ajy7n14IqQa2tMk7O9Q9lKWP2dI1T+YDzkEiwUpWqzplCNQBpZmEDNdYIorh+2aDnjgvjl1y9F8d/3Vy+/2dWxCrkq5xDBFUZ+pai5ythnRH0qio8u55bjXjCKnx/0LrjQuCwsNB7cIGdRsiVk7oOtg/EorAy4KFTO1+/fcCkvWVjo401yViVrSuR+d/391QtdGdDKdFqILHoj619Rzt3zggFBas0oytvIWd6gkoU9y20LQ8ZaWcyTorydnDHblnNA3GZlOi2k614wbH4t7D/FaQtVn1nOYZBeipyjaL9w1TCIdHY5q/zDNivTaSPozxyMKWfrnYjB1XRHvGCUcu6dFUeq0pnljPDy5fypeKcinV3OCLqcu0EiZ9UxxxybWbffC0Yp5+1RMTSVzixn+xe3LYxEzm+LlybS2eWsn2Gblem0kVzOIluZeHfDC0YpZ7sVdis5I5OcAJco53Ar7FZyRiZxXeVybj25nOPozA7bAS8YUc4yb8bH7eSMKE5k+v2lyVnmzfi4lZwRhfD11b8u57aTy5l9Eh22M14wgiBl3nw0mGF0hjGg+5HKmcPzRa//qLdoOZsgdd78dZbRGScACN+eI8Hw/OLb1YdvLue2Y1qlnKVLd8wLRvQIcDAeH2/9MC7OKU2I80g+k2prdJ8ZSlcZ4hTjzLIszkYcalXP318Vf/DjDaUJcX6Rz0TPGv1Nc0RfGXSKEbK0tCkdkshZeyxwLxhrhip1TliZThtJ5exeMNYUE+J8sDKdDuBeMNYRE+J8sDIdx1kJJsT5YGU6TscINxOI3MleESbEicg9LoN3vqZiZTqO4ziO4ziOA2yavFhsX47jLBQT3GKxfTmOs1BMcIvF9uU4zkIxwS0W25fjOAvFBLdYbF+Os7H0pqyFf28GfGV8Hr9Xm+AWi+3LcTYWKG6Bb0KF96Lvy1TXFveG71IW71zOyUPNJb3G2LVl8Phhl9+YW+joPD85l4sLLQR5gdr2pfCtm2L8rJV9o3cmLwpm6OI7I135LdIcu8bMq8M5TWzG6Nwk5xN0Y9LCF+nkXcGqnHX16bCSY6A5do1Bh6scbItd2NThQ9nqqUZc28QAtx2NC7WEtD/QZcEC5s4GJuQSBscIMHfp8Iau/M7DqiX3xFS3MBrlfLTD1VnySrcAfQ6/IufexfjRHhosr27v4ulga4BWXeAEbt7sVOZT9gJ0R0Dj6opB6tomBtihh70hTYEkR1BqZZwK7mx4CqfXAfYD3voKDm9wnhxu7SNiHnLmKxa6woh5qipD119w5SuvXVxx/W2gq/xFzD2VrkjyB2O4UEnpvupDUbyRL7YvBXLGgdMc/JY4Rxk8VN8oW/09HQZ6u3u6JSRCBBLg8wE+97Cxry5UJNrCQDbx/+HjR8mAEspPM0WHLA/2drmDas4krQUflAe3J3kQlAheRhyhRatdfMDNcSXHDF2SZ0OAhWgPGOLRTzRB4sKmNPTuwx9pliwSedCANPImE+Wsrm1igKEDbJUllyBPtHTWprp5PJIlXA70K4dnSU+Rix7mNtmGniFnXEGrp6ok9Ll4+e2TeYZ9R6XKkmIlwT3V9SfonH966yu6r3qPKD0j2L6UTM6lcxRZW0l8o2CT3EQM/8tEsIKaFOnlhKdLYyAaZWmYiN1kR0BKAGX5SabSIcuJmLaWM0kbg4yn+Qn2azVRGuQsNMu52vRrjdR/WPx8xnqLGQltEs3Fhe5IFsk8sNbmVLSZKGdWTlpdA6geeg6+HmgU6p21dHRnExNiM3pRWOVTRb0IOdNTVRlC4B23yqKd/3GNv/waW7ere6p3+q1c5BNj9mcZpCdPtk0+wTnKYHx+eMjFDxkpG9khaLIkUbBIUHaiNgsTZIBp8Hm+dxqNW5afSTQ4ZEnlnOTM0iJIs2sXRRIUhyRIbbsA+NLUbxtaq7ezg13gpL0pSP1Fw/RdMyhd2ERzsWceYswu/ifLW5Y2JK2RM5tf5KwBNq1QyjmtKm2ickYn0s6LRAgHOWt0Qwe5E6WcbfCNIRl4qVKNgTrzubZsjwEk4uYgZxUytjfKmfDmgdUVVTRBwGZU1uUvMAk2PraaxkTh40RTahdTtVk4loJsqrsQS2RLkql0yJLIOc2ZpJUgDx4bdY/6WR49QAFN/RbZtPEj2AmQxbY2BLMHK6JdVuwmNTFzDS7ZJrxWrNiwuNz0qba0LGqEOrNeUnkNoBOw5wDUWWub6rLcrCHkQyKEEzkjQsP3p5QzPkkMQYhCKed8dFa5AkhY5MyzQCJniW6W8/gZCzZ1BjtsPdgZjBiAnI9hq8EY/9QAZSIY6+H+uDjFn3aX8eGejZI6CIwfysggZjrb4Qho1izLTzMBdciCo4I5azmTtOya2B7krJ+lkJVmOaMK8SgCerijzennJk22FOpTyrk0134p54oNq5XfQCbJORHiwVhuheFCpKTcjC2wA/LBgggvenSuylnlSCBJmWzrDa5A3D5ZzoholDMOvM/jtw6hnQT10u49LC52x+MBusUu7xtkifjDrnLBQVc1AaKcGRRRIpsS+lJSvjFMHLIgz2jvUH4uSHMmabF/DD+4DGQzyjkJs82Z5Mw9N7UVbaB9YhOYJOfSXLs22YZRchsyz6YzSc7sIqHJ++g/zys/3mGzdZJwpYh8iZzxuRQ5qyjJd14X/yY3uxPi9slynjQ688DZ8VE3VhV1oVJPHz+15r94cFGcDGW7rMteJqKMeM1mSoKtnj8zWUmvgUHFw72IcvSYhOdVkvJDJhrRHLKI2EmeM9kByv8Fs0aVM39rJNZSkSY5s+i6xgn2hOPZEKbIOZgLrQNon9yGzLPpTJQzNrB+P0CT/2toTNvc7zPEW+Ds/YmcVQ+Ll3Ny74s/VL3Ix2bZrhfT4dqZ2RI543OanPGPcqVNULnSNNQYf6D/5VJcAYmcYyKEh+pGRUvRnoJNQc6INzlrZAWWn2SSkrgDfPYePnv25LyaM9kBlI2ycXQ8Gjmohl1gB6ZcrRBgS1lcEiuglM2Xc2mFwXi8uyc//zXYcNNBy6Lh8amViQFp32Gvf4iKNjYm+o24s2GIvYh2kYY3hzcw1UVPfmKZg54nyxkbON5+pyZt1p1h28U9ldwCp94TOad3to8xebYdUohHOzsc3Q5oieAcpc8fKyk3VE80jEqKstNEMI2MnhPvbCOxXOGGSQyumG3Hsfwkk3ZInlg0DbfnOZMdUM5yg45ylomT7heFnGruLVSrKE651DQKsjJ5+LyM5LLUZez2k/3eVg9FWp/YAMQUag+1Gz7pwqY0F6p3ure3y9uLdRtuOKgbeqT82mk9otQzLgB5Y1fiQGW6be5sQoiTRUkZHd5gRjnavXj64zxWKDc5mzZLlQIo8eW3qz85/DbJmaOyuKdCIP3dObqv+g2bPyOieMcuHU/WUI9yZkYC8iO7XIwWB6irqCZqp0yETfiunUkElagNYcyLkcyunSUbI2zHsfwkE80aHLJYokrOZAdylrVD0gPR/SJ13IWCA0MwCNcamSU3xM7hjLwkxBRqD20BqQO+RnOx0Qh/fYuRLZHzLPCEL6yuUaleyA6jqqm4DFGvYcgltem2uqeywB8MSMrgvgpT9Bcf37/+82s+OouLrmL8VCJK5yj6CMLzffYVmEN/OMJlNDbFRDqOamdCf0kH2nCa4DOx2ESDajZ5SBbE8tNMqUMWUsuZpNWgylkPRPeLw2mUs7WpdPparD3AskGvYGj91QjaAtGFTTAXTIwLZnyhPao27ADhdBb6wwoQXd4AZS1U9Twrtq9GEucoO9WngiNJoskgUaUAxKQRTeWnDlkSKjmn0zBL0vNQlSz2wW12saYEFzZqrpPkhBcju8P2SOt9NA6jw/IxwU0H024hf45kdmxf3WGQzEZKmmPbg/7AvB9nKx1jML5k8z44W+Gjfia4qbzVe2NfXt31TUrbV3eQF2xqNMe2h3Cx0YJnwO5E/5z3YZ491MtJJVxcLQkT3DSuXhX/8t+nF3pJfXtsX92h1zjLbI5tEQP055YuTLEhmOCmcvWBd7de/6FO2Y3bXEfbvhzHWSgmuLliRTuOs1xMgXPFinYcZ7mYAueKFe04znIxBc4VK9pxnOViCpwrVrTjtJse197mz3NNzwxNpf90MY8EmgLnihXtOO1mIC/7Qc+3lTMfKGp+cPCemAIrcO1t/iplb1nNjrxK2epHn25ms5xbzEzHvWA0IaPzXeTM5+dOF/FQkckwR1+ShJ5vK2dk/Pgpq1zHfF5snHOLmeH7BUt+xGlDuL2cF2dL02EF8YxxBzlzJYO/sy4eXods4Us1TT4v7B25Fj6bjS5YqVWnvGDwxThze9E/xymbLwHaVXNVzowe4kzPhaySbKUTDMzRmUQSzxnTYRN3kLMuXGBFC5Bzh3xeNLu8aAnV96PsNcmOwPdgxe3FwVgWxKGCVchVObPPj49w+rN3SYO3jHIxkgWOzr/xRSnxenH1wd5ftqvmqpwZ/ZJrFvAJ7iRfdILBxQsYa0ULqBoOnJXit9LnRXR5sVX1eRHT3MvnRaPLi2afF00uL0LYfF40uLxo9nkxxeXFptNxLxjowur2gte9NlWZLGeNRueI2fhdVtKBHBYoZ2hQvV58f/Xym140m5Bro/NniPUdR2C+ihHzJYuRNI/OpZyjO4vSJQU3iTXC/5iGExVEIB7hhrVHwvRdzCQ7AmbXRpcXoWjEpovklxnr5esh0PoE0VYRQ1usRjvlLBbprhcMtDyrhUYfj7hq33Q5a1dBdMwGMyCL9p9Fy5leL3jdSz1+nCZnjeaLkjEfvkcnGJMn21Z7c2dRuqRgpPxn86PiZZrSALf3edHo8gLhBp8XScZa+TS77BdJdF1upNY9CPjW0EsX11grRSwiGoYJYb6OecFQdSr7T1Eh7XSI08+EKGcYLGZDt9LebP1qcXLWtYTon+ZGOWMMRgZGx3xyGqC4EW6UM2nyeQEzoE65z4ssjXzi444+L2RDmqfJ50WasVY+Dz4s2Kmf8eAFFNDQS5Erb952YCZi3VBD1FssKc1qFmy1FwzU1lq1d1YcqR7R/ojTzwSVMzoMKh+z4euS5BxF++Ut+i/0eJOcqeOYDxfRcZntRjk3+rwILimQIPV5kaVhR7irz4sJLi9qPi/SjHn50ecFkmDv+LQiSpCgLmdUIRxEqzBpsl1QxVLOpQVb7QUDtTVdjnSRw7WX86finepxqpyp31vJGQde83mByumdfHxLfV6kaeQ8aNzW50UsP83T5PMizZiXX/q8kFMSppYzyZl7XkxTrZhJci4t2GovGKiR6pJnp1nkrBliNslnX5ci57cQ64LkLB0fVaEgZOSNLilQy9TnRZpGMt/R50WDywsxYs3nRZqxUn7p82KCy4smObPkmsRbwRQ5d8ELBmokukQDiz+HG+WsnSNkk+/BCcYy5Bxuhd0kZ8uQ57NvE+WMfzWfF6iaaCz1eZGlwZfhPXxeSPlJHinJPqPPizRjXj7PBjg6PY5GlxfWYiQ0JxvKotqGWEdNlFoyMX3bvWBINdjCR3yQYqqcx0c9rXbIBvLfnW296DlTylJGWXzcJGdE251t3Yrv0QmGyTlZVhtVa/B5UbqkQLunPi+SNCKpO/q8aHJ5Yd2PJxZJIwl4UDFjXj7TYavsF0k0GmUElxdNPi94+MHlRdsQ66iJ1JL47I4XDDS/CfNgPD7e+mFcnPdQX/RbWegv0zO62PAY0xOc2MpssElwggHDgXi6mycUIqfJKsWvN43O2IrRmOljPkSkvzv/cX3NTh0OFlVT9Id0YQQJBpcUqG/m86JMw02wknYdUVRFblN8XjS5vBDT1n1eJBkr5WPnckh6HBqN1LqHsjY4MAS1TO5CWcxcapWIddRE2iZSWXyNFmQzkq56wQhQzhZcNhyPTZ+vIEV8vNEV/l58kc9UzxydP2NQDk+FBT0HJxgYsMHLbHRu9nlRuqRAz0DPT3xexDQ2jmrXERmlctPTBB+BxSZqp/S6ABpdXkzweVF116BpNSxy1uOwIvTa3nILKmeVr/Rwi2wbYhE1i7aJe8GYwCrlfAvsVtiNWNFN9OI0dLKLhDLNNJCqUkLudaGx/GafF7dy12B+HzIW8urqJuBeMJrojpxbSdu9W8yK/sDcWS8YEciZNxVWgSlwJlzOzbTdu8WshMuPDnrBCFUnj/mxohO8KXAmKOfs3tgErOjO0HrvFrPiXjBWjSlwInJbLKXR1XOOFe04znIxBc4VK9pxnOViClw4tjvHcRaHqW3h2O4cx1kcpraFY7tzHGdxmNoWju3OcZzFYWpbOLY7x2kDfJp32qOr/B36tk8KzsPRjalt4djuHKcVDOKSfs1Az7eU81wc3ZjaSvhqhb5Z0QR/hs5fs5oBerppo2OI27D5b0y6U5sUDM9zljMfkb23oxtTXAlfi5os5/pbkzeDEnNPN212dNNaTzd8+7F9b33embnLeT72NcklYHier5y5XEnm6UZfbpx+8bGptNbTDbpbpQJdcmpDscnahuCAUu1DzrujeI4+GstitWWgKmd8b/J0M29HNya5hLnLWZZEsN0JkHNLHd1Iq1Xl3BZPN9XXHe2t525ARwwH9rl1ImtaFGdxiD4phj15EScGaqMzOn2Dp5s5O7rpQWsYPGUtgncqVYT/fVu80Gezv2DqzVWDYqAqZ3wvPd0ga3B0U/V0Y/sTUDMcOOskXxs83VQd3cQ0NUc3qSeamxzduKeb+9BxpzaqT12kZiir6FwGZxjsylzW5nI7BhrljAjtHEimnm7wdb6Obq4gwXfX+nn9mUpF8E0Yoj8XL7994tJgMVAbnT/zRMARGOkhXXN0U1lxqDY6J3Ju8HSDTWKM8L9MAysiAvEwir5emywhUi57IWaSHYFgVvd0cy+k8t11aoNWHw9651xEffsXWflK5Cz9THoiesFBDLAXhH6nwB7aVRCNT5qozIgt85Gz6ZPjKz45/oqSIUEMz5CnrOr3Xww0yhkRiIbWRc50dMPvuacb252AmkVHN6x3zdMN4mQjuwTrXaaJBgjKRgRTiNw0SJABpsFn4ugGudzTzT2QyouGYS1YqmNObViNg8ExT0wHqFQqZ/4T6BxDmCZnWFFFbacIi5tPBxH5frym88iP179xRA5yhhLDmrvvYqBRzhiDsQ3R+OTIDEIGDs9NciZyy4BdACLSMxSAGSis1NFNliZ8BEc32ssa5Yxspd4DsiXJ455uZsWswWqgMqiiGE1a0IzVaqc2bNfh8YDt+DNqiZaPckaYPScJSOq8vZFROwwsAsvJRk2Pb4izsu6JKO/d1R/Q3K/fZW6cyBmfAp1jaGCKnJFLRU3kHGHqbpJzcHQTpIDKoErBE03u6CZPg86ROrrB9+iJRoeByY5u3NPNfTBp4oO1KeVcGqvVTm1Ee+dc9l1MgG/Z6CxKTCS5MjlDoC8/f+Sc+QOnxqmcRZRRncIEOWuu2eWMAxdHN6FPSD9B7fROfu7oJktTdXSDSCPImSGRMy0vhN6UlG/AwO7pZkYmybk0Vqud2kivQX3xySYXXQYJ6pY0MEnOsAui9ROES0d8m5ecKb039Ows2jNhqpz1E8TAHOWs/R51oXVQGVin9ESTOrrJ0oiMeNUWlAQLBk800m8mO7pxTzf3Yoqcu+DUhg2LrsPmZefN5Iw4VvEH9jsNMEoVG1A5a+eAdXSjFCYf85MzZtu/yqfMtVM56xYQAzdeO9tGZBA58+skOeOfSJU1g3ViBXlLJXV0k6VBeJg6urHOgm3h2nmqoxspP80jRdnnnD3dxNZkS2nUJiOGUGukRkvM3GqnNqyT9kKpDSofPc9JAw97/cMywF6gHTqA7trg6Wbejm4gPSgUM2l86gCcyBlxHF6/f4yBSXJGtN7Zto1SmnwEOTc7upFaVD3doC+kjm7SNKg7MklHQioaLJGbBJG42dHNkj3doBwrkoffAk83Ygi1hhoNn91xagN6F9KgQ4oPDa8zRNMzrgD1zq4FYIqKntHFGjzdzNvRDbX3m2jwNwpWb2oF13P89/Lb1Z9JoEnOSIrRmHJHWArh8Jx7umGfDgeLmiln+CIVB4mnG1Q3c3STpMEmfNfupLdYErnJvBjJmh3d4OsyPd0gZEVyFwpbfmMRQ6g11P5SL3yNxmKTka47tWmEcrbgAhG9yUT6U5xrF8VrflDPkKn8DwEKNtczR+fg6Ubymp4rnm4mOropvdhETzToLej4iaObMo0Oo9qdVEWJ3PQ0McnRzZI93dghAOn2GqkRm4lUXi2g9nenNrdheXK+F3Yr7CZsd4305uXpBokqBVQcqzSWvxhPN51wdONObWamO3JuI110dKNXP+7UphHIeQmebkxtd8fl3EgXHd2EK40OOrVpJNiDLMnTjant7lDO2b2xZmx3naGTjm7cqc2qMbXdCrkfZvwun/bI2BRsd47jLA5T28Kx3TmOszhMbXPECnYcZ9mYBueIFew4zrIxDc4RK9hxnGVjGpwjVrDjOMvGNDhHrGDH6Srb8Y2cZWManJHf7f80rGCnI7h3jBonK3sszjQ4G5/9+S+nAl+j2ug3xebP0eqecjUNzsQXf5zT2ap4v4Ccu/d0+lSOlvKyRTOmwVn44k9nO8Bej4x04b0pfclVlxMabp0V46NjvgIb/dQkxLXsmB62Eic4acLoAGf+bMsryoUsP8L1Bop3n2XpkejYooRvPIM/5ZMrb8sDnmlC9ZRhJTttw9xaBO8XwblF1TsGSHxhtAXqmO999n4+7Z3g6uIIfycF1wuSFexSoF6Mzhijx7gI6V1AuVnC6PdmEVDHshzBh1+/fYYYv+DvM2QaHFskQOYcnTFIcyGD6/fVhOYpwwp2Wob4/UQ35ApLHHiCcwtb1iB6x8h8YbQHjM+8qNg+54JX0OmJyBkKh3pzbaqcaSf86z3COSBNiPGaq90syDiyhAjfoHj7DbqETD+LSqFwqNeW+zNMzhym+f/DtzwhxmtZHqxVjegE0J1Hh4dPT6L3C5V1lDPgBnVyEHxhtAlUEWo8CMteAagUgoU+84UqTM4wGAxzwNuEacKwFu9ibh+KOqHG7/jDMCsC5juP6Tp+RpCzLg74ndJPE6IcWbzTb3O2krIHIsTejO4tLzYHOaOrotvKkowcvCp9fPNBtVHRU4xWqKbULqo0H2pNzqp/pk8T8lwgLErOvAr+7/oT5sucO1OYUaX5bDvKWU4AlqFMiJOB4HJuJZxs6g/MUc56R9vkzC4tW9oqZxmUB3xARCSJ+qpKdRROCHKGNS768kBJkpBmXOAPAVAnB+UreUBEFPmfqVQH4YQoZxmOmSFLaJN2vxXWUjgmcfXFUs7ai6tyDpNt6dJtAga4+D+RonhikaUmp8mZhngkg1uSkKeCBQ54KsoXf+oCBBh3IdCb5EzZ/8m7YVlCRDLO5dxW+uZy/gY5q+5bNziLHGOtjngdrCrlIJzVNciZhlATpQn1EnxRUICQY7hK/sKBV1UqY7DGKqWckUCUniXUa3CXc4vB0IL+eYOcE18YLQNK5MBqN6uDnKHeXJ9RztB/1HVMiE+a6ofFzLgpQAhRxtUPct0c5Az1ijwjpZxxApBQlhD/qPHvC7wycFZHfx+dWFQL0XJNyklyRn8NvjBahv281LsY9VHh8LtzsEOEo/CurO3ORCRNyNm2+r1ZBFQlhCiz6vcv/oW0w8/JEHk215ZR+OsfEmQqkCfEbJueMqxgp12gk5rjPU460TMnyZn9ldAXRrswrza9R4Nzea6Lg675qcnATJy/v8Me9ltdljA6wFkE1KG5wbj+8PWDjNMcdINjixTMxN9o6Oq1TMMrCXnl7U+FtZRtUSlvhZn3i0lyznxhtBqdQ09hYP5Xbkw4N1SIOTqHnsaVDtKNCa1gp3WUjkiC94smKr4wWsyNKj22C891l/NnvRHucnZqdMcXxlSVHo3P5J4ZWWc5f3n1Rm6aAZezU+OAk3LQfl8YUOlkPzXD4mI3/MA8NeFcMQ1mUKXZT1QZn4oXX+VG2ISEVrDTVbriC0POW/qIVziFEdPwINwPyxKugOmHmRznag/TcRzHcdqKzZDvg5XkOM6KMUneByvJcZwVY5K8D1aS4zgrxiR5H6wkx3FWjEnyPlhJjtMN+k+LYjThB53VOcAQTJLC1duieDHJ8/pkBxhWkuN0gsF4PBhOeoR1dQ4wBJMkuXpVfPxUecc5MsUBhpXktJzeOV+TOrU3L7oLn2I9rbzjHFihAwzBJEk+FcXHvyvvOAemOcCwkpyWM5SHhsKLVJ1l2vJAq3SAIZgkSVgdqIGpDjCsJKfdbF8WFzs79bf1E3J3N23j6DkvmQey3PhQ3vrmcmHhSU6iDjDkhbKH42J8rA9ONnjKWBiQ45fXvGTGVBtAtL/x83N4s1ngi8yAixT8jWR8O5Jrj5gHDCvJaTfoxxx5pslZ3nduK1xOiPPsMDrTHjtHuTWgXh2dh/jPP7590eQpY1HwPYoX3zjPDqMzdP3yK4bjdCmSuK7QJ/znn7x+geTI85+V5LQa9WXDVXWkZ/b2f/rp0O4G7T56/CNHn+DuppVAvQdbB+NRXIsTET8/6F2ko3OUM/4faA7I+aLBU8aioHrfXX9/9ULcVEU5X79PR+coZ/x/pzko5xfqAcNKcloNr5zZWVXOxzLllD5qQXRrTbKkcWjZhGXF47Uz1FqrapCzJObwTTkjBsHlLOYgN8BEsomcK4uElXKWxNS7vhwpiV+0/k04B6gvmzOVM7rt+MkT6Bj9eliMHj3CxoPo7sZytAqIuC7nmkRNzriuVjlfbkc5L+csRxHX5Fz7sSrIWZbGV71HObtTqm6ALsnBmHK2vo0YdNU+FxrSjZakjahCyV3kjIglyVkUKtxFzoxxOXcC0yrljCB7LTq2ddKd/bbLOYh43eVsIgYuZ2cKuZxFtjLx7p3F6+gWyxl1FaXOJGckVjlP9JSxKHg5LEqdSc7h2hkJ/Nq5Y5hWq6Mze/fTx09aL2colQNsvz+LnPGfTpzxoXJGcDmGoVJ55+vq31nkjP/iwxnpVM4I+53tbpDLmT0ZU8iLnkanny0Fw/NFr/+I3toLrp9t+s6gYcQBRuV3Z5nGLAMZcV98u/pAb+3xAZHqnW1KXBxgVH93Rmb/3bkbmFbZM9mjj7Z6pxxzNBq9VuW8pBUrV4A86HXG0xfQp8LqIg0OMCQxVz/k6NzkKWNBQJh80OvNNygWQKi4Gq7rOTrAkKfCOHhzdFYPGFaS024SOXNkEkbb0q2fPkcYG5u7eKfRyfbSEI3eBbsVBqwkp92kct7aH1HN4uJmwODZz7JR3d0wtaO4nJ1NoFe6uHkQQ9Pd3XQRl7PjtAbIeZm3E1SRd4By1hvgVpLjdJBwG4HocyYpstUeJ1sGIsgmeIM7YM+ZpOhmeZ7MSnIcx3Ecx3EcJ0NmznPBCnQcZ1WYFueAFeg4zqowLc4BK9BxnFVhWpwDVqDjOKvCtDgHrEDHaTnTnNoovQt55hXIGxv136MXhWlRmOrUxngf1tWXVzbSH6StQMdpN1Od2igQcdgeXo9eDqZFAoFOdmpjpC9Dl+uYCFag01bcqY0yzamNUY7Oq5MzlxqZ5NQmEkdnl3PXcKc2wi31uTI5V+R5Iy7nTsG1R9ypzVSnNnRrMz46HvBJbU62OZ85HwU5H42xUUKLAzq82amNjNzvPn+UJ7Vlsv2hKN7gSlvk/AU5EbACnZaCfsxX/abJ2V6JbiezOLU5wZYj/EHPkDNSDrf2IX+R80kxRP4F24evRt3s1OYztnzhVuiZcn4PxZuKse0l8v/qcm437tSGMp3u1AabsOUkyPmECZPkjF/wlQrVe7NTm/fc8jnK+bOk1PSa35cMazvu1Ka+bH61qtwkw6/IGd+QJSQPa/UyvDjkBljQbJBzbakwbNI7YCpnfEUeTS/5qWkr0Gkn7tSmLufaj1UYjyVS5Iyr61LO/CcsWM4qTVLKOf4WFcBwrJEqZ1k939LjU3A5txx0X448lLP1bcTgatqd2pSIaPV0J3JG0JKX+ReKSZNMkbOKFmN2lDPCmj7mtwKdlpLIWXXMnmrTTXdqY/TosX04YXTW/AsliBhMkzPn1Lzt3Tg6a34r0GkpuZxFtjLxdqc2GUeMbrx2XoZtqFNbwm+qnHkjG9GN1856WW0FOi0ll3Mcndld3amN0nuECP6gJXLO72xb/h8WO+OmQDlznu7U5gMi+IOWyTm9s235v3+0Ap2WksuZPRmzSXdqk9K7GPGXvPBDldhHbvxDz8w27PUPLemCkOH1Rqc271/8i3QqXmr9N3x+tncwkO3lt6s/fXRuOYmc2TXdqQ3+VfTcezQ455NfULPouT8qRrsXT3+Utcd5Wb2Mp8JmcGrz4euHOBRTz1dvixcf37/+8ys38rIa26xAp6Ukctb+CtypzZohap0LVqDTUlI5u1ObNcW0OAesQKcbuFObdcS0OAesQMdxVoVpcQ5YgY7TJcJtBMIfpNaUDTlMx3Ecx3Ecx3Ecx3Ecx3Ecx3Ecx3Ecx3Ecx3Ecx3Ecx3Ecx3Ecx3Ecx3Ecx3Ecx3Ecx3Ecx3Ecx3Ecx3Ecx3Ecx3Ecx3Ecx3Ecx3Ecx3Gcm9ja+n+6Et1A1UB/dwAAAABJRU5ErkJggg==;" vertex="1" parent="WIyWlLk6GJQsqaUBKTNV-1">
          <mxGeometry x="1480" y="650" width="624" height="288.94" as="geometry" />
        </mxCell>
      </root>
    </mxGraphModel>
  </diagram>
</mxfile>
